<svg width="162" height="36" viewBox="0 0 162 36" fill="none" xmlns="http://www.w3.org/2000/svg">
<path d="M8.95476 35.852H7.79076V22.352C7.79076 13.044 12.9198 7.917 22.2338 7.917H35.9818V18.517C35.9818 28.564 28.6818 35.856 18.6308 35.856L8.95476 35.852ZM18.0478 31.794C19.8717 31.8046 21.6796 31.4533 23.3669 30.7605C25.0542 30.0677 26.5873 29.0472 27.8775 27.7579C29.1678 26.4686 30.1894 24.9362 30.8835 23.2494C31.5775 21.5626 31.93 19.755 31.9208 17.931V12.631H22.8208C16.2208 12.631 12.8528 15.674 12.5378 21.931C14.8608 19.886 18.0378 18.851 22.0188 18.851H27.0318C27.1081 19.2977 27.1353 19.7514 27.1128 20.204C27.1889 21.3878 26.8867 22.5652 26.2498 23.566H22.5998C16.7998 23.566 13.6818 26.26 13.0918 31.796L18.0478 31.794ZM2.89976 35.843H-0.000244141V17.921C-0.000244141 17.881 -0.000244141 17.84 -0.000244141 17.8V17.339C0.00663963 12.7404 1.83728 8.33239 5.09008 5.08184C8.34287 1.83129 12.7522 0.0037023 17.3508 0L35.8668 0V4.059H17.9338C14.2571 4.06164 10.7317 5.5226 8.13087 8.12134C5.53007 10.7201 4.06632 14.2444 4.06076 17.921V35.843H2.89976Z" fill="#B9B9B9"/>
<path d="M56.5228 10.3821H48.2228L48.4908 10.6381V13.4381L48.2228 13.7111L55.7058 13.7281V16.3071H48.2228L48.4908 16.5801V21.6181H45.6448V7.78613H56.5228V10.3821Z" fill="#B9B9B9"/>
<path d="M63.3088 21.7901C59.5588 21.7901 57.7008 19.3651 57.7008 16.2391C57.7008 13.1131 59.5588 10.6891 63.2918 10.6891C67.0588 10.6891 68.9168 13.0971 68.9168 16.2391C68.9698 16.9866 68.8607 17.7368 68.5968 18.4382C68.3329 19.1396 67.9205 19.7757 67.3879 20.3029C66.8553 20.8301 66.2151 21.2359 65.511 21.4926C64.807 21.7493 64.0557 21.8508 63.3088 21.7901ZM63.3088 13.1481C61.3338 13.1481 60.4968 14.3771 60.4968 16.2391C60.4968 18.0841 61.3668 19.3471 63.3088 19.3471C65.2678 19.3471 66.1208 18.0831 66.1208 16.2391C66.1208 14.3951 65.2638 13.1481 63.3088 13.1481Z" fill="#B9B9B9"/>
<path d="M75.6488 21.8061C73.7143 21.8089 71.8497 21.0835 70.4258 19.7741L72.2168 17.9291C72.6509 18.3932 73.174 18.7651 73.7548 19.0228C74.3357 19.2805 74.9624 19.4187 75.5978 19.4291C77.2048 19.4291 77.6738 18.9161 77.6738 18.5241C77.6738 18.1831 77.5228 17.9091 76.3008 17.6021C76.0668 17.5511 74.6438 17.1581 74.4098 17.1071C72.6018 16.6451 70.7438 15.8941 70.7438 13.9301C70.7438 12.0681 72.4848 10.7021 75.4808 10.7021C76.3508 10.663 77.2197 10.8018 78.0342 11.1101C78.8487 11.4184 79.5917 11.8897 80.2178 12.4951L78.4768 14.2541C77.6802 13.476 76.6104 13.0409 75.4968 13.0421C73.9228 13.0421 73.5548 13.5881 73.5548 13.8951C73.5548 14.3391 74.1238 14.5101 75.4128 14.8341C75.6308 14.8861 76.8688 15.2271 77.1038 15.2951C79.3298 15.8581 80.4848 16.7811 80.4848 18.4031C80.4858 20.2351 78.9128 21.8061 75.6488 21.8061Z" fill="#B9B9B9"/>
<path d="M87.2178 21.8061C85.2833 21.8089 83.4187 21.0835 81.9948 19.7741L83.7858 17.9291C84.2199 18.3932 84.743 18.7651 85.3238 19.0228C85.9047 19.2805 86.5314 19.4187 87.1668 19.4291C88.7738 19.4291 89.2428 18.9161 89.2428 18.5241C89.2428 18.1831 89.0918 17.9091 87.8698 17.6021C87.6358 17.5511 86.2128 17.1581 85.9778 17.1071C84.1698 16.6451 82.3118 15.8941 82.3118 13.9301C82.3118 12.0681 84.0528 10.7021 87.0488 10.7021C87.9188 10.663 88.7877 10.8018 89.6022 11.1101C90.4167 11.4184 91.1597 11.8897 91.7858 12.4951L90.0448 14.2541C89.2484 13.4761 88.179 13.041 87.0658 13.0421C85.4918 13.0421 85.1238 13.5881 85.1238 13.8951C85.1238 14.3391 85.6928 14.5101 86.9818 14.8341C87.1988 14.8861 88.4378 15.2271 88.6728 15.2951C90.8988 15.8581 92.0538 16.7811 92.0538 18.4031C92.0558 20.2351 90.4818 21.8061 87.2178 21.8061Z" fill="#B9B9B9"/>
<path d="M95.5218 10.1421C95.2081 10.1555 94.8975 10.0747 94.6301 9.91007C94.3627 9.74547 94.1508 9.50462 94.0214 9.21851C93.8921 8.9324 93.8513 8.61413 93.9044 8.30466C93.9575 7.99519 94.102 7.70866 94.3192 7.482C94.5365 7.25534 94.8167 7.09891 95.1236 7.03281C95.4306 6.96671 95.7503 6.99398 96.0416 7.11112C96.3329 7.22826 96.5825 7.4299 96.7583 7.6901C96.934 7.95029 97.0279 8.25712 97.0278 8.57111C97.0398 8.77505 97.0095 8.97928 96.939 9.171C96.8684 9.36271 96.759 9.5378 96.6176 9.68528C96.4762 9.83275 96.3059 9.94944 96.1173 10.0281C95.9288 10.1067 95.726 10.1455 95.5218 10.1421ZM96.9117 21.6191H94.1118V10.8601H96.9117V21.6191Z" fill="#B9B9B9"/>
<path d="M102.302 21.6201H99.5018V7.27413H102.302V21.6201Z" fill="#B9B9B9"/>
<path d="M117.234 21.6191H115.509V19.8431H115.475C114.966 20.4712 114.319 20.9737 113.585 21.3113C112.85 21.649 112.048 21.8128 111.24 21.7901C106.888 21.7901 104.427 19.0901 104.427 14.8391C104.427 10.4671 106.971 7.6151 111.341 7.6151C112.336 7.56761 113.331 7.73003 114.259 8.09182C115.188 8.45361 116.03 9.00668 116.731 9.71511L115.258 11.1841C114.782 10.6173 114.18 10.1705 113.499 9.87966C112.819 9.58885 112.079 9.46227 111.341 9.51012C108.041 9.51012 106.487 11.5261 106.487 14.8381C106.487 17.9981 107.993 19.8931 111.241 19.8931C111.784 19.9126 112.325 19.8214 112.832 19.6251C113.339 19.4288 113.8 19.1315 114.189 18.7513C114.577 18.3711 114.884 17.9159 115.091 17.4134C115.298 16.9109 115.401 16.3715 115.393 15.8281L115.593 15.6401H110.973V13.7401H117.234V21.6191Z" fill="#B9B9B9"/>
<path d="M125.769 12.7731H125.15C123.392 12.7561 122.036 13.7461 122.036 16.3091V21.6151H120.078V10.8611H122.036V12.5861H122.07C122.387 12.0076 122.858 11.5287 123.432 11.2031C124.006 10.8774 124.659 10.7178 125.318 10.7421H125.77L125.769 12.7731Z" fill="#B9B9B9"/>
<path d="M132.052 21.7901C128.57 21.7901 126.863 19.4161 126.863 16.2391C126.863 13.0621 128.588 10.6891 132.036 10.6891C135.518 10.6891 137.242 13.0291 137.242 16.2391C137.242 19.3991 135.484 21.7901 132.052 21.7901ZM132.052 12.4821C129.775 12.4821 128.821 14.0881 128.821 16.2391C128.821 18.3571 129.792 19.9961 132.052 19.9961C134.329 19.9961 135.283 18.3741 135.283 16.2391C135.283 14.1041 134.312 12.4821 132.052 12.4821Z" fill="#B9B9B9"/>
<path d="M148.961 21.6191H147.003V20.4581H146.969C146.565 20.8902 146.074 21.2321 145.529 21.4616C144.984 21.6911 144.396 21.8031 143.805 21.7901C140.725 21.7901 139.419 20.1331 139.419 17.5031V10.8601H141.378V17.4351C141.378 18.8861 141.796 19.9961 144.039 19.9961C144.423 20.0387 144.812 19.9973 145.178 19.875C145.545 19.7527 145.881 19.5523 146.162 19.2877C146.444 19.023 146.665 18.7003 146.81 18.342C146.955 17.9837 147.02 17.5982 147.002 17.2121V10.8591H148.96L148.961 21.6191Z" fill="#B9B9B9"/>
<path d="M156.982 21.7901C156.39 21.8201 155.8 21.7211 155.25 21.4999C154.701 21.2787 154.206 20.9406 153.801 20.5091H153.768V25.2091H151.809V10.8601H153.768V11.9701H153.801C154.208 11.5415 154.703 11.2053 155.252 10.9843C155.801 10.7633 156.391 10.6626 156.982 10.6891C160.33 10.6891 161.987 13.0461 161.987 16.2391C161.987 19.4501 160.363 21.7901 156.982 21.7901ZM156.832 12.4821C154.539 12.4821 153.632 14.1221 153.632 16.2731C153.632 18.4421 154.502 19.9961 156.832 19.9961C159.142 19.9961 160.032 18.4251 160.032 16.2731C160.032 14.1211 159.158 12.4821 156.831 12.4821H156.832Z" fill="#B9B9B9"/>
<path d="M49.1588 25.0772L47.7198 27.0902V28.5322H47.2138V27.0902L45.7708 25.0772H46.4028L47.2438 26.2882L47.4618 26.6592H47.4698L47.6838 26.2842L48.5328 25.0762L49.1588 25.0772Z" fill="#B9B9B9"/>
<path d="M51.3028 28.5752C51.0744 28.5885 50.8459 28.5514 50.6335 28.4666C50.421 28.3818 50.2298 28.2514 50.0734 28.0845C49.9169 27.9177 49.799 27.7185 49.7281 27.501C49.6571 27.2836 49.6348 27.0532 49.6628 26.8262C49.6433 26.599 49.6713 26.3703 49.7448 26.1545C49.8184 25.9387 49.936 25.7406 50.0902 25.5726C50.2444 25.4047 50.4318 25.2706 50.6405 25.1788C50.8493 25.0871 51.0748 25.0398 51.3028 25.0398C51.5307 25.0398 51.7562 25.0871 51.965 25.1788C52.1737 25.2706 52.3611 25.4047 52.5153 25.5726C52.6695 25.7406 52.7871 25.9387 52.8607 26.1545C52.9342 26.3703 52.9622 26.599 52.9427 26.8262C52.9692 27.0529 52.9459 27.2827 52.8745 27.4995C52.803 27.7164 52.6851 27.915 52.5289 28.0815C52.3727 28.248 52.1821 28.3785 51.9704 28.4637C51.7586 28.549 51.5307 28.587 51.3028 28.5752ZM51.3028 25.5082C50.5027 25.5082 50.1767 26.0882 50.1767 26.8272C50.1767 27.5482 50.5027 28.1032 51.3028 28.1032C52.1028 28.1032 52.4277 27.5492 52.4277 26.8272C52.4277 26.1052 52.1098 25.5072 51.3028 25.5072V25.5082Z" fill="#B9B9B9"/>
<path d="M56.7978 26.9462C56.7978 27.9962 56.3248 28.5762 55.3128 28.5762C54.3008 28.5762 53.8198 28.0042 53.8198 26.9462V25.0772H54.3198V26.9422C54.3198 27.6712 54.5797 28.1022 55.3077 28.1022C56.0357 28.1022 56.2947 27.6712 56.2947 26.9422V25.0772H56.7947L56.7978 26.9462Z" fill="#B9B9B9"/>
<path d="M60.8578 28.5332H60.2968L59.8578 27.6202C59.7901 27.4647 59.6742 27.3351 59.5273 27.2505C59.3804 27.1659 59.2102 27.1307 59.0418 27.1502H58.2807L58.3308 27.1982V28.5332H57.8308V25.0772H59.3658C59.5141 25.0582 59.6649 25.071 59.808 25.1145C59.9511 25.158 60.0834 25.2314 60.1961 25.3297C60.3088 25.4281 60.3994 25.5492 60.4619 25.6851C60.5244 25.821 60.5574 25.9686 60.5587 26.1182C60.5555 26.3111 60.4926 26.4982 60.3787 26.654C60.2648 26.8098 60.1056 26.9265 59.9227 26.9882V26.9972C60.0999 27.0848 60.2413 27.2311 60.3228 27.4112L60.8578 28.5332ZM59.3638 25.5512H58.2807L58.3308 25.6032V26.6232L58.2807 26.6792H59.3228C59.7908 26.6792 60.0418 26.4402 60.0418 26.1202C60.0418 25.7092 59.7658 25.5502 59.3638 25.5502V25.5512Z" fill="#B9B9B9"/>
<path d="M64.7797 28.5332H63.1398V25.0772H64.7468C64.8821 25.0601 65.0196 25.0721 65.15 25.1124C65.2803 25.1527 65.4006 25.2203 65.5027 25.3108C65.6049 25.4013 65.6865 25.5126 65.7422 25.6371C65.7979 25.7617 65.8264 25.8967 65.8258 26.0332C65.8338 26.1686 65.805 26.3036 65.7423 26.4239C65.6796 26.5442 65.5854 26.6452 65.4697 26.7162V26.7252C65.6276 26.7894 65.761 26.902 65.8509 27.0468C65.9407 27.1916 65.9823 27.3612 65.9697 27.5312C65.9747 28.1492 65.5497 28.5332 64.7797 28.5332ZM64.7048 25.5512H63.5918L63.6417 25.6032V26.4692L63.5918 26.5212H64.7048C65.1608 26.5212 65.3107 26.3032 65.3107 26.0302C65.3107 25.7132 65.1188 25.5502 64.7048 25.5502V25.5512ZM64.7797 26.9932H63.5918L63.6417 27.0452V28.0092L63.5918 28.0612H64.7797C65.2797 28.0612 65.4578 27.8692 65.4578 27.5322C65.4578 27.1952 65.2607 26.9922 64.7797 26.9922V26.9932Z" fill="#B9B9B9"/>
<path d="M69.7898 26.9462C69.7898 27.9962 69.3168 28.5762 68.3048 28.5762C67.2928 28.5762 66.8118 28.0042 66.8118 26.9462V25.0772H67.3118V26.9422C67.3118 27.6712 67.5708 28.1022 68.2988 28.1022C69.0268 28.1022 69.2858 27.6712 69.2858 26.9422V25.0772H69.7858L69.7898 26.9462Z" fill="#B9B9B9"/>
<path d="M72.1698 28.5752C71.8899 28.5852 71.6108 28.5381 71.3497 28.4369C71.0885 28.3356 70.8507 28.1823 70.6508 27.9862L71.0228 27.6192C71.169 27.7714 71.3444 27.8926 71.5386 27.9754C71.7327 28.0582 71.9417 28.101 72.1528 28.1012C72.7758 28.1012 73.0528 27.8662 73.0528 27.6012C73.0528 27.4092 72.8897 27.2092 72.4337 27.0892C72.3627 27.0682 71.8858 26.9441 71.8098 26.9231C71.1948 26.7521 70.7428 26.5232 70.7428 25.9972C70.7428 25.4972 71.1867 25.0372 72.1237 25.0372C72.3758 25.0294 72.6267 25.0748 72.8601 25.1702C73.0935 25.2656 73.3043 25.409 73.4788 25.5911L73.1107 25.9621C72.9923 25.8157 72.8415 25.6987 72.6703 25.6203C72.4991 25.5419 72.312 25.5042 72.1237 25.5102C71.4957 25.5102 71.2577 25.7491 71.2577 25.9791C71.2577 26.1921 71.4668 26.3161 72.0408 26.4791C72.1118 26.4961 72.5087 26.6072 72.5887 26.6282C73.2707 26.8032 73.5677 27.1572 73.5677 27.5802C73.5697 28.0762 73.1758 28.5752 72.1698 28.5752Z" fill="#B9B9B9"/>
<path d="M74.9728 28.5332H74.4728V25.0772H74.9728V28.5332Z" fill="#B9B9B9"/>
<path d="M78.9268 28.5332H78.4828L76.7827 26.2982L76.5488 25.9052H76.5398V28.5332H76.0398V25.0772H76.4838L78.1908 27.3172L78.4167 27.7052H78.4257V25.0772H78.9257L78.9268 28.5332Z" fill="#B9B9B9"/>
<path d="M82.5688 28.5332H79.9748V25.0772H82.5688V25.5502H80.4278L80.4778 25.6022V26.5152L80.4278 26.5712H82.3687V27.0412H80.4278L80.4778 27.0922V28.0092L80.4278 28.0612H82.5698L82.5688 28.5332Z" fill="#B9B9B9"/>
<path d="M84.8838 28.5752C84.6038 28.5851 84.3248 28.538 84.0637 28.4368C83.8026 28.3355 83.5648 28.1822 83.3647 27.9862L83.7378 27.6192C83.8839 27.7715 84.0594 27.8927 84.2536 27.9755C84.4477 28.0583 84.6567 28.1011 84.8678 28.1012C85.4908 28.1012 85.7678 27.8662 85.7678 27.6012C85.7678 27.4092 85.6048 27.2092 85.1488 27.0892C85.0778 27.0682 84.6007 26.9441 84.5257 26.9231C83.9107 26.7521 83.4588 26.5232 83.4588 25.9972C83.4588 25.4972 83.9028 25.0372 84.8388 25.0372C85.0908 25.0294 85.3417 25.0748 85.5751 25.1702C85.8086 25.2656 86.0193 25.409 86.1937 25.5911L85.8258 25.9621C85.7071 25.8157 85.5562 25.6986 85.3848 25.6202C85.2134 25.5418 85.0262 25.5041 84.8378 25.5102C84.2108 25.5102 83.9718 25.7491 83.9718 25.9791C83.9718 26.1921 84.1807 26.3161 84.7537 26.4791C84.8247 26.4961 85.2228 26.6072 85.3018 26.6282C85.9837 26.8032 86.2808 27.1572 86.2808 27.5802C86.2848 28.0762 85.8918 28.5752 84.8838 28.5752Z" fill="#B9B9B9"/>
<path d="M88.5167 28.5752C88.2368 28.5852 87.9578 28.5381 87.6967 28.4369C87.4355 28.3356 87.1977 28.1823 86.9978 27.9862L87.3697 27.6192C87.516 27.7714 87.6914 27.8926 87.8856 27.9754C88.0798 28.0582 88.2887 28.101 88.4997 28.1012C89.1227 28.1012 89.3997 27.8662 89.3997 27.6012C89.3997 27.4092 89.2368 27.2092 88.7808 27.0892C88.7098 27.0682 88.2328 26.9441 88.1568 26.9231C87.5418 26.7521 87.0897 26.5232 87.0897 25.9972C87.0897 25.4972 87.5338 25.0372 88.4708 25.0372C88.7228 25.0294 88.9737 25.0748 89.2071 25.1702C89.4405 25.2656 89.6513 25.409 89.8257 25.5911L89.4578 25.9621C89.3393 25.8157 89.1885 25.6987 89.0173 25.6203C88.8461 25.5419 88.659 25.5042 88.4708 25.5102C87.8428 25.5102 87.6048 25.7491 87.6048 25.9791C87.6048 26.1921 87.8137 26.3161 88.3877 26.4791C88.4587 26.4961 88.8558 26.6072 88.9358 26.6282C89.6178 26.8032 89.9148 27.1572 89.9148 27.5802C89.9178 28.0762 89.5287 28.5752 88.5167 28.5752Z" fill="#B9B9B9"/>
<path d="M94.9828 25.5502H93.7647L93.7898 25.6022V28.5332H93.2898V25.6022L93.3188 25.5502H92.0958V25.0772H94.9828V25.5502Z" fill="#B9B9B9"/>
<path d="M98.6068 28.5332H98.0588L97.7028 27.7332L97.7278 27.6862H95.9277L95.9528 27.7332L95.5967 28.5332H95.0487L96.5837 25.0772H97.0728L98.6068 28.5332ZM97.4977 27.2102L97.4478 27.1592L96.9287 25.9862L96.8287 25.6702H96.8207L96.7207 25.9812L96.1978 27.1592L96.1477 27.2102H97.4977Z" fill="#B9B9B9"/>
<path d="M102.27 28.5322H101.839V28.0882H101.832C101.705 28.245 101.543 28.3705 101.36 28.4547C101.176 28.539 100.976 28.5799 100.774 28.5742C100.543 28.5928 100.31 28.5604 100.093 28.4792C99.8759 28.398 99.6793 28.2701 99.517 28.1045C99.3548 27.9388 99.231 27.7395 99.1544 27.5207C99.0778 27.3018 99.0503 27.0688 99.0738 26.8382C99.0497 26.6021 99.0773 26.3637 99.1545 26.1393C99.2317 25.915 99.3568 25.7101 99.5211 25.5389C99.6854 25.3677 99.8849 25.2342 100.106 25.1477C100.327 25.0613 100.564 25.0239 100.801 25.0382C101.05 25.0263 101.298 25.067 101.53 25.1574C101.762 25.2479 101.973 25.3861 102.148 25.5632L101.78 25.9302C101.661 25.7885 101.51 25.6768 101.34 25.6042C101.17 25.5315 100.985 25.5 100.801 25.5122C99.9768 25.5122 99.5878 26.0122 99.5878 26.8432C99.5878 27.6322 99.9638 28.1062 100.776 28.1062C100.912 28.1112 101.047 28.0886 101.174 28.0396C101.3 27.9906 101.416 27.9162 101.513 27.8212C101.61 27.7261 101.686 27.6122 101.738 27.4865C101.79 27.3609 101.815 27.226 101.813 27.0902L101.863 27.0442H100.709V26.5702H102.273L102.27 28.5322Z" fill="#B9B9B9"/>
<path d="M105.715 28.5332H103.315V25.0772H103.815V28.0082L103.765 28.0602H105.71L105.715 28.5332Z" fill="#B9B9B9"/>
<path d="M106.972 28.5332H106.472V25.0772H106.972V28.5332Z" fill="#B9B9B9"/>
<path d="M110.926 28.5332H110.482L108.782 26.2982L108.548 25.9052H108.539V28.5332H108.039V25.0772H108.482L110.189 27.3172L110.414 27.7052H110.423V25.0772H110.923L110.926 28.5332Z" fill="#B9B9B9"/>
<path d="M114.567 28.5332H111.974V25.0772H114.567V25.5502H112.425L112.475 25.6022V26.5152L112.425 26.5712H114.366V27.0412H112.425L112.475 27.0922V28.0092L112.425 28.0612H114.567V28.5332Z" fill="#B9B9B9"/>
<path d="M120.175 28.5322H119.745V28.0882H119.737C119.609 28.2451 119.448 28.3706 119.264 28.4549C119.08 28.5392 118.88 28.58 118.678 28.5742C118.447 28.5926 118.214 28.5601 117.997 28.4789C117.78 28.3976 117.584 28.2697 117.421 28.1041C117.259 27.9385 117.135 27.7392 117.059 27.5205C116.982 27.3017 116.954 27.0688 116.978 26.8382C116.954 26.602 116.981 26.3635 117.059 26.1391C117.136 25.9146 117.261 25.7097 117.425 25.5385C117.59 25.3673 117.789 25.2338 118.011 25.1474C118.232 25.061 118.469 25.0238 118.706 25.0382C118.955 25.0263 119.203 25.067 119.435 25.1574C119.667 25.2479 119.878 25.3861 120.053 25.5632L119.685 25.9302C119.566 25.7886 119.415 25.677 119.245 25.6044C119.075 25.5318 118.89 25.5002 118.706 25.5122C117.882 25.5122 117.493 26.0122 117.493 26.8432C117.493 27.6322 117.869 28.1062 118.681 28.1062C118.816 28.1112 118.952 28.0886 119.079 28.0396C119.205 27.9906 119.321 27.9162 119.418 27.8212C119.515 27.7261 119.591 27.6122 119.643 27.4865C119.695 27.3609 119.72 27.226 119.718 27.0902L119.768 27.0442H118.614V26.5702H120.178L120.175 28.5322Z" fill="#B9B9B9"/>
<path d="M122.717 28.5752C122.488 28.5885 122.26 28.5514 122.047 28.4666C121.835 28.3818 121.644 28.2514 121.487 28.0845C121.331 27.9177 121.213 27.7185 121.142 27.501C121.071 27.2836 121.049 27.0532 121.077 26.8262C121.057 26.599 121.085 26.3703 121.159 26.1545C121.232 25.9387 121.35 25.7406 121.504 25.5726C121.658 25.4047 121.846 25.2706 122.055 25.1788C122.263 25.0871 122.489 25.0398 122.717 25.0398C122.945 25.0398 123.17 25.0871 123.379 25.1788C123.588 25.2706 123.775 25.4047 123.929 25.5726C124.083 25.7406 124.201 25.9387 124.275 26.1545C124.348 26.3703 124.376 26.599 124.357 26.8262C124.383 27.0529 124.36 27.2827 124.288 27.4995C124.217 27.7164 124.099 27.915 123.943 28.0815C123.787 28.248 123.596 28.3785 123.384 28.4637C123.173 28.549 122.945 28.587 122.717 28.5752ZM122.717 25.5082C121.917 25.5082 121.592 26.0882 121.592 26.8272C121.592 27.5482 121.918 28.1032 122.717 28.1032C123.516 28.1032 123.842 27.5492 123.842 26.8272C123.842 26.1052 123.524 25.5072 122.717 25.5072V25.5082Z" fill="#B9B9B9"/>
<path d="M127.852 28.5332H125.259V25.0772H127.852V25.5502H125.71L125.76 25.6022V26.5152L125.71 26.5712H127.651V27.0412H125.71L125.76 27.0922V28.0092L125.71 28.0612H127.852V28.5332Z" fill="#B9B9B9"/>
<path d="M130.167 28.5752C129.887 28.585 129.608 28.5379 129.347 28.4367C129.086 28.3354 128.849 28.1821 128.649 27.9862L129.021 27.6192C129.167 27.7714 129.342 27.8926 129.536 27.9754C129.73 28.0582 129.939 28.101 130.15 28.1012C130.774 28.1012 131.05 27.8662 131.05 27.6012C131.05 27.4092 130.887 27.2092 130.431 27.0892C130.36 27.0682 129.883 26.9441 129.808 26.9231C129.193 26.7521 128.741 26.5232 128.741 25.9972C128.741 25.4972 129.184 25.0372 130.121 25.0372C130.373 25.0294 130.624 25.0748 130.857 25.1702C131.091 25.2656 131.301 25.409 131.476 25.5911L131.108 25.9621C130.989 25.8156 130.838 25.6985 130.667 25.6201C130.495 25.5417 130.308 25.504 130.12 25.5102C129.493 25.5102 129.254 25.7491 129.254 25.9791C129.254 26.1921 129.463 26.3161 130.036 26.4791C130.107 26.4961 130.505 26.6072 130.584 26.6282C131.266 26.8032 131.563 27.1572 131.563 27.5802C131.569 28.0762 131.175 28.5752 130.167 28.5752Z" fill="#B9B9B9"/>
<path d="M136.927 28.5332H136.427V27.0952L136.477 27.0442H134.494L134.544 27.0952V28.5332H134.044V25.0772H134.544V26.5192L134.494 26.5702H136.475L136.425 26.5192V25.0772H136.925L136.927 28.5332Z" fill="#B9B9B9"/>
<path d="M140.568 28.5332H137.974V25.0772H140.568V25.5502H138.426L138.476 25.6022V26.5152L138.426 26.5712H140.367V27.0412H138.426L138.476 27.0922V28.0092L138.426 28.0612H140.568V28.5332Z" fill="#B9B9B9"/>
<path d="M144.561 28.5332H144L143.561 27.6202C143.493 27.4646 143.377 27.3349 143.23 27.2503C143.083 27.1657 142.913 27.1306 142.745 27.1502H141.984L142.034 27.1982V28.5332H141.534V25.0772H143.069C143.217 25.0582 143.368 25.071 143.511 25.1145C143.654 25.158 143.786 25.2314 143.899 25.3298C144.011 25.4281 144.102 25.5493 144.164 25.6852C144.227 25.8211 144.26 25.9686 144.261 26.1182C144.258 26.3111 144.195 26.4984 144.081 26.6542C143.967 26.81 143.808 26.9266 143.625 26.9882V26.9972C143.802 27.0848 143.943 27.2311 144.025 27.4112L144.561 28.5332ZM143.067 25.5512H141.983L142.033 25.6032V26.6232L141.983 26.6792H143.025C143.494 26.6792 143.744 26.4402 143.744 26.1202C143.745 25.7092 143.469 25.5502 143.067 25.5502V25.5512Z" fill="#B9B9B9"/>
<path d="M147.846 28.5332H145.253V25.0772H147.846V25.5502H145.704L145.754 25.6022V26.5152L145.704 26.5712H147.645V27.0412H145.704L145.754 27.0922V28.0092L145.704 28.0612H147.846V28.5332Z" fill="#B9B9B9"/>
</svg>
