<svg width="113" height="48" viewBox="0 0 113 48" fill="none" xmlns="http://www.w3.org/2000/svg">
<path d="M13.8708 12.677H14.8508C15.6278 12.677 16.3731 12.9857 16.9226 13.5352C17.4721 14.0847 17.7808 14.8299 17.7808 15.607C17.7808 21.307 17.7618 27.017 17.7808 32.722C17.7808 32.791 17.7808 32.86 17.7808 32.93C17.7808 33.317 17.8388 33.7 17.8538 34.086C17.8138 33.003 17.8888 34.164 17.9708 34.498C18.0595 34.8604 18.1674 35.2179 18.2938 35.569C18.3118 35.62 18.3458 35.691 18.3768 35.764L18.4448 35.911C18.6158 36.254 18.8048 36.5878 19.0108 36.911C19.0948 37.043 19.1818 37.173 19.2718 37.301L19.2808 37.312L20.7348 38.766C20.8688 38.858 21.0018 38.951 21.1348 39.038C21.4443 39.2356 21.7637 39.4171 22.0918 39.582C22.2038 39.639 22.3638 39.687 22.4798 39.756C22.8304 39.8818 23.1872 39.9896 23.5488 40.079C23.8828 40.161 25.0438 40.236 23.9598 40.196C24.3818 40.212 24.7998 40.266 25.2228 40.27C25.5048 40.27 25.7868 40.259 26.0688 40.237C26.1368 40.231 26.2498 40.209 26.3508 40.198H26.3668C26.6781 40.1373 26.9861 40.0633 27.2908 39.976C27.4808 39.921 27.6908 39.826 27.8908 39.746C27.8518 39.784 27.9308 39.795 28.0828 39.717L28.2558 39.631C28.2858 39.625 28.3158 39.618 28.3458 39.614L28.2658 39.626C28.3848 39.568 28.5028 39.509 28.6198 39.446C28.8864 39.304 29.1441 39.151 29.3928 38.987C29.4728 38.935 29.5508 38.881 29.6278 38.827L29.5888 38.879C29.6028 38.86 29.6198 38.841 29.6358 38.822L29.8048 38.705C29.9608 38.605 29.9758 38.526 29.9048 38.562C30.1048 38.397 30.3228 38.24 30.4818 38.081C30.6738 37.888 30.8588 37.689 31.0358 37.481C31.0938 37.397 31.1768 37.304 31.2168 37.246C31.4068 36.9713 31.5834 36.689 31.7468 36.399C31.8683 36.1084 32.0069 35.8252 32.1618 35.551C32.2048 35.43 32.2468 35.309 32.2858 35.187C32.3858 34.862 32.4768 34.532 32.5488 34.2C32.5738 34.084 32.5948 33.968 32.6168 33.851C32.6428 33.509 32.6668 33.169 32.6698 32.826C32.6828 31.197 32.6698 29.567 32.6698 27.937V15.607C32.6698 14.8299 32.9785 14.0847 33.5279 13.5352C34.0774 12.9857 34.8227 12.677 35.5998 12.677H36.5798C37.3568 12.677 38.1021 12.9857 38.6516 13.5352C39.2011 14.0847 39.5098 14.8299 39.5098 15.607V16.366C39.5098 21.851 39.5568 27.338 39.5098 32.823C39.4621 36.597 37.9423 40.2032 35.2742 42.8728C32.6061 45.5424 29.0008 47.0643 25.2268 47.114C25.1648 47.114 25.1028 47.114 25.0418 47.108C18.4198 46.955 12.2738 42.077 11.1918 35.408C10.9275 33.1801 10.8433 30.9345 10.9398 28.693V15.607C10.9398 15.2222 11.0156 14.8411 11.1629 14.4855C11.3102 14.13 11.5261 13.8069 11.7983 13.5348C12.0705 13.2627 12.3936 13.0469 12.7492 12.8997C13.1048 12.7526 13.4859 12.6769 13.8708 12.677Z" fill="#B9B9B9"/>
<path d="M25.6629 34.433H24.6828C23.9058 34.433 23.1605 34.1243 22.611 33.5748C22.0616 33.0253 21.7529 32.2801 21.7529 31.503C21.7529 25.798 21.7709 20.092 21.7529 14.388C21.7529 14.318 21.7529 14.249 21.7529 14.18C21.7529 13.792 21.6949 13.409 21.6799 13.023C21.7199 14.107 21.6449 12.946 21.5629 12.612C21.4738 12.2493 21.366 11.8915 21.2399 11.54C21.2219 11.49 21.1868 11.418 21.1568 11.345L21.0889 11.199C20.9182 10.8558 20.7292 10.522 20.5228 10.199C20.4388 10.067 20.3519 9.93701 20.2619 9.80901L20.2529 9.798L18.7988 8.34401C18.6648 8.25301 18.5329 8.15901 18.3988 8.07201C18.0892 7.87462 17.7698 7.69305 17.4418 7.528C17.3288 7.471 17.1698 7.428 17.0538 7.354C16.7029 7.22864 16.3457 7.12117 15.9838 7.032C15.6508 6.95 14.4899 6.87501 15.5729 6.91501C15.1509 6.89901 14.7329 6.84501 14.3109 6.84201C14.0289 6.84201 13.7459 6.853 13.4649 6.875C13.3969 6.875 13.2838 6.90301 13.1828 6.91301H13.1658C12.8545 6.97368 12.5465 7.048 12.2419 7.136C12.0519 7.19 11.8419 7.28501 11.6419 7.36601C11.6809 7.32801 11.6018 7.317 11.4498 7.395C11.3918 7.425 11.3348 7.45301 11.2768 7.48201C11.2468 7.48801 11.2168 7.495 11.1868 7.498L11.2669 7.48601C11.1479 7.54501 11.0299 7.603 10.9129 7.666C10.6489 7.808 10.3908 7.96601 10.1398 8.12601C10.0598 8.17801 9.98186 8.231 9.90486 8.285L9.94484 8.23401C9.93084 8.25301 9.91387 8.272 9.89687 8.291C9.84087 8.33 9.78486 8.369 9.72786 8.407C9.57186 8.507 9.55685 8.587 9.62785 8.55C9.42785 8.716 9.20986 8.87201 9.05086 9.03101C8.85819 9.22301 8.6732 9.42301 8.49586 9.63101C8.43787 9.71601 8.35487 9.80801 8.31487 9.86601C8.12553 10.1393 7.94887 10.4217 7.78487 10.713C7.66351 11.0037 7.52492 11.2868 7.36986 11.561C7.32652 11.6817 7.2852 11.8033 7.24586 11.926C7.14586 12.25 7.05584 12.58 6.98384 12.913C6.95784 13.029 6.93784 13.146 6.91484 13.262C6.88984 13.604 6.86587 13.944 6.86287 14.288C6.84887 15.917 6.86287 17.547 6.86287 19.177V31.505C6.8626 32.2822 6.55368 33.0274 6.00404 33.5769C5.4544 34.1263 4.70905 34.435 3.93187 34.435H2.95287C2.17569 34.435 1.43033 34.1263 0.880691 33.5769C0.331051 33.0274 0.0221306 32.2822 0.0218654 31.505V30.745C0.0218654 25.261 -0.0251345 19.773 0.0218654 14.289C0.0702795 10.5156 1.59029 6.91023 4.25807 4.24115C6.92585 1.57207 10.5305 0.0502631 14.3038 0C14.3648 0 14.4269 1.19628e-05 14.4879 0.00601196C21.1099 0.159012 27.2558 5.03701 28.3378 11.706C28.602 13.9336 28.6863 16.1789 28.5899 18.42V31.506C28.5888 32.282 28.2801 33.0258 27.7314 33.5745C27.1827 34.1232 26.4388 34.4319 25.6629 34.433Z" fill="#E3E3E3"/>
<path d="M50.251 18.9991V30.2791H48.795V18.9991H50.251ZM62.0958 24.6311C62.0958 25.7724 61.8665 26.7697 61.4078 27.6231C60.9492 28.4657 60.2718 29.1217 59.3758 29.5911C58.4905 30.0497 57.4238 30.2791 56.1758 30.2791H52.5918V18.9991H56.1758C57.4238 18.9991 58.4905 19.2284 59.3758 19.6871C60.2718 20.1351 60.9492 20.7857 61.4078 21.6391C61.8665 22.4817 62.0958 23.4791 62.0958 24.6311ZM56.0638 28.9671C57.5358 28.9671 58.6612 28.5884 59.4398 27.8311C60.2185 27.0737 60.6078 26.0071 60.6078 24.6311C60.6078 23.2551 60.2185 22.1884 59.4398 21.4311C58.6718 20.6631 57.5465 20.2791 56.0638 20.2791H54.0478V28.9671H56.0638ZM65.5166 20.1831V24.0391H69.8046V25.1591H65.5166V29.0951H70.2846V30.2791H64.0606V18.9991H70.2846V20.1831H65.5166ZM80.9223 30.2791H79.4663L73.6103 21.3671V30.2791H72.1543V18.9991H73.6103L79.4663 27.9271V18.9991H80.9223V30.2791ZM90.1757 18.9991V20.1831H86.9917V30.2791H85.5357V20.1831H82.3517V18.9991H90.1757ZM93.0791 18.9991V30.2791H91.6231V18.9991H93.0791ZM102.332 18.9991V20.1831H99.148V30.2791H97.692V20.1831H94.508V18.9991H102.332ZM111.795 18.9991L108.099 26.0071V30.2791H106.627V26.0071L102.915 18.9991H104.611L107.379 24.4551L110.131 18.9991H111.795Z" fill="#B9B9B9"/>
<path d="M68.358 38.271C68.358 38.5137 68.2996 38.74 68.183 38.95C68.0663 39.1554 67.889 39.321 67.651 39.447C67.413 39.573 67.1213 39.636 66.776 39.636C66.44 39.636 66.139 39.5777 65.873 39.461C65.607 39.3397 65.3946 39.1717 65.236 38.957C65.0773 38.7424 64.9863 38.495 64.963 38.215H65.817C65.8403 38.4297 65.9313 38.614 66.09 38.768C66.2533 38.922 66.4703 38.999 66.741 38.999C66.9836 38.999 67.1703 38.9337 67.301 38.803C67.4363 38.6724 67.504 38.5044 67.504 38.299C67.504 38.1217 67.455 37.977 67.357 37.865C67.259 37.7484 67.1376 37.6574 66.993 37.592C66.8483 37.5267 66.65 37.452 66.398 37.368C66.09 37.27 65.838 37.172 65.642 37.074C65.4506 36.976 65.2873 36.8337 65.152 36.647C65.0166 36.4604 64.949 36.2154 64.949 35.912C64.949 35.646 65.0143 35.4127 65.145 35.212C65.2756 35.0114 65.4623 34.8574 65.705 34.75C65.9476 34.638 66.2276 34.582 66.545 34.582C67.049 34.582 67.448 34.7034 67.742 34.946C68.0406 35.1887 68.211 35.506 68.253 35.898H67.392C67.3593 35.7114 67.2706 35.5527 67.126 35.422C66.986 35.2867 66.7923 35.219 66.545 35.219C66.321 35.219 66.1413 35.2774 66.006 35.394C65.8706 35.506 65.803 35.6694 65.803 35.884C65.803 36.052 65.8496 36.192 65.943 36.304C66.0363 36.4114 66.153 36.4977 66.293 36.563C66.4376 36.6237 66.6336 36.696 66.881 36.78C67.1936 36.878 67.448 36.9784 67.644 37.081C67.8446 37.179 68.0126 37.3237 68.148 37.515C68.288 37.7064 68.358 37.9584 68.358 38.271ZM69.9548 38.964H71.6628V39.587H69.1568V34.645H69.9548V38.964ZM74.5767 34.582C75.034 34.582 75.447 34.6894 75.8157 34.904C76.189 35.1187 76.4807 35.4197 76.6907 35.807C76.9054 36.1897 77.0127 36.6237 77.0127 37.109C77.0127 37.5944 76.9054 38.0307 76.6907 38.418C76.4807 38.8007 76.189 39.1017 75.8157 39.321C75.447 39.5357 75.034 39.643 74.5767 39.643C74.1147 39.643 73.697 39.5357 73.3237 39.321C72.955 39.1017 72.6634 38.8007 72.4487 38.418C72.234 38.0307 72.1267 37.5944 72.1267 37.109C72.1267 36.6237 72.234 36.1897 72.4487 35.807C72.6634 35.4197 72.955 35.1187 73.3237 34.904C73.697 34.6894 74.1147 34.582 74.5767 34.582ZM74.5767 35.324C74.2594 35.324 73.977 35.3964 73.7297 35.541C73.4824 35.6857 73.2887 35.8934 73.1487 36.164C73.0134 36.4347 72.9457 36.7497 72.9457 37.109C72.9457 37.4684 73.0134 37.7834 73.1487 38.054C73.2887 38.3247 73.4824 38.5324 73.7297 38.677C73.977 38.8217 74.2594 38.894 74.5767 38.894C74.8894 38.894 75.167 38.8217 75.4097 38.677C75.657 38.5324 75.8484 38.3247 75.9837 38.054C76.1237 37.7834 76.1937 37.4684 76.1937 37.109C76.1937 36.7497 76.1237 36.4347 75.9837 36.164C75.8484 35.8934 75.657 35.6857 75.4097 35.541C75.167 35.3964 74.8894 35.324 74.5767 35.324ZM80.079 34.603C80.667 34.603 81.157 34.7477 81.549 35.037C81.941 35.3264 82.2 35.7207 82.326 36.22H81.486C81.3786 35.954 81.2013 35.7417 80.954 35.583C80.7113 35.4244 80.422 35.345 80.086 35.345C79.778 35.345 79.5003 35.4174 79.253 35.562C79.0103 35.7067 78.819 35.912 78.679 36.178C78.5436 36.444 78.476 36.7567 78.476 37.116C78.476 37.494 78.546 37.8184 78.686 38.089C78.826 38.3597 79.022 38.5674 79.274 38.712C79.5306 38.852 79.827 38.922 80.163 38.922C80.5736 38.922 80.926 38.796 81.22 38.544C81.514 38.2874 81.6913 37.9374 81.752 37.494H79.939V36.906H82.424V37.669C82.368 38.033 82.2373 38.3644 82.032 38.663C81.8313 38.957 81.563 39.1927 81.227 39.37C80.8956 39.5474 80.5153 39.636 80.086 39.636C79.6053 39.636 79.1806 39.5287 78.812 39.314C78.4433 39.0994 78.1586 38.803 77.958 38.425C77.7573 38.0424 77.657 37.606 77.657 37.116C77.657 36.626 77.7573 36.192 77.958 35.814C78.1586 35.4314 78.441 35.135 78.805 34.925C79.1736 34.7104 79.5983 34.603 80.079 34.603ZM86.179 38.516H84.093L83.715 39.587H82.861L84.681 34.722H85.598L87.411 39.587H86.557L86.179 38.516ZM85.955 37.9L85.136 35.59L84.317 37.9H85.955ZM92.0005 39.587H91.2025L88.8015 35.94V39.587H88.0035V34.652H88.8015L91.2025 38.313V34.652H92.0005V39.587ZM98.534 34.645V39.587H97.729V37.368H95.405V39.587H94.607V34.645H95.405V36.717H97.729V34.645H98.534ZM100.3 35.289V36.787H102.12V37.403H100.3V38.936H102.33V39.587H99.5016V34.645H102.33V35.289H100.3ZM105.701 39.587L104.469 37.613H103.902V39.587H103.104V34.645H104.847C105.412 34.645 105.839 34.7827 106.128 35.058C106.422 35.3334 106.569 35.6974 106.569 36.15C106.569 36.5374 106.459 36.8547 106.24 37.102C106.025 37.3494 105.713 37.508 105.302 37.578L106.597 39.587H105.701ZM103.902 37.046H104.784C105.428 37.046 105.75 36.7614 105.75 36.192C105.75 35.9214 105.671 35.7114 105.512 35.562C105.358 35.408 105.115 35.331 104.784 35.331H103.902V37.046ZM108.086 35.289V36.787H109.906V37.403H108.086V38.936H110.116V39.587H107.288V34.645H110.116V35.289H108.086Z" fill="#B9B9B9"/>
</svg>
