<svg width="148" height="113" viewBox="0 0 148 113" fill="none" xmlns="http://www.w3.org/2000/svg">
<path opacity="0.1" d="M140.753 1.07102L10.9793 39.2479C3.35831 41.4898 -0.994565 49.4046 1.29543 56.8789L28.9925 147.279C31.2747 154.728 39.3368 159.018 46.9855 156.768L176.759 118.591C184.361 116.355 188.739 108.455 186.443 100.96L158.746 10.5601C156.463 3.11109 148.401 -1.17906 140.753 1.07102ZM141.612 10.6732L97.7477 90.535L15.7045 47.7126L141.612 10.6732ZM37.6446 142.693L11.0813 55.9937L68.736 86.0863L37.6446 142.693ZM46.1264 147.166L77.2373 90.5235L97.452 101.074C99.7921 102.296 102.7 101.434 103.957 99.1456L114.586 79.7934L172.079 110.113L46.1264 147.166ZM176.644 101.802L119.151 71.4821L150.094 15.146L176.644 101.802Z" fill="#F2EDDC"/>
</svg>
