<svg width="128" height="59" viewBox="0 0 128 59" fill="none" xmlns="http://www.w3.org/2000/svg">
<path d="M8.74298 37.4692C8.45588 37.2266 8.08419 37.1081 7.70968 37.1396C7.33517 37.1711 6.98854 37.3501 6.746 37.6372C6.50346 37.9243 6.38487 38.296 6.41638 38.6705C6.44788 39.045 6.6269 39.3916 6.914 39.6342L18.759 49.6432V55.4932C16.4991 55.3753 14.2847 54.8126 12.2427 53.8374C10.2007 52.8622 8.37115 51.4937 6.85897 49.8102C0.00497293 41.8252 3.188 30.3512 7.065 22.1322C9.41565 17.5486 12.2357 13.2214 15.48 9.22017C15.7122 8.92458 15.8175 8.54886 15.7726 8.17566C15.7278 7.80247 15.5366 7.46236 15.241 7.23016C14.9454 6.99796 14.5697 6.8927 14.1965 6.93752C13.8233 6.98234 13.4832 7.17357 13.251 7.46916C9.87481 11.6374 6.94262 16.1465 4.50198 20.9232C-1.57102 33.7972 -1.49803 44.4232 4.70797 51.6562C6.63337 53.801 8.99393 55.5108 11.6322 56.6715C14.2705 57.8321 17.1259 58.417 20.008 58.3872H20.022C20.4262 58.3738 20.8108 58.2095 21.0999 57.9267C21.389 57.6438 21.5617 57.263 21.584 56.8592V48.9902C21.5842 48.7843 21.5395 48.5809 21.4532 48.3941C21.3668 48.2072 21.2409 48.0414 21.084 47.9082L8.74298 37.4692Z" fill="#B9B9B9"/>
<path d="M30.396 28.5542L20.196 36.8012L9.90797 28.3262C9.7653 28.2007 9.59887 28.1052 9.41856 28.0454C9.23824 27.9855 9.04774 27.9625 8.85837 27.9778C8.66901 27.9931 8.48466 28.0462 8.31626 28.1342C8.14786 28.2221 7.99885 28.3431 7.87812 28.4897C7.75739 28.6364 7.66739 28.8059 7.61347 28.9881C7.55955 29.1702 7.5428 29.3614 7.56425 29.5502C7.58569 29.7389 7.64488 29.9215 7.73829 30.0869C7.83169 30.2523 7.95742 30.3973 8.10798 30.5132C8.26598 30.6432 19.208 39.6652 19.375 39.7822C19.6257 39.9618 19.9285 40.0543 20.2369 40.0452C20.5453 40.0362 20.8422 39.9262 21.082 39.7322L32.182 30.7572C32.336 30.6435 32.4653 30.4997 32.5622 30.3346C32.6591 30.1696 32.7215 29.9866 32.7458 29.7967C32.77 29.6068 32.7555 29.414 32.7032 29.2299C32.6509 29.0458 32.5617 28.8742 32.4413 28.7254C32.3208 28.5767 32.1714 28.4539 32.0022 28.3645C31.8329 28.275 31.6473 28.2208 31.4566 28.2051C31.2658 28.1894 31.0738 28.2125 30.8922 28.273C30.7106 28.3335 30.5432 28.4301 30.4 28.5572L30.396 28.5542Z" fill="#B9B9B9"/>
<path d="M12.851 20.6352C12.5672 20.3888 12.1972 20.2652 11.8223 20.2917C11.4474 20.3181 11.0984 20.4924 10.852 20.7762C10.6056 21.0599 10.4821 21.43 10.5085 21.8049C10.5349 22.1798 10.7092 22.5288 10.993 22.7752L14.378 25.7142C14.6618 25.9606 15.0318 26.0841 15.4067 26.0577C15.7816 26.0312 16.1306 25.8569 16.377 25.5732C16.6234 25.2894 16.7469 24.9193 16.7205 24.5445C16.6941 24.1696 16.5198 23.8206 16.236 23.5742L12.851 20.6352Z" fill="#B9B9B9"/>
<path d="M24.119 46.1522C24.2368 46.2962 24.3818 46.4157 24.5457 46.5037C24.7097 46.5917 24.8894 46.6466 25.0746 46.6652C25.2597 46.6837 25.4467 46.6656 25.6249 46.6119C25.8031 46.5582 25.9689 46.47 26.113 46.3521L34.231 39.7271C34.3754 39.6095 34.4953 39.4645 34.5837 39.3005C34.6722 39.1366 34.7274 38.9567 34.7464 38.7714C34.7653 38.5861 34.7476 38.3988 34.6941 38.2203C34.6407 38.0418 34.5527 37.8756 34.435 37.7312C34.3173 37.5867 34.1723 37.4668 34.0084 37.3784C33.8444 37.29 33.6646 37.2347 33.4792 37.2158C33.2939 37.1968 33.1066 37.2146 32.9282 37.268C32.7497 37.3214 32.5834 37.4095 32.439 37.5272L24.321 44.1522C24.1759 44.2699 24.0555 44.4151 23.9668 44.5795C23.8781 44.7439 23.8227 44.9242 23.804 45.1101C23.7852 45.296 23.8034 45.4838 23.8574 45.6626C23.9115 45.8414 24.0004 46.0078 24.119 46.1522Z" fill="#B9B9B9"/>
<path d="M35.871 20.9192C32.035 12.7882 23.244 2.90316 21.286 0.511162C21.0923 0.278096 20.8289 0.113294 20.5345 0.040955C20.2402 -0.0313842 19.9305 -0.00745159 19.6508 0.109246C19.371 0.225943 19.1361 0.429251 18.9805 0.689316C18.8248 0.949382 18.7567 1.2525 18.786 1.55416C18.749 1.77316 18.762 0.200163 18.762 28.4112C18.773 28.6858 18.8597 28.9521 19.0125 29.1806C19.1653 29.4091 19.3783 29.591 19.6279 29.7061C19.8775 29.8213 20.1541 29.8652 20.4271 29.8331C20.7001 29.801 20.9589 29.6941 21.175 29.5242L29.575 22.8962C29.7211 22.7809 29.843 22.6379 29.9339 22.4755C30.0247 22.313 30.0827 22.1343 30.1045 21.9495C30.1263 21.7646 30.1114 21.5773 30.0608 21.3982C30.0102 21.2191 29.9248 21.0518 29.8095 20.9057C29.6942 20.7596 29.5513 20.6376 29.3888 20.5468C29.2264 20.4559 29.0477 20.3979 28.8628 20.3762C28.678 20.3544 28.4907 20.3692 28.3116 20.4198C28.1325 20.4705 27.9651 20.5559 27.819 20.6712L21.6 25.5802V5.28016C24.985 9.33316 30.558 16.2802 33.316 22.1262C37.193 30.3452 40.377 41.8192 33.522 49.8042C31.5005 52.3714 28.6838 54.1947 25.514 54.9882C25.3314 55.031 25.1592 55.1096 25.0072 55.2195C24.8553 55.3293 24.7266 55.4683 24.6288 55.6282C24.5309 55.7882 24.4658 55.966 24.4371 56.1513C24.4085 56.3366 24.4169 56.5257 24.4619 56.7078C24.5069 56.8898 24.5876 57.0611 24.6993 57.2117C24.811 57.3623 24.9514 57.4893 25.1125 57.5852C25.2736 57.6812 25.4522 57.7442 25.6378 57.7706C25.8235 57.797 26.0125 57.7863 26.194 57.7392C29.9361 56.805 33.2668 54.6653 35.672 51.6502C41.877 44.4192 41.945 33.7922 35.871 20.9192Z" fill="#B9B9B9"/>
<path d="M52.584 25.6341C52.5877 25.4376 52.5424 25.2432 52.4521 25.0686C52.3619 24.894 52.2295 24.7447 52.067 24.6341C51.6623 24.3653 51.1822 24.2332 50.6969 24.2571C50.2505 24.233 49.806 24.3308 49.4109 24.5401C49.2691 24.6168 49.151 24.7309 49.0696 24.87C48.9881 25.0091 48.9464 25.1679 48.9489 25.3291C48.9489 25.5671 49.1243 25.7721 49.4749 25.9441C50.0675 26.1861 50.6825 26.369 51.3109 26.4901C52.55 26.6841 53.7391 27.1189 54.8109 27.7701C55.1201 28.0385 55.3614 28.3762 55.5154 28.7555C55.6693 29.1348 55.7315 29.5452 55.6969 29.9531C55.7082 30.4516 55.597 30.9453 55.373 31.3908C55.1489 31.8363 54.8189 32.22 54.412 32.5081C53.4188 33.194 52.2275 33.5342 51.0219 33.4761C49.6758 33.5592 48.3367 33.2265 47.1859 32.5231C46.7426 32.2078 46.3812 31.7911 46.1317 31.3076C45.8823 30.8242 45.7521 30.2881 45.752 29.7441H48.6519C48.6557 29.9782 48.7181 30.2075 48.8334 30.4112C48.9487 30.6149 49.1132 30.7864 49.312 30.9101C49.8285 31.2166 50.4241 31.3635 51.024 31.3321C51.4872 31.3567 51.9486 31.2555 52.3589 31.0391C52.5068 30.9601 52.63 30.8419 52.7151 30.6974C52.8001 30.5529 52.8436 30.3877 52.8409 30.2201C52.8292 30.0828 52.7794 29.9516 52.6971 29.8412C52.6147 29.7307 52.5031 29.6455 52.3749 29.5951C51.8512 29.3614 51.3013 29.1915 50.7369 29.0891C49.4476 28.8811 48.2068 28.4406 47.075 27.7891C46.7606 27.5431 46.512 27.2232 46.3511 26.8579C46.1902 26.4925 46.1222 26.0931 46.153 25.6951C46.1381 25.1991 46.2388 24.7065 46.447 24.2561C46.6553 23.8058 46.9654 23.41 47.3529 23.1001C48.2527 22.4081 49.3691 22.0583 50.5029 22.1131C51.7593 22.0529 53.0025 22.3914 54.0549 23.0801C54.4769 23.3579 54.8219 23.7377 55.0579 24.1844C55.2939 24.631 55.4132 25.13 55.4049 25.6351L52.584 25.6341Z" fill="#B9B9B9"/>
<path d="M57.8549 18.4981H60.7549V21.1381H57.8549V18.4981ZM57.8849 22.3981H60.7329V33.1981H57.8849V22.3981Z" fill="#B9B9B9"/>
<path d="M63.402 22.3991H66.1109V24.1361C66.3656 23.5044 66.8128 22.9689 67.389 22.6056C67.9652 22.2423 68.6411 22.0696 69.321 22.1121C69.7566 22.0979 70.1903 22.1764 70.5934 22.3424C70.9964 22.5085 71.3596 22.7582 71.6589 23.0751C71.8919 23.3125 72.083 23.5878 72.2239 23.8891L72.5719 23.3231C72.8666 22.9233 73.2562 22.6032 73.7056 22.3918C74.155 22.1803 74.6501 22.0842 75.1459 22.1121C75.6522 22.0835 76.1588 22.1614 76.633 22.3409C77.1073 22.5204 77.5385 22.7975 77.8989 23.1541C78.598 23.9481 78.9552 24.9861 78.893 26.0421V33.1971H76.045V26.8561C76.089 26.2329 75.9499 25.6104 75.6449 25.0651C75.5064 24.8705 75.3201 24.7149 75.104 24.6131C74.8879 24.5113 74.6492 24.4669 74.411 24.4841C74.1562 24.4673 73.9009 24.5082 73.6641 24.6035C73.4272 24.6989 73.215 24.8464 73.0429 25.0351C72.7 25.4887 72.5321 26.0507 72.57 26.6181V33.1971H69.7219V26.3881C69.7635 25.8737 69.6155 25.362 69.3059 24.9491C68.9415 24.6334 68.4714 24.4667 67.9895 24.4822C67.5076 24.4978 67.0492 24.6945 66.7059 25.0331C66.3712 25.4903 66.2084 26.0508 66.2459 26.6161V33.1951H63.402V22.3991Z" fill="#B9B9B9"/>
<path d="M81.433 22.3991H84.1419V23.9991L84.3309 23.7311C84.6593 23.2269 85.11 22.8141 85.6411 22.5313C86.1722 22.2486 86.7663 22.105 87.368 22.1141C87.9982 22.0931 88.6246 22.2194 89.1974 22.4829C89.7703 22.7464 90.2738 23.1399 90.6679 23.6321C91.5416 24.7769 91.9825 26.1937 91.9129 27.6321C91.9863 29.1443 91.5477 30.637 90.6679 31.8691C90.288 32.383 89.7896 32.7976 89.215 33.0775C88.6405 33.3575 88.0068 33.4946 87.368 33.4771C86.7789 33.4905 86.1954 33.3602 85.6679 33.0975C85.1405 32.8347 84.685 32.4474 84.3409 31.9691L84.2809 31.8901V37.4271H81.433V22.3991ZM86.554 31.1321C86.8993 31.1464 87.2429 31.0756 87.5545 30.926C87.8661 30.7764 88.1361 30.5525 88.3409 30.2741C88.8092 29.5695 89.0355 28.7317 88.9859 27.8871C89.0357 27.0278 88.8116 26.1749 88.3459 25.4511C88.1366 25.176 87.866 24.9534 87.5557 24.801C87.2454 24.6486 86.9039 24.5705 86.5582 24.5729C86.2125 24.5753 85.8721 24.6582 85.564 24.815C85.2558 24.9717 84.9885 25.1981 84.783 25.4761C84.3154 26.2269 84.0918 27.1041 84.1429 27.9871C84.0948 28.8073 84.3199 29.6204 84.783 30.2991C84.9889 30.5707 85.2575 30.7884 85.566 30.9335C85.8744 31.0785 86.2134 31.1467 86.554 31.1321Z" fill="#B9B9B9"/>
<path d="M93.987 18.6081H96.8349V33.1951H93.987V18.6081Z" fill="#B9B9B9"/>
<path d="M103.831 33.4741C103.125 33.5177 102.418 33.4042 101.761 33.1417C101.103 32.8792 100.513 32.4743 100.031 31.9561C99.0692 30.7269 98.594 29.1865 98.6959 27.6291C98.6086 26.153 99.0956 24.7003 100.055 23.5751C100.543 23.0763 101.132 22.6876 101.782 22.4351C102.432 22.1826 103.129 22.0722 103.826 22.1111C104.531 22.0671 105.237 22.1779 105.894 22.4358C106.552 22.6937 107.145 23.0925 107.632 23.6041C108.591 24.8056 109.067 26.322 108.967 27.8561C108.98 28.0723 108.964 28.2893 108.918 28.5011H101.568C101.579 29.179 101.775 29.841 102.134 30.4161C102.377 30.6978 102.684 30.917 103.03 31.0551C103.375 31.1933 103.749 31.2465 104.119 31.2101C104.547 31.2121 104.965 31.0841 105.319 30.8431C105.482 30.7473 105.625 30.6198 105.738 30.4682C105.851 30.3165 105.933 30.1438 105.979 29.9601H108.879C108.668 31.0078 108.058 31.9327 107.179 32.5401C106.188 33.1929 105.017 33.5195 103.831 33.4741ZM106.004 26.6861C105.974 26.1423 105.796 25.6172 105.488 25.1681C105.284 24.9187 105.023 24.7226 104.727 24.5965C104.431 24.4703 104.109 24.418 103.788 24.4441C103.459 24.4274 103.132 24.4963 102.838 24.6441C102.544 24.7918 102.294 25.0134 102.111 25.2871C101.846 25.7142 101.671 26.1904 101.595 26.6871L106.004 26.6861Z" fill="#B9B9B9"/>
<path d="M113.447 33.4741C112.562 33.5154 111.696 33.2072 111.036 32.6161C110.732 32.3262 110.493 31.9749 110.336 31.5855C110.179 31.1962 110.106 30.7777 110.123 30.3581C110.08 29.4921 110.376 28.6433 110.947 27.9911C111.593 27.352 112.442 26.9575 113.347 26.8751L115.223 26.6171C115.645 26.5698 116.057 26.4558 116.444 26.2791C116.592 26.2036 116.707 26.0766 116.767 25.9221C116.842 25.7575 116.871 25.5758 116.851 25.3961C116.833 25.249 116.782 25.108 116.701 24.9839C116.62 24.8599 116.512 24.7563 116.384 24.6811C115.955 24.4508 115.47 24.3442 114.984 24.3731C114.526 24.3463 114.074 24.4886 113.714 24.7731C113.558 24.9151 113.435 25.0884 113.351 25.2816C113.267 25.4748 113.225 25.6835 113.228 25.8941H110.499C110.489 25.3548 110.599 24.8201 110.823 24.329C111.046 23.8379 111.376 23.403 111.789 23.0561C112.826 22.3587 114.065 22.0269 115.312 22.1131C116.436 22.0512 117.55 22.3486 118.493 22.9621C118.865 23.2207 119.167 23.5683 119.371 23.9733C119.574 24.3784 119.674 24.828 119.659 25.2811V31.3201C119.64 31.6637 119.68 32.0081 119.778 32.3381C119.871 32.5477 120.042 32.7132 120.254 32.8001V33.2001H117.178V33.1901C117.056 32.7721 116.973 32.3435 116.93 31.9101L116.92 31.8901C116.5 32.4018 115.969 32.8107 115.367 33.0853C114.765 33.3598 114.108 33.4928 113.447 33.4741ZM116.871 27.9661C116.459 28.1797 116.017 28.3304 115.561 28.4131L114.509 28.6131C114.09 28.6696 113.697 28.8472 113.378 29.1241C113.251 29.2446 113.151 29.3903 113.085 29.5519C113.018 29.7135 112.986 29.8873 112.991 30.0621C112.97 30.4319 113.094 30.7952 113.338 31.0741C113.465 31.2002 113.618 31.2981 113.785 31.3613C113.953 31.4245 114.132 31.4517 114.311 31.4411C114.724 31.4576 115.136 31.3794 115.514 31.2125C115.892 31.0456 116.228 30.7944 116.494 30.4781C116.62 30.3125 116.711 30.1235 116.762 29.9221C116.833 29.6906 116.869 29.4501 116.871 29.2081V27.9661Z" fill="#B9B9B9"/>
<path d="M125.464 24.3931V33.1931H122.616V24.3931H121.038V22.3981H122.616V21.4981C122.582 21.0745 122.639 20.6485 122.782 20.2483C122.925 19.848 123.151 19.4826 123.445 19.1761C124.157 18.6133 125.056 18.3404 125.961 18.4121C126.409 18.4023 126.857 18.4254 127.301 18.4811V20.7541H126.401C126.267 20.7361 126.131 20.7471 126.002 20.7864C125.872 20.8258 125.753 20.8925 125.652 20.9821C125.498 21.2675 125.434 21.5927 125.468 21.9151V22.4011H127.304V24.3961L125.464 24.3931Z" fill="#B9B9B9"/>
<path d="M57.7969 41.9452H58.5409V48.0232H57.7969V41.9452Z" fill="#B9B9B9"/>
<path d="M60.9489 41.9452H61.7099V42.7892H60.9489V41.9452ZM60.9569 43.5992H61.7009V48.0232H60.9569V43.5992Z" fill="#B9B9B9"/>
<path d="M64.0839 43.5992H64.7909V44.2522L64.9559 44.0332C65.1416 43.7592 65.4127 43.5544 65.727 43.4506C66.0413 43.3468 66.3811 43.3498 66.6935 43.4593C67.0059 43.5687 67.2733 43.7784 67.454 44.0557C67.6348 44.333 67.7188 44.6622 67.6929 44.9922V48.0232H66.9489V45.2442C66.9754 44.9458 66.8957 44.6476 66.7239 44.4022C66.6282 44.3089 66.5133 44.2375 66.3872 44.193C66.2612 44.1484 66.127 44.1318 65.9939 44.1442C65.8296 44.1383 65.6663 44.1723 65.518 44.2432C65.3696 44.314 65.2406 44.4197 65.1419 44.5512C64.9177 44.8727 64.8072 45.2598 64.8279 45.6512V48.0202H64.0839V43.5992Z" fill="#B9B9B9"/>
<path d="M71.8659 48.1432C71.591 48.1568 71.3164 48.1102 71.0615 48.0065C70.8065 47.9029 70.5773 47.7447 70.3899 47.5432C70.0094 47.0821 69.8175 46.494 69.8529 45.8972C69.8186 45.2557 70.0207 44.6238 70.4209 44.1212C70.6095 43.9033 70.8449 43.7308 71.1094 43.6165C71.374 43.5022 71.6609 43.4491 71.9489 43.4612C72.2162 43.4533 72.4817 43.5073 72.7246 43.6192C72.9675 43.7312 73.1812 43.8978 73.3489 44.1062C73.7232 44.5914 73.9122 45.1942 73.8819 45.8062L73.8729 46.0712H70.6409C70.6445 46.429 70.7484 46.7786 70.9409 47.0802C71.0594 47.2259 71.2118 47.3405 71.3846 47.414C71.5575 47.4876 71.7457 47.5178 71.9329 47.5022C72.2007 47.5075 72.4626 47.423 72.6769 47.2622C72.8806 47.116 73.02 46.8967 73.0659 46.6502H73.8019C73.721 47.0872 73.4866 47.4809 73.1409 47.7602C72.7709 48.0274 72.3218 48.1623 71.8659 48.1432ZM73.1079 45.4722C73.108 45.1285 73.001 44.7933 72.8019 44.5132C72.6948 44.3845 72.5588 44.2829 72.405 44.2167C72.2512 44.1505 72.084 44.1215 71.9169 44.1322C71.7369 44.126 71.558 44.1625 71.3949 44.2386C71.2317 44.3147 71.0888 44.4283 70.9779 44.5702C70.7808 44.8311 70.6643 45.1439 70.6429 45.4702L73.1079 45.4722Z" fill="#B9B9B9"/>
<path d="M77.2089 48.1432C76.8341 48.1632 76.466 48.039 76.1799 47.7962C76.0523 47.6765 75.9523 47.5306 75.8867 47.3685C75.8211 47.2063 75.7915 47.0319 75.7999 46.8572C75.7912 46.6833 75.8184 46.5095 75.8798 46.3465C75.9412 46.1836 76.0355 46.0351 76.1569 45.9102C76.4472 45.6533 76.8142 45.4993 77.2009 45.4722L78.2139 45.3442C78.2935 45.3366 78.3724 45.3229 78.4499 45.3032C78.5399 45.2824 78.6192 45.2294 78.6729 45.1542C78.7276 45.071 78.7548 44.9727 78.7509 44.8732V44.8332C78.7551 44.7256 78.7328 44.6185 78.6859 44.5216C78.639 44.4246 78.5689 44.3407 78.4819 44.2772C78.2603 44.1316 77.9976 44.0615 77.7329 44.0772C77.476 44.062 77.2219 44.1374 77.0149 44.2902C76.832 44.453 76.72 44.6809 76.7029 44.9252H76.0169C76.0195 44.7168 76.0666 44.5114 76.1551 44.3227C76.2436 44.134 76.3713 43.9664 76.5299 43.8312C76.9141 43.5639 77.3777 43.4348 77.8449 43.4652C78.2823 43.4351 78.7166 43.5585 79.0729 43.8142C79.2167 43.9405 79.3296 44.0981 79.4028 44.275C79.476 44.4519 79.5075 44.6432 79.4949 44.8342V47.2652C79.4934 47.2982 79.4986 47.3312 79.5103 47.3622C79.522 47.3932 79.5399 47.4214 79.5629 47.4452C79.5873 47.4685 79.6162 47.4865 79.6479 47.4982C79.6795 47.5098 79.7132 47.515 79.7469 47.5132C79.7803 47.5125 79.8137 47.5098 79.8469 47.5052C79.8899 47.4992 79.9359 47.4912 79.9859 47.4802V48.0172C79.9122 48.0455 79.8362 48.0676 79.7589 48.0832C79.6932 48.0981 79.6262 48.1065 79.5589 48.1082C79.446 48.1186 79.3323 48.1033 79.2262 48.0632C79.1202 48.0232 79.0247 47.9596 78.9469 47.8772C78.853 47.7492 78.7919 47.6002 78.7689 47.4432C78.7114 47.5152 78.6478 47.5821 78.5789 47.6432C78.2029 47.9788 77.7127 48.1577 77.2089 48.1432ZM78.7509 45.7902C78.6057 45.8588 78.4509 45.905 78.2919 45.9272L77.6099 46.0272C77.3323 46.0496 77.0634 46.1351 76.8239 46.2772C76.7455 46.3292 76.6816 46.4002 76.6383 46.4837C76.5949 46.5671 76.5734 46.6602 76.5759 46.7542C76.5687 46.8583 76.5827 46.9627 76.6171 47.0612C76.6515 47.1597 76.7055 47.2502 76.7759 47.3272C76.8535 47.3973 76.9443 47.4511 77.0431 47.4855C77.1419 47.5198 77.2465 47.534 77.3509 47.5272C77.7082 47.5383 78.0585 47.4259 78.3429 47.2092C78.512 47.0823 78.64 46.9084 78.7109 46.7092C78.725 46.6535 78.7334 46.5966 78.7359 46.5392C78.7455 46.4502 78.7505 46.3607 78.7509 46.2712V45.7902Z" fill="#B9B9B9"/>
<path d="M82.1259 43.5992H82.8329V44.3552C82.8916 44.2431 82.9584 44.1355 83.0329 44.0332C83.1461 43.8609 83.3001 43.7192 83.4811 43.6204C83.6621 43.5217 83.8647 43.4691 84.0709 43.4672C84.1428 43.4676 84.2141 43.4801 84.2819 43.5042V44.2652H84.1289C83.9566 44.255 83.7842 44.282 83.6234 44.3445C83.4625 44.407 83.3171 44.5034 83.1969 44.6272C82.961 44.917 82.8435 45.2853 82.8679 45.6582V48.0272H82.1239L82.1259 43.5992Z" fill="#B9B9B9"/>
<path d="M87.7379 48.0192C87.5547 48.051 87.3696 48.0704 87.1839 48.0772C87.0604 48.09 86.9357 48.0776 86.8173 48.0406C86.6988 48.0036 86.5891 47.9429 86.4949 47.8622C86.34 47.6483 86.2688 47.385 86.2949 47.1222V44.2072H85.6829V43.5992H86.2949V42.3582H87.0389V43.5992H87.7389V44.2072H87.0389V47.1222C87.0374 47.1682 87.0474 47.214 87.068 47.2552C87.0886 47.2964 87.1191 47.3318 87.1569 47.3582C87.2502 47.4203 87.3609 47.4508 87.4729 47.4452H87.7379V48.0192Z" fill="#B9B9B9"/>
<path d="M95.8949 44.8812C95.8893 44.7699 95.8596 44.6612 95.8078 44.5626C95.756 44.464 95.6834 44.3779 95.5949 44.3102C95.3841 44.1663 95.1317 44.096 94.8769 44.1102C94.6313 44.0947 94.3864 44.1506 94.1719 44.2712C94.0939 44.3217 94.0305 44.3917 93.988 44.4744C93.9455 44.557 93.9255 44.6494 93.9299 44.7422C93.9259 44.8109 93.9394 44.8795 93.9691 44.9416C93.9988 45.0037 94.0438 45.0572 94.0999 45.0972C94.3097 45.2138 94.5375 45.295 94.7739 45.3372L95.5429 45.5192C95.8832 45.5798 96.2013 45.7296 96.4649 45.9532C96.56 46.0555 96.6333 46.1761 96.6804 46.3076C96.7274 46.4391 96.7474 46.5788 96.7389 46.7182C96.7468 46.9168 96.708 47.1146 96.6257 47.2955C96.5434 47.4765 96.4198 47.6356 96.2649 47.7602C95.8959 48.0333 95.4432 48.169 94.9849 48.1442C94.4918 48.1814 94.0006 48.051 93.5909 47.7742C93.4281 47.6276 93.2985 47.4479 93.2107 47.2472C93.1229 47.0464 93.079 46.8292 93.0819 46.6102H93.7979C93.803 46.7407 93.8352 46.8688 93.8926 46.9862C93.9499 47.1037 94.0311 47.2079 94.1309 47.2922C94.3859 47.4515 94.685 47.5254 94.9849 47.5032C95.2516 47.5212 95.5171 47.4547 95.7439 47.3132C95.8295 47.2494 95.8979 47.1654 95.9431 47.0688C95.9883 46.9721 96.0088 46.8657 96.0029 46.7592C96.007 46.6911 95.9936 46.6231 95.964 46.5617C95.9344 46.5003 95.8896 46.4474 95.8339 46.4082C95.6213 46.2912 95.3909 46.2102 95.1519 46.1682L94.3829 45.9862C94.0542 45.9299 93.7469 45.7854 93.4939 45.5682C93.4015 45.4687 93.3304 45.3514 93.2848 45.2235C93.2393 45.0955 93.2202 44.9597 93.2289 44.8242C93.2211 44.6359 93.2572 44.4484 93.3342 44.2764C93.4113 44.1044 93.5272 43.9527 93.6729 43.8332C94.0191 43.5733 94.4457 43.4438 94.8779 43.4672C95.3194 43.4436 95.7551 43.5767 96.1079 43.8432C96.2599 43.9701 96.3823 44.1288 96.4662 44.3082C96.5502 44.4875 96.5938 44.6831 96.5939 44.8812H95.8949Z" fill="#B9B9B9"/>
<path d="M100.487 48.0192C100.304 48.051 100.119 48.0704 99.9329 48.0772C99.8095 48.0901 99.6847 48.0777 99.5662 48.0407C99.4478 48.0037 99.3381 47.943 99.2439 47.8622C99.089 47.6483 99.0178 47.385 99.0439 47.1222V44.2072H98.4319V43.5992H99.0439V42.3582H99.7869V43.5992H100.487V44.2072H99.7869V47.1222C99.7854 47.1682 99.7954 47.214 99.816 47.2552C99.8366 47.2964 99.8672 47.3318 99.9049 47.3582C99.9982 47.4204 100.109 47.4509 100.221 47.4452H100.486L100.487 48.0192Z" fill="#B9B9B9"/>
<path d="M104.393 48.1682C104.242 48.6504 104.007 49.1025 103.701 49.5042C103.578 49.6161 103.434 49.7017 103.277 49.7557C103.121 49.8097 102.954 49.831 102.789 49.8182C102.667 49.8226 102.546 49.8074 102.429 49.7732V49.0832C102.566 49.1283 102.71 49.1506 102.855 49.1492C102.936 49.1499 103.017 49.1316 103.09 49.0957C103.164 49.0597 103.228 49.0072 103.277 48.9422C103.441 48.7043 103.571 48.4439 103.661 48.1692L103.673 48.0992L102.031 43.5992H102.88L104.061 47.2582L105.261 43.5992H106.076L104.393 48.1682Z" fill="#B9B9B9"/>
<path d="M108.007 41.9452H108.751V48.0232H108.007V41.9452Z" fill="#B9B9B9"/>
<path d="M112.945 48.1432C112.67 48.1568 112.396 48.1101 112.141 48.0064C111.886 47.9028 111.656 47.7447 111.469 47.5432C111.088 47.082 110.897 46.494 110.932 45.8972C110.898 45.2557 111.1 44.6238 111.5 44.1212C111.689 43.9033 111.924 43.7308 112.188 43.6165C112.453 43.5022 112.74 43.4491 113.028 43.4612C113.295 43.4532 113.561 43.5072 113.804 43.6192C114.047 43.7311 114.26 43.8978 114.428 44.1062C114.802 44.5913 114.991 45.1942 114.961 45.8062L114.952 46.0712H111.72C111.723 46.429 111.827 46.7786 112.02 47.0802C112.138 47.2259 112.291 47.3405 112.464 47.414C112.637 47.4876 112.825 47.5178 113.012 47.5022C113.28 47.5075 113.542 47.423 113.756 47.2622C113.959 47.1158 114.098 46.8966 114.144 46.6502H114.88C114.799 47.0873 114.564 47.4809 114.218 47.7602C113.848 48.027 113.4 48.1619 112.945 48.1432ZM114.187 45.4722C114.187 45.1285 114.08 44.7933 113.881 44.5132C113.774 44.3845 113.638 44.2829 113.484 44.2167C113.33 44.1505 113.163 44.1215 112.996 44.1322C112.816 44.126 112.637 44.1625 112.474 44.2386C112.311 44.3147 112.168 44.4283 112.057 44.5702C111.86 44.8311 111.743 45.144 111.722 45.4702L114.187 45.4722Z" fill="#B9B9B9"/>
</svg>
