<svg width="122" height="61" viewBox="0 0 122 61" fill="none" xmlns="http://www.w3.org/2000/svg">
<path d="M37.8633 18.5137C37.8638 18.5148 37.864 18.516 37.864 18.5172C37.864 18.5184 37.8638 18.5196 37.8633 18.5208C39.6226 23.6531 40.2604 29.1092 39.733 34.5141L39.6578 34.4442C33.9245 6.35775 9.43527 5.26554 8.41772 5.23113C30.2563 4.26343 37.6779 18.1634 37.8633 18.5137Z" fill="#EBEBEB"/>
<path d="M39.662 34.446C30.8529 10.8508 8.42188 5.23291 8.42188 5.23291C9.44042 5.26733 33.9296 6.35953 39.662 34.446Z" fill="#BBBBBB"/>
<path d="M41.3041 32.1897L41.3442 32.1289C59.9136 25.0139 57.9417 7.81912 57.8514 7.10549C57.8525 7.10294 57.8531 7.10017 57.8531 7.09738C57.8531 7.0946 57.8525 7.09184 57.8514 7.08929V7.0822L57.7512 7.01438C42.7307 9.97516 39.9427 20.6623 39.8745 20.9326C39.8745 20.9184 39.8745 20.9063 39.8745 20.8911C39.8996 20.6947 39.9256 20.5034 39.9537 20.3131C39.9738 20.1846 39.9948 20.055 40.0149 19.9285C40.0439 19.7736 40.072 19.6248 40.1031 19.4659L40.1602 19.1906C40.1813 19.0995 40.1993 19.0084 40.2204 18.9172C40.2414 18.8261 40.2635 18.732 40.2865 18.6409C40.3096 18.5498 40.3327 18.4577 40.3557 18.3686C40.3788 18.2795 40.4018 18.2026 40.4239 18.1176C40.4369 18.068 40.4499 18.0164 40.464 17.9708C40.49 17.8858 40.5141 17.8008 40.5392 17.7188C40.6063 17.5032 40.6735 17.2936 40.7467 17.0871C40.7758 17.0011 40.8048 16.9181 40.8359 16.8351C40.867 16.7521 40.8961 16.6691 40.9281 16.5871C40.9883 16.4231 41.0545 16.2601 41.1206 16.1002C41.1547 16.0213 41.1888 15.9423 41.2209 15.8603L41.275 15.7429L41.3271 15.6255C41.4073 15.4483 41.4875 15.2762 41.5717 15.1062L41.682 14.8835C41.7281 14.7924 41.7823 14.7023 41.8244 14.6112C41.9246 14.4341 42.0179 14.259 42.1171 14.0859C42.1672 13.9998 42.2174 13.9158 42.2685 13.8288C42.2946 13.7842 42.3226 13.7366 42.3507 13.6941L42.3667 13.6648C42.5462 13.3722 42.7357 13.0878 42.9271 12.8115C43.0154 12.6829 43.1056 12.5574 43.1978 12.4309C43.27 12.3357 43.3412 12.2385 43.4154 12.1444C43.4384 12.112 43.4655 12.0766 43.4905 12.0432C43.5808 11.9288 43.671 11.8144 43.7632 11.702C43.8535 11.5897 43.9467 11.4804 44.0399 11.37L44.062 11.3457C44.1622 11.2303 44.2625 11.119 44.3627 11.0077C44.4429 10.9186 44.5251 10.8295 44.6073 10.7425C44.641 10.7011 44.6772 10.6619 44.7156 10.625C44.7928 10.544 44.867 10.4651 44.9452 10.3861C44.9632 10.3659 44.9833 10.3467 45.0023 10.3295C45.1026 10.2282 45.2028 10.127 45.2961 10.0349C45.2961 10.0298 45.3061 10.0268 45.3081 10.0238C45.3913 9.94177 45.4775 9.86079 45.5637 9.77981C45.6169 9.7292 45.672 9.67858 45.7251 9.62999C45.8144 9.54395 45.9076 9.46198 46.0008 9.381C46.0941 9.30002 46.1943 9.20688 46.2936 9.12388C46.3928 9.04087 46.494 8.95383 46.5943 8.87184C46.6334 8.83944 46.6755 8.80603 46.7166 8.77061C46.7918 8.71088 46.867 8.64915 46.9432 8.58639C47.3442 8.27057 47.7452 7.96994 48.1522 7.6855L48.3788 7.53063C49.0274 7.08626 49.682 6.68238 50.3427 6.31595C50.4229 6.26939 50.5021 6.22585 50.5843 6.18131C50.854 6.03049 51.1256 5.88676 51.3953 5.7501L51.7121 5.58714C52.0342 5.42586 52.3547 5.27334 52.6735 5.1296C52.7738 5.08202 52.874 5.04053 52.9743 4.99599C53.0484 4.96057 53.1236 4.92918 53.1988 4.89477C53.2931 4.85124 53.3853 4.81278 53.4785 4.7733C53.6279 4.70852 53.7793 4.64879 53.9216 4.58907C54.0409 4.53947 54.1602 4.49392 54.2775 4.44533C54.3948 4.39675 54.5121 4.35322 54.6294 4.30767C54.7467 4.26212 54.86 4.22062 54.9732 4.17811C55.0865 4.1356 55.1998 4.09409 55.3131 4.05461L55.6469 3.93617C55.662 3.92909 55.681 3.92605 55.6961 3.91897C56.0129 3.81066 56.3146 3.71653 56.6093 3.61531C56.7096 3.5819 56.8098 3.55154 56.9101 3.52117C57.1246 3.45335 57.3342 3.39261 57.5367 3.33693L57.7773 3.26709C58.1442 3.16587 58.487 3.07578 58.7988 2.99683L58.9352 2.96544C59.0434 2.93811 59.1457 2.91483 59.2449 2.89155L59.4454 2.84398C59.6459 2.80011 59.8254 2.76165 59.9838 2.72858C60.0379 2.71745 60.084 2.70732 60.1362 2.69922C60.4259 2.64051 60.6294 2.60712 60.7377 2.58789C60.7667 2.71341 60.8239 2.96949 60.8981 3.343C60.9091 3.39767 60.9211 3.45536 60.9301 3.51306C61.0204 3.97767 61.1306 4.59514 61.2239 5.32901C61.2479 5.51223 61.272 5.70354 61.2961 5.90093C61.3071 6.00215 61.3181 6.10338 61.3301 6.2046C61.3512 6.40705 61.3723 6.61962 61.3933 6.83725C61.4735 7.70676 61.5306 8.67546 61.5437 9.71402C61.5437 9.84358 61.5437 9.97416 61.5437 10.1047C61.5437 10.371 61.5437 10.6372 61.5337 10.9084C61.5337 11.0441 61.5337 11.1797 61.5236 11.3184C61.5006 11.9561 61.4565 12.6131 61.3913 13.2811C61.3843 13.3824 61.3733 13.4836 61.3612 13.5777C61.3258 13.9151 61.2837 14.2559 61.2349 14.6001C61.2219 14.6952 61.2058 14.7873 61.1908 14.8825C61.1076 15.423 61.0063 15.9717 60.89 16.5183C60.8229 16.8169 60.7517 17.1124 60.6745 17.41C60.6013 17.6884 60.5231 17.9688 60.4409 18.2482C60.3587 18.5275 60.2685 18.8029 60.1733 19.0802C60.1472 19.1551 60.1221 19.231 60.0941 19.3039C59.4974 21.0168 58.6609 22.6346 57.6098 24.108C57.5096 24.2558 57.3963 24.4015 57.283 24.5483C57.1697 24.6951 57.0585 24.8388 56.9402 24.9815L56.7627 25.1931C56.6418 25.3362 56.5184 25.4772 56.3928 25.6162C56.3306 25.6861 56.2665 25.7559 56.2023 25.8187C56.1382 25.8814 56.088 25.9391 56.0299 26.0029L55.4875 26.5394C55.4264 26.5991 55.3632 26.6568 55.2991 26.7145C55.2349 26.7722 55.1718 26.8319 55.1086 26.8876C55.0454 26.9433 54.9813 27.003 54.9151 27.0587C54.7146 27.2307 54.5141 27.3988 54.3136 27.5648C54.1131 27.7308 53.8905 27.8917 53.671 28.0486C53.5868 28.1094 53.5066 28.1681 53.4224 28.2268C53.3562 28.2713 53.291 28.3169 53.2219 28.3614C53.1527 28.4059 53.0715 28.4626 52.9923 28.5142C52.9131 28.5659 52.8389 28.6155 52.7597 28.6641C52.6043 28.7653 52.4429 28.8665 52.2825 28.9576C52.2023 29.0042 52.1241 29.0528 52.0409 29.0963C48.7253 30.8984 45.0623 31.9537 41.3041 32.1897Z" fill="#BBBBBB"/>
<path d="M8.38872 5.23396L8.27143 5.35949C8.94813 25.9079 21.3872 32.8771 23.4033 33.8741L23.4694 33.8843C23.4824 33.8864 23.4952 33.8898 23.5075 33.8944H23.4484C23.5727 33.9541 23.6489 33.9885 23.6729 33.9956C23.6519 33.9956 23.6348 33.9855 23.6178 33.9814L23.31 33.8873C21.7662 33.8772 11.8073 34.3408 5.06442 47.0362L5.0995 47.1486C5.10335 47.1523 5.10825 47.1548 5.11354 47.1557C9.46897 48.9636 14.2618 49.4092 18.8709 48.4346C23.4801 47.46 27.6931 45.1101 30.9642 41.6896C18.5762 59.7438 0.311535 48.8086 -0.000244141 48.6204C0.0518862 48.5262 0.141106 48.3379 0.283462 48.0768C0.304515 48.0312 0.328581 47.9867 0.355649 47.9371C0.434847 47.7903 0.52507 47.6334 0.624318 47.4523C0.658404 47.3925 0.69349 47.3338 0.724567 47.2711C0.776698 47.181 0.824821 47.0899 0.886976 46.9917C0.911036 46.9502 0.935097 46.9117 0.956149 46.8702C1.12557 46.5908 1.30803 46.2882 1.51555 45.9592C1.55665 45.8894 1.60577 45.8195 1.64988 45.7466C1.76417 45.5685 1.88146 45.3843 2.00878 45.199L2.18823 44.9338C2.36767 44.6797 2.54712 44.4186 2.74462 44.1422C2.75578 44.129 2.76616 44.1152 2.77569 44.1007L2.98622 43.8143C3.0584 43.7131 3.13158 43.623 3.20376 43.5217C3.27595 43.4205 3.35213 43.3264 3.42833 43.2282C3.50452 43.13 3.58371 43.0257 3.66291 42.9245C3.74211 42.8233 3.8183 42.7221 3.90151 42.6208C4.00176 42.4994 4.10201 42.3739 4.20226 42.2473C4.26743 42.1674 4.33359 42.0904 4.40276 42.0135C4.45489 41.9508 4.50302 41.885 4.56216 41.8252C4.63134 41.7412 4.70051 41.6613 4.7757 41.5772C5.0036 41.3127 5.24186 41.0478 5.49048 40.7826C5.57369 40.6986 5.6569 40.6116 5.7391 40.5245C5.94662 40.3049 6.16417 40.0852 6.38472 39.8686C6.44988 39.8028 6.51605 39.74 6.58522 39.6773C7.12758 39.1509 7.70401 38.6347 8.31554 38.1397C8.38873 38.084 8.4579 38.0243 8.53008 37.9686C8.92006 37.6579 9.32406 37.3552 9.7391 37.0657C9.82231 37.01 9.90452 36.9574 9.98071 36.9017C10.0258 36.8734 10.0699 36.842 10.112 36.8147C10.2223 36.7408 10.3296 36.6709 10.4399 36.6021C10.5501 36.5333 10.6574 36.4624 10.7677 36.3997C10.8779 36.3369 10.9782 36.2671 11.0855 36.2073C11.1476 36.1689 11.2098 36.1304 11.2749 36.0919C11.3752 36.0322 11.4754 35.9765 11.5757 35.9178C11.5757 35.9178 11.5827 35.9178 11.5897 35.9107C11.707 35.845 11.8313 35.7781 11.9556 35.7154C11.978 35.7012 12.001 35.6884 12.0248 35.6769C12.1251 35.6212 12.2253 35.5757 12.3256 35.5231C12.3707 35.4988 12.4188 35.4745 12.4669 35.4532C12.5742 35.4006 12.6815 35.3449 12.7917 35.2963C12.9261 35.2336 13.0574 35.1708 13.1927 35.108C13.2037 35.1048 13.2142 35.1 13.2238 35.0939L13.6248 34.9269C13.7562 34.8712 13.8905 34.8155 14.0258 34.7629C14.0639 34.7487 14.105 34.7315 14.1431 34.7214C14.2574 34.6758 14.3677 34.6374 14.482 34.5959C14.6273 34.5432 14.7717 34.4946 14.9211 34.4461C15.2389 34.3448 15.5637 34.2436 15.8945 34.1565C15.9052 34.1559 15.9157 34.1535 15.9256 34.1495C15.9737 34.1353 16.0258 34.1211 16.077 34.111L16.3637 34.0371C16.5571 33.9916 16.7506 33.9501 16.9471 33.9116C17.0474 33.8944 17.1476 33.8731 17.2479 33.8519L17.4895 33.8134C17.6759 33.782 17.8624 33.7537 18.0519 33.7294C18.093 33.7223 18.1381 33.7193 18.1792 33.7152C18.2203 33.7112 18.2654 33.701 18.3065 33.698C18.3927 33.6909 18.4759 33.6808 18.5622 33.6697C18.7353 33.6521 18.908 33.6383 19.0805 33.6282C19.1667 33.6211 19.2529 33.614 19.3431 33.6109L19.6058 33.6008C19.8233 33.5907 20.0449 33.5867 20.2654 33.5867C20.3516 33.5867 20.4378 33.5867 20.5281 33.5867C20.5762 33.5867 20.6283 33.5867 20.6764 33.5937C20.7627 33.5937 20.8489 33.5937 20.9361 33.6008C21.0233 33.6079 21.1185 33.6079 21.2118 33.615C21.305 33.6221 21.4023 33.6251 21.4955 33.6322L21.7712 33.6535L22.0479 33.6818C22.2033 33.696 22.3587 33.7162 22.514 33.7304C22.6384 33.7517 22.7657 33.7689 22.894 33.7861C22.9561 33.7962 23.0183 33.8033 23.0845 33.8175L22.8218 33.7334C22.6494 33.6778 22.4729 33.618 22.3005 33.5593C22.09 33.4854 21.8825 33.4095 21.6759 33.3326L21.3 33.1858L20.9341 33.039L20.5612 32.8822C20.4409 32.8265 20.3165 32.7738 20.1952 32.7222C20.0739 32.6706 19.9747 32.621 19.8604 32.5694C19.7952 32.538 19.7291 32.5066 19.6669 32.4752L19.3281 32.3112C19.0444 32.1685 18.7657 32.0218 18.492 31.8719C18.3817 31.8122 18.2714 31.7495 18.1612 31.6908C18.0509 31.632 17.9436 31.5652 17.8363 31.5025C17.6228 31.377 17.4083 31.2474 17.1978 31.1158C17.0975 31.0483 16.9939 30.9808 16.887 30.9133C16.8389 30.8789 16.7867 30.8435 16.7356 30.8121C16.6845 30.7807 16.6353 30.7423 16.5842 30.7109C16.3556 30.5581 16.1351 30.4012 15.9145 30.2432C15.8143 30.1734 15.7211 30.1036 15.6278 30.0337C15.5105 29.9497 15.3932 29.8596 15.279 29.7685C15.0514 29.5944 14.8308 29.4162 14.6123 29.2351C14.502 29.145 14.3947 29.0539 14.2875 28.9597C14.2283 28.9142 14.1702 28.8585 14.1181 28.813C14.1047 28.8034 14.0919 28.7929 14.08 28.7816C13.714 28.4607 13.3551 28.1257 13.0133 27.7876C12.8549 27.6347 12.6995 27.4768 12.5431 27.3169C12.4258 27.1914 12.3085 27.0699 12.1912 26.9434C12.1501 26.9019 12.108 26.8563 12.0699 26.8108C11.9286 26.6579 11.7902 26.5071 11.6559 26.3472C11.5175 26.1906 11.3839 26.0337 11.2549 25.8765C11.2444 25.8645 11.235 25.8517 11.2268 25.838C11.0855 25.674 10.9501 25.507 10.8188 25.34C10.7115 25.2033 10.6083 25.0677 10.505 24.9351C10.4558 24.8771 10.4097 24.8167 10.3667 24.7539C10.2664 24.6284 10.1732 24.5029 10.084 24.3743C10.0599 24.3399 10.0389 24.3085 10.0148 24.2731C9.8975 24.1121 9.78322 23.9522 9.67294 23.7882C9.66706 23.782 9.66231 23.7748 9.65891 23.767C9.55865 23.6303 9.46943 23.4916 9.37519 23.3489C9.31604 23.2619 9.2579 23.1748 9.20276 23.0837C9.10251 22.9369 9.00928 22.7871 8.91604 22.6343C8.82281 22.4814 8.71554 22.3205 8.62231 22.1606C8.52908 22.0006 8.43284 21.8427 8.33961 21.6828C8.30452 21.617 8.26642 21.5502 8.22833 21.4803L8.01981 21.123C7.66793 20.4853 7.3401 19.8395 7.03534 19.1947C6.97653 19.0759 6.92139 18.9575 6.86993 18.8394C6.39374 17.811 5.9787 16.7826 5.60878 15.7602C5.56367 15.6347 5.51855 15.5122 5.47444 15.3867C5.32607 14.9646 5.18772 14.5465 5.0564 14.1315C5.00427 13.9675 4.95614 13.8035 4.90502 13.6396C4.74963 13.1446 4.61129 12.6526 4.47996 12.1678C4.43886 12.0149 4.40076 11.8641 4.35965 11.7082C4.33158 11.5959 4.30051 11.4845 4.27344 11.3701C4.23936 11.2274 4.20126 11.0837 4.17319 10.945C4.11805 10.7152 4.06592 10.4915 4.0178 10.2719C3.97269 10.0876 3.93459 9.90948 3.8975 9.72829C3.86041 9.5471 3.82131 9.37603 3.78722 9.19788C3.75314 9.01972 3.71505 8.84865 3.68698 8.6786C3.65891 8.50854 3.62181 8.33647 3.58673 8.16641C3.55164 7.99636 3.52457 7.82832 3.4965 7.66029C3.48948 7.63904 3.48948 7.6117 3.48246 7.58741C3.40326 7.11672 3.33109 6.66021 3.26893 6.21685C3.24788 6.064 3.22782 5.91318 3.20677 5.76033C3.16166 5.44249 3.12357 5.1287 3.08948 4.82908C3.07545 4.70761 3.06141 4.58513 3.04838 4.46974C2.98923 3.92212 2.94111 3.41296 2.90302 2.95139C2.90302 2.88559 2.89299 2.81877 2.88898 2.74893C2.87495 2.58899 2.86492 2.43513 2.85489 2.28836C2.85489 2.18713 2.84487 2.08592 2.83785 1.9847C2.82081 1.6952 2.80677 1.43 2.79675 1.19313C2.79675 1.11317 2.78973 1.04029 2.78973 0.970441C2.77569 0.545302 2.77269 0.244659 2.76868 0.0877629C2.94813 0.0735916 3.32106 0.0493076 3.86041 0.0280507C3.9396 0.0280507 4.02282 0.0209612 4.10201 0.0209612C4.7757 -0.00333242 5.66292 -0.0104181 6.70853 0.0209612C6.97119 0.0209612 7.24387 0.0351346 7.52758 0.0452569L7.95564 0.0665099C8.24537 0.0806812 8.54913 0.0978912 8.8579 0.119148C10.094 0.203164 11.4644 0.338793 12.916 0.558448C13.0992 0.582742 13.2823 0.610755 13.4654 0.642472C13.8353 0.702194 14.2073 0.767982 14.5842 0.837826C14.7737 0.873254 14.9642 0.90768 15.1536 0.946145C16.0409 1.12734 16.9531 1.33585 17.8714 1.58082C18.0098 1.61523 18.1441 1.65066 18.2795 1.69216C18.7426 1.81768 19.2118 1.95736 19.683 2.10414C19.8103 2.14564 19.9386 2.18815 20.0659 2.23269C20.8048 2.46955 21.5436 2.73882 22.2825 3.03439C22.6835 3.19837 23.0845 3.36944 23.4855 3.54051C23.8584 3.70753 24.2343 3.88162 24.6043 4.06281C24.9742 4.244 25.3401 4.43633 25.707 4.63473C25.8073 4.68736 25.9075 4.74304 26.0078 4.79871C28.2687 6.03581 30.3414 7.59512 32.1622 9.42866C32.3446 9.6139 32.5241 9.80219 32.7045 9.9935C32.885 10.1848 33.0564 10.3842 33.2298 10.5826C33.316 10.6838 33.4023 10.7851 33.4885 10.8863C33.6579 11.0887 33.8273 11.3013 33.9897 11.5108C34.0729 11.6121 34.1551 11.7234 34.2384 11.8317C34.3216 11.94 34.3807 12.02 34.4559 12.1172C34.6694 12.4107 34.8769 12.7063 35.0845 13.01C35.1536 13.1112 35.2188 13.2124 35.285 13.3197C35.3511 13.427 35.4203 13.5221 35.4855 13.6335C35.5506 13.7448 35.6198 13.843 35.686 13.9473C35.8795 14.2682 36.0689 14.5921 36.2524 14.9271C36.4358 15.2622 36.6153 15.6043 36.7837 15.9525C36.8489 16.0851 36.911 16.2147 36.9772 16.3463C37.0223 16.4475 37.0704 16.5558 37.1186 16.6601C37.1667 16.7643 37.2258 16.901 37.281 17.0224C37.3361 17.1439 37.3812 17.2634 37.4363 17.3889C37.5366 17.6328 37.6368 17.8839 37.7371 18.1349C37.7822 18.2604 37.8303 18.3859 37.8754 18.5114C37.693 18.1592 30.2674 4.26424 8.43585 5.23396C8.42655 5.2324 8.41707 5.2324 8.40778 5.23396H8.38872Z" fill="#BBBBBB"/>
<path d="M32.6183 42.052C32.6183 42.052 32.6184 42.06 32.6104 42.065L32.6183 42.052Z" fill="#BBBBBB"/>
<path d="M44.7177 30.0489V44.2419H44.6607L34.5717 34.0009L34.6097 43.7859H32.7477V29.6309H32.8427L42.9127 39.9859L42.8747 30.0489H44.7177ZM55.8687 40.1759H50.5867L49.1237 43.7859H47.2997L53.3037 29.4789H53.4177L59.4217 43.7859H57.2937L55.8687 40.1759ZM55.2417 38.5799L53.2847 33.5639L51.2517 38.5799H55.2417ZM69.0267 30.0489V31.8159H65.3407V43.7859H63.4977V31.8159H59.9067V30.0489H69.0267ZM73.6443 38.9219C73.6443 39.5299 73.79 40.0809 74.0813 40.5749C74.3727 41.0562 74.7653 41.4426 75.2593 41.7339C75.766 42.0126 76.3233 42.1519 76.9313 42.1519C77.5647 42.1519 78.1347 42.0126 78.6413 41.7339C79.1607 41.4552 79.566 41.0689 79.8573 40.5749C80.1487 40.0809 80.2943 39.5299 80.2943 38.9219V30.0489H82.0993V38.9789C82.0993 39.9542 81.8713 40.8219 81.4153 41.5819C80.9593 42.3292 80.3387 42.9119 79.5533 43.3299C78.768 43.7352 77.894 43.9379 76.9313 43.9379C75.9813 43.9379 75.1137 43.7352 74.3283 43.3299C73.543 42.9119 72.9223 42.3292 72.4663 41.5819C72.023 40.8219 71.8013 39.9542 71.8013 38.9789V30.0489H73.6443V38.9219ZM93.4504 43.7859L90.2204 38.7129C90.119 38.7256 89.967 38.7319 89.7644 38.7319H87.7314V43.7859H85.8884V30.0489H89.5554C90.4927 30.0489 91.3287 30.2136 92.0634 30.5429C92.798 30.8722 93.3744 31.3599 93.7924 32.0059C94.2104 32.6392 94.4194 33.4056 94.4194 34.3049C94.4194 35.1536 94.2294 35.9326 93.8494 36.6419C93.482 37.3512 92.912 37.8896 92.1394 38.2569L95.5974 43.7859H93.4504ZM89.7264 36.9459C90.7144 36.9459 91.4237 36.6862 91.8544 36.1669C92.2977 35.6476 92.5194 35.0522 92.5194 34.3809C92.5194 33.9756 92.4244 33.5766 92.2344 33.1839C92.057 32.7912 91.7657 32.4682 91.3604 32.2149C90.9677 31.9489 90.4674 31.8159 89.8594 31.8159H87.7314V36.9459H89.7264ZM105.632 40.1759H100.35L98.8873 43.7859H97.0633L103.067 29.4789H103.181L109.185 43.7859H107.057L105.632 40.1759ZM105.005 38.5799L103.048 33.5639L101.015 38.5799H105.005ZM113.597 30.0489V41.9999H120.589V43.7859H111.754V30.0489H113.597Z" fill="#BBBBBB"/>
<path d="M43.8217 54.7423V56.0233H44.6127V56.5413H43.8217V58.9143H43.1637V56.5413H42.6317V56.0233H43.1637V54.7423H43.8217ZM48.3811 56.0163V58.9143H47.7301V58.4383C47.6274 58.5736 47.4781 58.6996 47.2821 58.8163C47.0861 58.9283 46.8644 58.9843 46.6171 58.9843C46.3418 58.9843 46.0921 58.926 45.8681 58.8093C45.6488 58.688 45.4738 58.513 45.3431 58.2843C45.2171 58.0556 45.1541 57.7826 45.1541 57.4653C45.1541 57.148 45.2194 56.8726 45.3501 56.6393C45.4854 56.4013 45.6651 56.2193 45.8891 56.0933C46.1178 55.9626 46.3698 55.8973 46.6451 55.8973C46.8924 55.8973 47.1071 55.951 47.2891 56.0583C47.4711 56.1656 47.6181 56.3056 47.7301 56.4783L47.7791 56.0163H48.3811ZM46.7921 58.4453C47.0301 58.4453 47.2331 58.38 47.4011 58.2493C47.5738 58.114 47.6834 57.932 47.7301 57.7033V57.1293C47.6741 56.924 47.5574 56.7583 47.3801 56.6323C47.2028 56.5016 46.9998 56.4363 46.7711 56.4363C46.5984 56.4363 46.4374 56.4783 46.2881 56.5623C46.1434 56.6463 46.0268 56.7653 45.9381 56.9193C45.8541 57.0686 45.8121 57.239 45.8121 57.4303C45.8121 57.617 45.8564 57.7873 45.9451 57.9413C46.0338 58.0953 46.1528 58.219 46.3021 58.3123C46.4514 58.401 46.6148 58.4453 46.7921 58.4453ZM50.5435 57.5213L50.1655 57.8293V58.9143H49.5145V53.4893H50.1655V57.1503L51.6635 55.9463L52.0625 56.2963L50.9915 57.1573L52.2025 58.9143H51.4395L50.5435 57.5213ZM54.2563 58.4243C54.499 58.4243 54.7346 58.3403 54.9633 58.1723L55.2643 58.6553C55.1103 58.758 54.9423 58.8396 54.7603 58.9003C54.583 58.9563 54.4103 58.9843 54.2423 58.9843C53.9203 58.9843 53.638 58.919 53.3953 58.7883C53.1573 58.653 52.973 58.4686 52.8423 58.2353C52.7116 58.002 52.6463 57.7383 52.6463 57.4443C52.6463 57.1596 52.7163 56.9006 52.8563 56.6673C53.001 56.4293 53.197 56.2426 53.4443 56.1073C53.6916 55.9673 53.9623 55.8973 54.2563 55.8973C54.6343 55.8973 54.9493 56.0093 55.2013 56.2333C55.458 56.4526 55.633 56.7606 55.7263 57.1573L53.4303 57.9623C53.5143 58.107 53.6263 58.2213 53.7663 58.3053C53.911 58.3846 54.0743 58.4243 54.2563 58.4243ZM54.2073 56.4153C53.9413 56.4153 53.722 56.5086 53.5493 56.6953C53.3766 56.882 53.2903 57.12 53.2903 57.4093C53.2903 57.4793 53.2926 57.533 53.2973 57.5703L54.9843 56.9473C54.9143 56.7886 54.814 56.6603 54.6833 56.5623C54.5573 56.4643 54.3986 56.4153 54.2073 56.4153ZM61.1019 58.6413C60.9712 58.7486 60.8149 58.8326 60.6329 58.8933C60.4555 58.954 60.2735 58.9843 60.0869 58.9843C59.7742 58.9843 59.4965 58.9213 59.2539 58.7953C59.0159 58.6693 58.8292 58.492 58.6939 58.2633C58.5632 58.03 58.4979 57.7616 58.4979 57.4583C58.4979 57.1596 58.5679 56.896 58.7079 56.6673C58.8479 56.434 59.0345 56.2543 59.2679 56.1283C59.5012 56.0023 59.7532 55.9393 60.0239 55.9393C60.4672 55.9393 60.8335 56.0606 61.1229 56.3033L60.7939 56.7303C60.7005 56.6603 60.5932 56.602 60.4719 56.5553C60.3505 56.504 60.2199 56.4783 60.0799 56.4783C59.9072 56.4783 59.7485 56.5226 59.6039 56.6113C59.4639 56.6953 59.3519 56.812 59.2679 56.9613C59.1885 57.1106 59.1489 57.2763 59.1489 57.4583C59.1489 57.6403 59.1909 57.806 59.2749 57.9553C59.3635 58.1046 59.4825 58.2236 59.6319 58.3123C59.7812 58.401 59.9515 58.4453 60.1429 58.4453C60.3809 58.4453 60.5885 58.3753 60.7659 58.2353L61.1019 58.6413ZM64.9172 56.0163V58.9143H64.2662V58.4383C64.1636 58.5736 64.0142 58.6996 63.8182 58.8163C63.6222 58.9283 63.4006 58.9843 63.1532 58.9843C62.8779 58.9843 62.6282 58.926 62.4042 58.8093C62.1849 58.688 62.0099 58.513 61.8792 58.2843C61.7532 58.0556 61.6902 57.7826 61.6902 57.4653C61.6902 57.148 61.7556 56.8726 61.8862 56.6393C62.0216 56.4013 62.2012 56.2193 62.4252 56.0933C62.6539 55.9626 62.9059 55.8973 63.1812 55.8973C63.4286 55.8973 63.6432 55.951 63.8252 56.0583C64.0072 56.1656 64.1542 56.3056 64.2662 56.4783L64.3152 56.0163H64.9172ZM63.3282 58.4453C63.5662 58.4453 63.7692 58.38 63.9372 58.2493C64.1099 58.114 64.2196 57.932 64.2662 57.7033V57.1293C64.2102 56.924 64.0936 56.7583 63.9162 56.6323C63.7389 56.5016 63.5359 56.4363 63.3072 56.4363C63.1346 56.4363 62.9736 56.4783 62.8242 56.5623C62.6796 56.6463 62.5629 56.7653 62.4742 56.9193C62.3902 57.0686 62.3482 57.239 62.3482 57.4303C62.3482 57.617 62.3926 57.7873 62.4812 57.9413C62.5699 58.0953 62.6889 58.219 62.8382 58.3123C62.9876 58.401 63.1509 58.4453 63.3282 58.4453ZM66.6806 56.7023C66.7553 56.5436 66.8603 56.4036 66.9956 56.2823C67.1356 56.161 67.2826 56.0676 67.4366 56.0023C67.5906 55.937 67.726 55.902 67.8426 55.8973L67.8146 56.5483C67.6046 56.539 67.4133 56.581 67.2406 56.6743C67.0726 56.7676 66.9396 56.8983 66.8416 57.0663C66.7483 57.2296 66.7016 57.4046 66.7016 57.5913V58.9143H66.0506V56.0163H66.6316L66.6806 56.7023ZM69.9174 58.4243C70.1601 58.4243 70.3958 58.3403 70.6244 58.1723L70.9254 58.6553C70.7714 58.758 70.6034 58.8396 70.4214 58.9003C70.2441 58.9563 70.0714 58.9843 69.9034 58.9843C69.5814 58.9843 69.2991 58.919 69.0564 58.7883C68.8184 58.653 68.6341 58.4686 68.5034 58.2353C68.3728 58.002 68.3074 57.7383 68.3074 57.4443C68.3074 57.1596 68.3774 56.9006 68.5174 56.6673C68.6621 56.4293 68.8581 56.2426 69.1054 56.1073C69.3528 55.9673 69.6234 55.8973 69.9174 55.8973C70.2954 55.8973 70.6104 56.0093 70.8624 56.2333C71.1191 56.4526 71.2941 56.7606 71.3874 57.1573L69.0914 57.9623C69.1754 58.107 69.2874 58.2213 69.4274 58.3053C69.5721 58.3846 69.7354 58.4243 69.9174 58.4243ZM69.8684 56.4153C69.6024 56.4153 69.3831 56.5086 69.2104 56.6953C69.0378 56.882 68.9514 57.12 68.9514 57.4093C68.9514 57.4793 68.9538 57.533 68.9584 57.5703L70.6454 56.9473C70.5754 56.7886 70.4751 56.6603 70.3444 56.5623C70.2184 56.4643 70.0598 56.4153 69.8684 56.4153ZM74.159 57.4373C74.159 57.1526 74.2267 56.8936 74.362 56.6603C74.502 56.4223 74.6933 56.2356 74.936 56.1003C75.1833 55.965 75.461 55.8973 75.769 55.8973C76.077 55.8973 76.35 55.965 76.588 56.1003C76.8307 56.2356 77.0173 56.42 77.148 56.6533C77.2833 56.8866 77.351 57.148 77.351 57.4373C77.351 57.7266 77.2833 57.9903 77.148 58.2283C77.0173 58.4616 76.8307 58.646 76.588 58.7813C76.3453 58.9166 76.0677 58.9843 75.755 58.9843C75.4517 58.9843 75.1787 58.9213 74.936 58.7953C74.6933 58.6646 74.502 58.4826 74.362 58.2493C74.2267 58.016 74.159 57.7453 74.159 57.4373ZM74.817 57.4443C74.817 57.6263 74.8567 57.7943 74.936 57.9483C75.02 58.1023 75.132 58.2236 75.272 58.3123C75.4167 58.401 75.5753 58.4453 75.748 58.4453C76.0187 58.4453 76.2427 58.3496 76.42 58.1583C76.5973 57.967 76.686 57.729 76.686 57.4443C76.686 57.1596 76.5973 56.9216 76.42 56.7303C76.2427 56.5343 76.0187 56.4363 75.748 56.4363C75.5707 56.4363 75.412 56.483 75.272 56.5763C75.132 56.665 75.02 56.7863 74.936 56.9403C74.8567 57.0943 74.817 57.2623 74.817 57.4443ZM78.4634 56.5973H77.9664V56.0093H78.4634V54.7913C78.4634 54.3713 78.5591 54.0493 78.7504 53.8253C78.9418 53.6013 79.2218 53.4893 79.5904 53.4893C79.6931 53.4893 79.8028 53.5056 79.9194 53.5383C80.0361 53.5663 80.1388 53.6083 80.2274 53.6643L79.9474 54.1403C79.8774 54.0656 79.7794 54.0283 79.6534 54.0283C79.4761 54.0283 79.3408 54.089 79.2474 54.2103C79.1588 54.3316 79.1144 54.5276 79.1144 54.7983V56.0093H80.0384V56.5973H79.1144V58.9143H78.4634V56.5973ZM85.8575 56.0163L83.9885 60.3073H83.3445L84.0095 58.8163L82.6655 56.0163H83.4005L84.3385 58.0813L85.2555 56.0163H85.8575ZM86.2176 57.4373C86.2176 57.1526 86.2853 56.8936 86.4206 56.6603C86.5606 56.4223 86.7519 56.2356 86.9946 56.1003C87.2419 55.965 87.5196 55.8973 87.8276 55.8973C88.1356 55.8973 88.4086 55.965 88.6466 56.1003C88.8893 56.2356 89.0759 56.42 89.2066 56.6533C89.3419 56.8866 89.4096 57.148 89.4096 57.4373C89.4096 57.7266 89.3419 57.9903 89.2066 58.2283C89.0759 58.4616 88.8893 58.646 88.6466 58.7813C88.4039 58.9166 88.1263 58.9843 87.8136 58.9843C87.5103 58.9843 87.2373 58.9213 86.9946 58.7953C86.7519 58.6646 86.5606 58.4826 86.4206 58.2493C86.2853 58.016 86.2176 57.7453 86.2176 57.4373ZM86.8756 57.4443C86.8756 57.6263 86.9153 57.7943 86.9946 57.9483C87.0786 58.1023 87.1906 58.2236 87.3306 58.3123C87.4753 58.401 87.6339 58.4453 87.8066 58.4453C88.0773 58.4453 88.3013 58.3496 88.4786 58.1583C88.6559 57.967 88.7446 57.729 88.7446 57.4443C88.7446 57.1596 88.6559 56.9216 88.4786 56.7303C88.3013 56.5343 88.0773 56.4363 87.8066 56.4363C87.6293 56.4363 87.4706 56.483 87.3306 56.5763C87.1906 56.665 87.0786 56.7863 86.9946 56.9403C86.9153 57.0943 86.8756 57.2623 86.8756 57.4443ZM92.979 56.0163V58.9143H92.391L92.349 58.3613C92.251 58.5573 92.0994 58.7183 91.894 58.8443C91.6887 58.9656 91.46 59.0263 91.208 59.0263C90.942 59.0263 90.7227 58.947 90.55 58.7883C90.382 58.625 90.2934 58.415 90.284 58.1583V56.0163H90.935V57.9273C90.9444 58.0906 90.991 58.2213 91.075 58.3193C91.1637 58.4126 91.2944 58.4616 91.467 58.4663C91.6257 58.4663 91.7704 58.4196 91.901 58.3263C92.0317 58.2283 92.1344 58.0953 92.209 57.9273C92.2884 57.7593 92.328 57.5726 92.328 57.3673V56.0163H92.979ZM94.7422 56.7023C94.8168 56.5436 94.9218 56.4036 95.0572 56.2823C95.1972 56.161 95.3442 56.0676 95.4982 56.0023C95.6522 55.937 95.7875 55.902 95.9042 55.8973L95.8762 56.5483C95.6662 56.539 95.4748 56.581 95.3022 56.6743C95.1342 56.7676 95.0012 56.8983 94.9032 57.0663C94.8098 57.2296 94.7632 57.4046 94.7632 57.5913V58.9143H94.1122V56.0163H94.6932L94.7422 56.7023ZM97.563 58.9773C97.3483 58.9773 97.143 58.94 96.947 58.8653C96.7557 58.7906 96.5993 58.681 96.478 58.5363L96.758 58.1583C96.8747 58.2703 96.996 58.3566 97.122 58.4173C97.2527 58.478 97.381 58.5083 97.507 58.5083C97.661 58.5083 97.787 58.478 97.885 58.4173C97.983 58.3566 98.032 58.2633 98.032 58.1373C98.032 58.0393 98.0017 57.96 97.941 57.8993C97.8803 57.8386 97.8103 57.7943 97.731 57.7663C97.6563 57.7383 97.528 57.6963 97.346 57.6403C96.8513 57.4816 96.604 57.1993 96.604 56.7933C96.604 56.5506 96.6927 56.343 96.87 56.1703C97.052 55.9976 97.304 55.9113 97.626 55.9113C97.8313 55.9113 98.0133 55.937 98.172 55.9883C98.3307 56.0396 98.4777 56.1213 98.613 56.2333L98.354 56.6323C98.2793 56.553 98.1837 56.49 98.067 56.4433C97.955 56.3966 97.8477 56.371 97.745 56.3663C97.6143 56.3663 97.5023 56.399 97.409 56.4643C97.3157 56.525 97.269 56.609 97.269 56.7163C97.269 56.805 97.2993 56.8796 97.36 56.9403C97.4207 56.9963 97.4837 57.0383 97.549 57.0663C97.6143 57.0896 97.7427 57.1316 97.934 57.1923C98.172 57.2716 98.3563 57.3743 98.487 57.5003C98.6223 57.6263 98.69 57.7966 98.69 58.0113C98.69 58.2913 98.592 58.5223 98.396 58.7043C98.2 58.8863 97.9223 58.9773 97.563 58.9773ZM100.959 58.4243C101.202 58.4243 101.438 58.3403 101.666 58.1723L101.967 58.6553C101.813 58.758 101.645 58.8396 101.463 58.9003C101.286 58.9563 101.113 58.9843 100.945 58.9843C100.623 58.9843 100.341 58.919 100.098 58.7883C99.8604 58.653 99.6761 58.4686 99.5454 58.2353C99.4148 58.002 99.3494 57.7383 99.3494 57.4443C99.3494 57.1596 99.4194 56.9006 99.5594 56.6673C99.7041 56.4293 99.9001 56.2426 100.147 56.1073C100.395 55.9673 100.665 55.8973 100.959 55.8973C101.337 55.8973 101.652 56.0093 101.904 56.2333C102.161 56.4526 102.336 56.7606 102.429 57.1573L100.133 57.9623C100.217 58.107 100.329 58.2213 100.469 58.3053C100.614 58.3846 100.777 58.4243 100.959 58.4243ZM100.91 56.4153C100.644 56.4153 100.425 56.5086 100.252 56.6953C100.08 56.882 99.9934 57.12 99.9934 57.4093C99.9934 57.4793 99.9958 57.533 100 57.5703L101.687 56.9473C101.617 56.7886 101.517 56.6603 101.386 56.5623C101.26 56.4643 101.102 56.4153 100.91 56.4153ZM103.889 53.4893V58.9143H103.238V53.4893H103.889ZM105.26 56.5973H104.763V56.0093H105.26V54.7913C105.26 54.3713 105.356 54.0493 105.547 53.8253C105.739 53.6013 106.019 53.4893 106.387 53.4893C106.49 53.4893 106.6 53.5056 106.716 53.5383C106.833 53.5663 106.936 53.6083 107.024 53.6643L106.744 54.1403C106.674 54.0656 106.576 54.0283 106.45 54.0283C106.273 54.0283 106.138 54.089 106.044 54.2103C105.956 54.3316 105.911 54.5276 105.911 54.7983V56.0093H106.835V56.5973H105.911V58.9143H105.26V56.5973Z" fill="#BBBBBB"/>
</svg>
