<svg width="113" height="47" viewBox="0 0 113 47" fill="none" xmlns="http://www.w3.org/2000/svg">
<path d="M30.6804 11.403C30.0768 10.3865 29.3485 9.44955 28.5124 8.61395C27.2092 7.30353 25.659 6.26465 23.9516 5.55744C22.2442 4.85024 20.4134 4.48877 18.5654 4.49395C16.7171 4.48874 14.8862 4.8502 13.1786 5.55741C11.4711 6.26461 9.92071 7.3035 8.61736 8.61395C7.30717 9.91728 6.26843 11.4675 5.56124 13.1749C4.85405 14.8822 4.49246 16.7129 4.49737 18.5609C4.49229 20.409 4.8538 22.2397 5.561 23.9471C6.2682 25.6545 7.30704 27.2047 8.61736 28.5079C9.4531 29.3444 10.3904 30.0727 11.4074 30.6759C10.9424 28.0423 11.1198 25.3354 11.9244 22.785C12.7291 20.2346 14.1372 17.9159 16.0293 16.026C17.9195 14.1338 20.2383 12.7255 22.7889 11.9207C25.3394 11.1159 28.0465 10.9383 30.6804 11.403Z" fill="#E7E7E7"/>
<path d="M39.5703 39.571C41.7228 37.4186 43.4303 34.8632 44.5953 32.0508C45.7602 29.2384 46.3598 26.2241 46.3598 23.18C46.3598 20.1359 45.7602 17.1216 44.5953 14.3093C43.4303 11.4969 41.7228 8.9415 39.5703 6.78903C35.2232 2.44208 29.3274 0 23.1798 0C17.0322 0 11.1364 2.44208 6.78928 6.78903C9.91156 3.66681 14.1463 1.91277 18.5618 1.91277C22.9773 1.91277 27.212 3.66681 30.3343 6.78903C33.4565 9.91131 35.2105 14.146 35.2105 18.5615C35.2105 22.9771 33.4565 27.2117 30.3343 30.334C27.212 33.4562 22.9773 35.2103 18.5618 35.2103C14.1463 35.2103 9.91156 33.4562 6.78928 30.334C3.66706 27.2117 1.91302 22.9771 1.91302 18.5615C1.91302 14.146 3.66706 9.91131 6.78928 6.78903C4.63673 8.9415 2.92926 11.4969 1.76431 14.3093C0.599362 17.1216 -0.000244141 20.1359 -0.000244141 23.18C-0.000244141 26.2241 0.599362 29.2384 1.76431 32.0508C2.92926 34.8632 4.63673 37.4186 6.78928 39.571C11.1364 43.918 17.0322 46.3601 23.1798 46.3601C29.3274 46.3601 35.2232 43.918 39.5703 39.571Z" fill="#B9B9B9"/>
<path d="M62.4173 16.7131C63.8933 16.7131 65.1293 17.0791 66.1253 17.8111C67.1333 18.5431 67.8113 19.5391 68.1593 20.7991H66.4313C66.1313 20.0311 65.6273 19.4131 64.9193 18.9451C64.2233 18.4771 63.3953 18.2431 62.4353 18.2431C61.5713 18.2431 60.7973 18.4471 60.1133 18.8551C59.4293 19.2511 58.8893 19.8211 58.4933 20.5651C58.1093 21.3091 57.9173 22.1851 57.9173 23.1931C57.9173 24.2251 58.1153 25.1191 58.5113 25.8751C58.9073 26.6191 59.4533 27.1951 60.1493 27.6031C60.8573 27.9991 61.6673 28.1971 62.5793 28.1971C63.3593 28.1971 64.0733 28.0291 64.7213 27.6931C65.3693 27.3571 65.8973 26.8711 66.3053 26.2351C66.7253 25.5871 66.9773 24.8311 67.0613 23.9671H62.0753V22.7431H68.4473V24.2551C68.3393 25.2631 68.0273 26.1751 67.5113 26.9911C66.9953 27.8071 66.2993 28.4551 65.4233 28.9351C64.5473 29.4151 63.5513 29.6551 62.4353 29.6551C61.2113 29.6551 60.1313 29.3851 59.1953 28.8451C58.2593 28.2931 57.5273 27.5311 56.9993 26.5591C56.4833 25.5751 56.2253 24.4531 56.2253 23.1931C56.2253 21.9331 56.4833 20.8171 56.9993 19.8451C57.5273 18.8611 58.2593 18.0931 59.1953 17.5411C60.1313 16.9891 61.2053 16.7131 62.4173 16.7131ZM72.305 28.2511H76.805V29.5291H70.667V16.8391H72.305V28.2511ZM84.2857 16.6771C85.4617 16.6771 86.5177 16.9531 87.4537 17.5051C88.4017 18.0571 89.1457 18.8311 89.6857 19.8271C90.2257 20.8111 90.4957 21.9271 90.4957 23.1751C90.4957 24.4231 90.2257 25.5451 89.6857 26.5411C89.1457 27.5251 88.4017 28.2931 87.4537 28.8451C86.5177 29.3971 85.4617 29.6731 84.2857 29.6731C83.1097 29.6731 82.0417 29.3971 81.0817 28.8451C80.1337 28.2931 79.3897 27.5251 78.8497 26.5411C78.3097 25.5451 78.0397 24.4231 78.0397 23.1751C78.0397 21.9271 78.3097 20.8111 78.8497 19.8271C79.3897 18.8311 80.1337 18.0571 81.0817 17.5051C82.0417 16.9531 83.1097 16.6771 84.2857 16.6771ZM84.2857 18.2071C83.4097 18.2071 82.6237 18.4111 81.9277 18.8191C81.2437 19.2151 80.7037 19.7911 80.3077 20.5471C79.9237 21.2911 79.7317 22.1671 79.7317 23.1751C79.7317 24.1711 79.9237 25.0471 80.3077 25.8031C80.7037 26.5591 81.2437 27.1411 81.9277 27.5491C82.6237 27.9451 83.4097 28.1431 84.2857 28.1431C85.1497 28.1431 85.9237 27.9391 86.6077 27.5311C87.3037 27.1231 87.8437 26.5471 88.2277 25.8031C88.6237 25.0471 88.8217 24.1711 88.8217 23.1751C88.8217 22.1671 88.6237 21.2911 88.2277 20.5471C87.8437 19.7911 87.3037 19.2151 86.6077 18.8191C85.9237 18.4111 85.1497 18.2071 84.2857 18.2071ZM98.902 22.9591C99.682 23.1271 100.312 23.4991 100.792 24.0751C101.284 24.6511 101.53 25.3291 101.53 26.1091C101.53 27.1411 101.176 27.9691 100.468 28.5931C99.772 29.2171 98.758 29.5291 97.426 29.5291H92.71V16.8391H97.354C98.626 16.8391 99.592 17.1211 100.252 17.6851C100.912 18.2491 101.242 19.0231 101.242 20.0071C101.242 20.8231 101.02 21.4831 100.576 21.9871C100.144 22.4911 99.586 22.8151 98.902 22.9591ZM94.348 22.4011H97.084C97.888 22.4011 98.5 22.2151 98.92 21.8431C99.352 21.4711 99.568 20.9491 99.568 20.2771C99.568 19.6291 99.358 19.1191 98.938 18.7471C98.518 18.3751 97.876 18.1891 97.012 18.1891H94.348V22.4011ZM97.12 28.1611C97.984 28.1611 98.65 27.9631 99.118 27.5671C99.598 27.1711 99.838 26.6131 99.838 25.8931C99.838 25.1851 99.592 24.6331 99.1 24.2371C98.62 23.8291 97.948 23.6251 97.084 23.6251H94.348V28.1611H97.12ZM105.211 18.1711V22.5091H110.035V23.7691H105.211V28.1971H110.575V29.5291H103.573V16.8391H110.575V18.1711H105.211Z" fill="#B9B9B9"/>
<path d="M68.5413 38.335C68.5413 38.543 68.4913 38.737 68.3913 38.917C68.2913 39.093 68.1393 39.235 67.9353 39.343C67.7313 39.451 67.4813 39.505 67.1853 39.505C66.8973 39.505 66.6393 39.455 66.4113 39.355C66.1833 39.251 66.0013 39.107 65.8653 38.923C65.7293 38.739 65.6513 38.527 65.6313 38.287H66.3633C66.3833 38.471 66.4613 38.629 66.5973 38.761C66.7373 38.893 66.9233 38.959 67.1553 38.959C67.3633 38.959 67.5233 38.903 67.6353 38.791C67.7513 38.679 67.8093 38.535 67.8093 38.359C67.8093 38.207 67.7673 38.083 67.6833 37.987C67.5993 37.887 67.4953 37.809 67.3713 37.753C67.2473 37.697 67.0773 37.633 66.8613 37.561C66.5973 37.477 66.3813 37.393 66.2133 37.309C66.0493 37.225 65.9093 37.103 65.7933 36.943C65.6773 36.783 65.6193 36.573 65.6193 36.313C65.6193 36.085 65.6753 35.885 65.7873 35.713C65.8993 35.541 66.0593 35.409 66.2673 35.317C66.4753 35.221 66.7153 35.173 66.9873 35.173C67.4193 35.173 67.7613 35.277 68.0133 35.485C68.2693 35.693 68.4153 35.965 68.4513 36.301H67.7133C67.6853 36.141 67.6093 36.005 67.4853 35.893C67.3653 35.777 67.1993 35.719 66.9873 35.719C66.7953 35.719 66.6413 35.769 66.5253 35.869C66.4093 35.965 66.3513 36.105 66.3513 36.289C66.3513 36.433 66.3913 36.553 66.4713 36.649C66.5513 36.741 66.6513 36.815 66.7713 36.871C66.8953 36.923 67.0633 36.985 67.2753 37.057C67.5433 37.141 67.7613 37.227 67.9293 37.315C68.1013 37.399 68.2453 37.523 68.3613 37.687C68.4813 37.851 68.5413 38.067 68.5413 38.335ZM69.91 38.929H71.374V39.463H69.226V35.227H69.91V38.929ZM73.8716 35.173C74.2636 35.173 74.6176 35.265 74.9336 35.449C75.2536 35.633 75.5036 35.891 75.6836 36.223C75.8676 36.551 75.9596 36.923 75.9596 37.339C75.9596 37.755 75.8676 38.129 75.6836 38.461C75.5036 38.789 75.2536 39.047 74.9336 39.235C74.6176 39.419 74.2636 39.511 73.8716 39.511C73.4756 39.511 73.1176 39.419 72.7976 39.235C72.4816 39.047 72.2316 38.789 72.0476 38.461C71.8636 38.129 71.7716 37.755 71.7716 37.339C71.7716 36.923 71.8636 36.551 72.0476 36.223C72.2316 35.891 72.4816 35.633 72.7976 35.449C73.1176 35.265 73.4756 35.173 73.8716 35.173ZM73.8716 35.809C73.5996 35.809 73.3576 35.871 73.1456 35.995C72.9336 36.119 72.7676 36.297 72.6476 36.529C72.5316 36.761 72.4736 37.031 72.4736 37.339C72.4736 37.647 72.5316 37.917 72.6476 38.149C72.7676 38.381 72.9336 38.559 73.1456 38.683C73.3576 38.807 73.5996 38.869 73.8716 38.869C74.1396 38.869 74.3776 38.807 74.5856 38.683C74.7976 38.559 74.9616 38.381 75.0776 38.149C75.1976 37.917 75.2576 37.647 75.2576 37.339C75.2576 37.031 75.1976 36.761 75.0776 36.529C74.9616 36.297 74.7976 36.119 74.5856 35.995C74.3776 35.871 74.1396 35.809 73.8716 35.809ZM78.5878 35.191C79.0918 35.191 79.5118 35.315 79.8478 35.563C80.1838 35.811 80.4058 36.149 80.5138 36.577H79.7938C79.7018 36.349 79.5498 36.167 79.3378 36.031C79.1298 35.895 78.8818 35.827 78.5938 35.827C78.3298 35.827 78.0918 35.889 77.8798 36.013C77.6718 36.137 77.5078 36.313 77.3878 36.541C77.2718 36.769 77.2138 37.037 77.2138 37.345C77.2138 37.669 77.2738 37.947 77.3938 38.179C77.5138 38.411 77.6818 38.589 77.8978 38.713C78.1178 38.833 78.3718 38.893 78.6598 38.893C79.0118 38.893 79.3138 38.785 79.5658 38.569C79.8178 38.349 79.9698 38.049 80.0218 37.669H78.4678V37.165H80.5978V37.819C80.5498 38.131 80.4378 38.415 80.2618 38.671C80.0898 38.923 79.8598 39.125 79.5718 39.277C79.2878 39.429 78.9618 39.505 78.5938 39.505C78.1818 39.505 77.8178 39.413 77.5018 39.229C77.1858 39.045 76.9418 38.791 76.7698 38.467C76.5978 38.139 76.5118 37.765 76.5118 37.345C76.5118 36.925 76.5978 36.553 76.7698 36.229C76.9418 35.901 77.1838 35.647 77.4958 35.467C77.8118 35.283 78.1758 35.191 78.5878 35.191ZM83.8165 38.545H82.0285L81.7045 39.463H80.9725L82.5325 35.293H83.3185L84.8725 39.463H84.1405L83.8165 38.545ZM83.6245 38.017L82.9225 36.037L82.2205 38.017H83.6245ZM88.8063 39.463H88.1223L86.0643 36.337V39.463H85.3803V35.233H86.0643L88.1223 38.371V35.233H88.8063V39.463ZM94.4065 35.227V39.463H93.7165V37.561H91.7245V39.463H91.0405V35.227H91.7245V37.003H93.7165V35.227H94.4065ZM95.9198 35.779V37.063H97.4798V37.591H95.9198V38.905H97.6598V39.463H95.2358V35.227H97.6598V35.779H95.9198ZM100.55 39.463L99.4937 37.771H99.0077V39.463H98.3237V35.227H99.8177C100.302 35.227 100.668 35.345 100.916 35.581C101.168 35.817 101.294 36.129 101.294 36.517C101.294 36.849 101.2 37.121 101.012 37.333C100.828 37.545 100.56 37.681 100.208 37.741L101.318 39.463H100.55ZM99.0077 37.285H99.7637C100.316 37.285 100.592 37.041 100.592 36.553C100.592 36.321 100.524 36.141 100.388 36.013C100.256 35.881 100.048 35.815 99.7637 35.815H99.0077V37.285ZM102.594 35.779V37.063H104.154V37.591H102.594V38.905H104.334V39.463H101.91V35.227H104.334V35.779H102.594Z" fill="#B9B9B9"/>
</svg>
