<svg width="600" height="635" viewBox="0 0 600 635" fill="none" xmlns="http://www.w3.org/2000/svg">
<path d="M349.5 339C350.328 339 351 338.328 351 337.5C351 336.672 350.328 336 349.5 336C348.672 336 348 336.672 348 337.5C348 338.328 348.672 339 349.5 339Z" fill="#999999"/>
<path d="M373.5 339C374.328 339 375 338.328 375 337.5C375 336.672 374.328 336 373.5 336C372.672 336 372 336.672 372 337.5C372 338.328 372.672 339 373.5 339Z" fill="#999999"/>
<path d="M397.5 339C398.328 339 399 338.328 399 337.5C399 336.672 398.328 336 397.5 336C396.672 336 396 336.672 396 337.5C396 338.328 396.672 339 397.5 339Z" fill="#999999"/>
<path d="M421.5 339C422.328 339 423 338.328 423 337.5C423 336.672 422.328 336 421.5 336C420.672 336 420 336.672 420 337.5C420 338.328 420.672 339 421.5 339Z" fill="#999999"/>
<path d="M445.5 339C446.328 339 447 338.328 447 337.5C447 336.672 446.328 336 445.5 336C444.672 336 444 336.672 444 337.5C444 338.328 444.672 339 445.5 339Z" fill="#999999"/>
<path d="M469.5 339C470.328 339 471 338.328 471 337.5C471 336.672 470.328 336 469.5 336C468.672 336 468 336.672 468 337.5C468 338.328 468.672 339 469.5 339Z" fill="#999999"/>
<path d="M493.5 339C494.328 339 495 338.328 495 337.5C495 336.672 494.328 336 493.5 336C492.672 336 492 336.672 492 337.5C492 338.328 492.672 339 493.5 339Z" fill="#999999"/>
<path d="M517.5 339C518.328 339 519 338.328 519 337.5C519 336.672 518.328 336 517.5 336C516.672 336 516 336.672 516 337.5C516 338.328 516.672 339 517.5 339Z" fill="#999999"/>
<path d="M541.5 339C542.328 339 543 338.328 543 337.5C543 336.672 542.328 336 541.5 336C540.672 336 540 336.672 540 337.5C540 338.328 540.672 339 541.5 339Z" fill="#999999"/>
<path d="M325.5 339C326.328 339 327 338.328 327 337.5C327 336.672 326.328 336 325.5 336C324.672 336 324 336.672 324 337.5C324 338.328 324.672 339 325.5 339Z" fill="#999999"/>
<path d="M349.5 363C350.328 363 351 362.328 351 361.5C351 360.672 350.328 360 349.5 360C348.672 360 348 360.672 348 361.5C348 362.328 348.672 363 349.5 363Z" fill="#999999"/>
<path d="M373.5 363C374.328 363 375 362.328 375 361.5C375 360.672 374.328 360 373.5 360C372.672 360 372 360.672 372 361.5C372 362.328 372.672 363 373.5 363Z" fill="#999999"/>
<path d="M397.5 363C398.328 363 399 362.328 399 361.5C399 360.672 398.328 360 397.5 360C396.672 360 396 360.672 396 361.5C396 362.328 396.672 363 397.5 363Z" fill="#999999"/>
<path d="M421.5 363C422.328 363 423 362.328 423 361.5C423 360.672 422.328 360 421.5 360C420.672 360 420 360.672 420 361.5C420 362.328 420.672 363 421.5 363Z" fill="#999999"/>
<path d="M445.5 363C446.328 363 447 362.328 447 361.5C447 360.672 446.328 360 445.5 360C444.672 360 444 360.672 444 361.5C444 362.328 444.672 363 445.5 363Z" fill="#999999"/>
<path d="M469.5 363C470.328 363 471 362.328 471 361.5C471 360.672 470.328 360 469.5 360C468.672 360 468 360.672 468 361.5C468 362.328 468.672 363 469.5 363Z" fill="#999999"/>
<path d="M493.5 363C494.328 363 495 362.328 495 361.5C495 360.672 494.328 360 493.5 360C492.672 360 492 360.672 492 361.5C492 362.328 492.672 363 493.5 363Z" fill="#999999"/>
<path d="M517.5 363C518.328 363 519 362.328 519 361.5C519 360.672 518.328 360 517.5 360C516.672 360 516 360.672 516 361.5C516 362.328 516.672 363 517.5 363Z" fill="#999999"/>
<path d="M541.5 363C542.328 363 543 362.328 543 361.5C543 360.672 542.328 360 541.5 360C540.672 360 540 360.672 540 361.5C540 362.328 540.672 363 541.5 363Z" fill="#999999"/>
<path d="M325.5 363C326.328 363 327 362.328 327 361.5C327 360.672 326.328 360 325.5 360C324.672 360 324 360.672 324 361.5C324 362.328 324.672 363 325.5 363Z" fill="#999999"/>
<path d="M349.5 387C350.328 387 351 386.328 351 385.5C351 384.672 350.328 384 349.5 384C348.672 384 348 384.672 348 385.5C348 386.328 348.672 387 349.5 387Z" fill="#999999"/>
<path d="M373.5 387C374.328 387 375 386.328 375 385.5C375 384.672 374.328 384 373.5 384C372.672 384 372 384.672 372 385.5C372 386.328 372.672 387 373.5 387Z" fill="#999999"/>
<path d="M397.5 387C398.328 387 399 386.328 399 385.5C399 384.672 398.328 384 397.5 384C396.672 384 396 384.672 396 385.5C396 386.328 396.672 387 397.5 387Z" fill="#999999"/>
<path d="M421.5 387C422.328 387 423 386.328 423 385.5C423 384.672 422.328 384 421.5 384C420.672 384 420 384.672 420 385.5C420 386.328 420.672 387 421.5 387Z" fill="#999999"/>
<path d="M445.5 387C446.328 387 447 386.328 447 385.5C447 384.672 446.328 384 445.5 384C444.672 384 444 384.672 444 385.5C444 386.328 444.672 387 445.5 387Z" fill="#999999"/>
<path d="M469.5 387C470.328 387 471 386.328 471 385.5C471 384.672 470.328 384 469.5 384C468.672 384 468 384.672 468 385.5C468 386.328 468.672 387 469.5 387Z" fill="#999999"/>
<path d="M493.5 387C494.328 387 495 386.328 495 385.5C495 384.672 494.328 384 493.5 384C492.672 384 492 384.672 492 385.5C492 386.328 492.672 387 493.5 387Z" fill="#999999"/>
<path d="M517.5 387C518.328 387 519 386.328 519 385.5C519 384.672 518.328 384 517.5 384C516.672 384 516 384.672 516 385.5C516 386.328 516.672 387 517.5 387Z" fill="#999999"/>
<path d="M541.5 387C542.328 387 543 386.328 543 385.5C543 384.672 542.328 384 541.5 384C540.672 384 540 384.672 540 385.5C540 386.328 540.672 387 541.5 387Z" fill="#999999"/>
<path d="M325.5 387C326.328 387 327 386.328 327 385.5C327 384.672 326.328 384 325.5 384C324.672 384 324 384.672 324 385.5C324 386.328 324.672 387 325.5 387Z" fill="#999999"/>
<path d="M349.5 411C350.328 411 351 410.328 351 409.5C351 408.672 350.328 408 349.5 408C348.672 408 348 408.672 348 409.5C348 410.328 348.672 411 349.5 411Z" fill="#999999"/>
<path d="M373.5 411C374.328 411 375 410.328 375 409.5C375 408.672 374.328 408 373.5 408C372.672 408 372 408.672 372 409.5C372 410.328 372.672 411 373.5 411Z" fill="#999999"/>
<path d="M397.5 411C398.328 411 399 410.328 399 409.5C399 408.672 398.328 408 397.5 408C396.672 408 396 408.672 396 409.5C396 410.328 396.672 411 397.5 411Z" fill="#999999"/>
<path d="M421.5 411C422.328 411 423 410.328 423 409.5C423 408.672 422.328 408 421.5 408C420.672 408 420 408.672 420 409.5C420 410.328 420.672 411 421.5 411Z" fill="#999999"/>
<path d="M445.5 411C446.328 411 447 410.328 447 409.5C447 408.672 446.328 408 445.5 408C444.672 408 444 408.672 444 409.5C444 410.328 444.672 411 445.5 411Z" fill="#999999"/>
<path d="M469.5 411C470.328 411 471 410.328 471 409.5C471 408.672 470.328 408 469.5 408C468.672 408 468 408.672 468 409.5C468 410.328 468.672 411 469.5 411Z" fill="#999999"/>
<path d="M493.5 411C494.328 411 495 410.328 495 409.5C495 408.672 494.328 408 493.5 408C492.672 408 492 408.672 492 409.5C492 410.328 492.672 411 493.5 411Z" fill="#999999"/>
<path d="M517.5 411C518.328 411 519 410.328 519 409.5C519 408.672 518.328 408 517.5 408C516.672 408 516 408.672 516 409.5C516 410.328 516.672 411 517.5 411Z" fill="#999999"/>
<path d="M541.5 411C542.328 411 543 410.328 543 409.5C543 408.672 542.328 408 541.5 408C540.672 408 540 408.672 540 409.5C540 410.328 540.672 411 541.5 411Z" fill="#999999"/>
<path d="M325.5 411C326.328 411 327 410.328 327 409.5C327 408.672 326.328 408 325.5 408C324.672 408 324 408.672 324 409.5C324 410.328 324.672 411 325.5 411Z" fill="#999999"/>
<path d="M349.5 435C350.328 435 351 434.328 351 433.5C351 432.672 350.328 432 349.5 432C348.672 432 348 432.672 348 433.5C348 434.328 348.672 435 349.5 435Z" fill="#999999"/>
<path d="M373.5 435C374.328 435 375 434.328 375 433.5C375 432.672 374.328 432 373.5 432C372.672 432 372 432.672 372 433.5C372 434.328 372.672 435 373.5 435Z" fill="#999999"/>
<path d="M397.5 435C398.328 435 399 434.328 399 433.5C399 432.672 398.328 432 397.5 432C396.672 432 396 432.672 396 433.5C396 434.328 396.672 435 397.5 435Z" fill="#999999"/>
<path d="M421.5 435C422.328 435 423 434.328 423 433.5C423 432.672 422.328 432 421.5 432C420.672 432 420 432.672 420 433.5C420 434.328 420.672 435 421.5 435Z" fill="#999999"/>
<path d="M445.5 435C446.328 435 447 434.328 447 433.5C447 432.672 446.328 432 445.5 432C444.672 432 444 432.672 444 433.5C444 434.328 444.672 435 445.5 435Z" fill="#999999"/>
<path d="M469.5 435C470.328 435 471 434.328 471 433.5C471 432.672 470.328 432 469.5 432C468.672 432 468 432.672 468 433.5C468 434.328 468.672 435 469.5 435Z" fill="#999999"/>
<path d="M493.5 435C494.328 435 495 434.328 495 433.5C495 432.672 494.328 432 493.5 432C492.672 432 492 432.672 492 433.5C492 434.328 492.672 435 493.5 435Z" fill="#999999"/>
<path d="M517.5 435C518.328 435 519 434.328 519 433.5C519 432.672 518.328 432 517.5 432C516.672 432 516 432.672 516 433.5C516 434.328 516.672 435 517.5 435Z" fill="#999999"/>
<path d="M541.5 435C542.328 435 543 434.328 543 433.5C543 432.672 542.328 432 541.5 432C540.672 432 540 432.672 540 433.5C540 434.328 540.672 435 541.5 435Z" fill="#999999"/>
<path d="M325.5 435C326.328 435 327 434.328 327 433.5C327 432.672 326.328 432 325.5 432C324.672 432 324 432.672 324 433.5C324 434.328 324.672 435 325.5 435Z" fill="#999999"/>
<path d="M349.5 459C350.328 459 351 458.328 351 457.5C351 456.672 350.328 456 349.5 456C348.672 456 348 456.672 348 457.5C348 458.328 348.672 459 349.5 459Z" fill="#999999"/>
<path d="M373.5 459C374.328 459 375 458.328 375 457.5C375 456.672 374.328 456 373.5 456C372.672 456 372 456.672 372 457.5C372 458.328 372.672 459 373.5 459Z" fill="#999999"/>
<path d="M397.5 459C398.328 459 399 458.328 399 457.5C399 456.672 398.328 456 397.5 456C396.672 456 396 456.672 396 457.5C396 458.328 396.672 459 397.5 459Z" fill="#999999"/>
<path d="M421.5 459C422.328 459 423 458.328 423 457.5C423 456.672 422.328 456 421.5 456C420.672 456 420 456.672 420 457.5C420 458.328 420.672 459 421.5 459Z" fill="#999999"/>
<path d="M445.5 459C446.328 459 447 458.328 447 457.5C447 456.672 446.328 456 445.5 456C444.672 456 444 456.672 444 457.5C444 458.328 444.672 459 445.5 459Z" fill="#999999"/>
<path d="M469.5 459C470.328 459 471 458.328 471 457.5C471 456.672 470.328 456 469.5 456C468.672 456 468 456.672 468 457.5C468 458.328 468.672 459 469.5 459Z" fill="#999999"/>
<path d="M493.5 459C494.328 459 495 458.328 495 457.5C495 456.672 494.328 456 493.5 456C492.672 456 492 456.672 492 457.5C492 458.328 492.672 459 493.5 459Z" fill="#999999"/>
<path d="M517.5 459C518.328 459 519 458.328 519 457.5C519 456.672 518.328 456 517.5 456C516.672 456 516 456.672 516 457.5C516 458.328 516.672 459 517.5 459Z" fill="#999999"/>
<path d="M541.5 459C542.328 459 543 458.328 543 457.5C543 456.672 542.328 456 541.5 456C540.672 456 540 456.672 540 457.5C540 458.328 540.672 459 541.5 459Z" fill="#999999"/>
<path d="M325.5 459C326.328 459 327 458.328 327 457.5C327 456.672 326.328 456 325.5 456C324.672 456 324 456.672 324 457.5C324 458.328 324.672 459 325.5 459Z" fill="#999999"/>
<path d="M349.5 483C350.328 483 351 482.328 351 481.5C351 480.672 350.328 480 349.5 480C348.672 480 348 480.672 348 481.5C348 482.328 348.672 483 349.5 483Z" fill="#999999"/>
<path d="M373.5 483C374.328 483 375 482.328 375 481.5C375 480.672 374.328 480 373.5 480C372.672 480 372 480.672 372 481.5C372 482.328 372.672 483 373.5 483Z" fill="#999999"/>
<path d="M397.5 483C398.328 483 399 482.328 399 481.5C399 480.672 398.328 480 397.5 480C396.672 480 396 480.672 396 481.5C396 482.328 396.672 483 397.5 483Z" fill="#999999"/>
<path d="M421.5 483C422.328 483 423 482.328 423 481.5C423 480.672 422.328 480 421.5 480C420.672 480 420 480.672 420 481.5C420 482.328 420.672 483 421.5 483Z" fill="#999999"/>
<path d="M445.5 483C446.328 483 447 482.328 447 481.5C447 480.672 446.328 480 445.5 480C444.672 480 444 480.672 444 481.5C444 482.328 444.672 483 445.5 483Z" fill="#999999"/>
<path d="M469.5 483C470.328 483 471 482.328 471 481.5C471 480.672 470.328 480 469.5 480C468.672 480 468 480.672 468 481.5C468 482.328 468.672 483 469.5 483Z" fill="#999999"/>
<path d="M493.5 483C494.328 483 495 482.328 495 481.5C495 480.672 494.328 480 493.5 480C492.672 480 492 480.672 492 481.5C492 482.328 492.672 483 493.5 483Z" fill="#999999"/>
<path d="M517.5 483C518.328 483 519 482.328 519 481.5C519 480.672 518.328 480 517.5 480C516.672 480 516 480.672 516 481.5C516 482.328 516.672 483 517.5 483Z" fill="#999999"/>
<path d="M541.5 483C542.328 483 543 482.328 543 481.5C543 480.672 542.328 480 541.5 480C540.672 480 540 480.672 540 481.5C540 482.328 540.672 483 541.5 483Z" fill="#999999"/>
<path d="M325.5 483C326.328 483 327 482.328 327 481.5C327 480.672 326.328 480 325.5 480C324.672 480 324 480.672 324 481.5C324 482.328 324.672 483 325.5 483Z" fill="#999999"/>
<path d="M349.5 507C350.328 507 351 506.328 351 505.5C351 504.672 350.328 504 349.5 504C348.672 504 348 504.672 348 505.5C348 506.328 348.672 507 349.5 507Z" fill="#999999"/>
<path d="M373.5 507C374.328 507 375 506.328 375 505.5C375 504.672 374.328 504 373.5 504C372.672 504 372 504.672 372 505.5C372 506.328 372.672 507 373.5 507Z" fill="#999999"/>
<path d="M397.5 507C398.328 507 399 506.328 399 505.5C399 504.672 398.328 504 397.5 504C396.672 504 396 504.672 396 505.5C396 506.328 396.672 507 397.5 507Z" fill="#999999"/>
<path d="M421.5 507C422.328 507 423 506.328 423 505.5C423 504.672 422.328 504 421.5 504C420.672 504 420 504.672 420 505.5C420 506.328 420.672 507 421.5 507Z" fill="#999999"/>
<path d="M445.5 507C446.328 507 447 506.328 447 505.5C447 504.672 446.328 504 445.5 504C444.672 504 444 504.672 444 505.5C444 506.328 444.672 507 445.5 507Z" fill="#999999"/>
<path d="M469.5 507C470.328 507 471 506.328 471 505.5C471 504.672 470.328 504 469.5 504C468.672 504 468 504.672 468 505.5C468 506.328 468.672 507 469.5 507Z" fill="#999999"/>
<path d="M493.5 507C494.328 507 495 506.328 495 505.5C495 504.672 494.328 504 493.5 504C492.672 504 492 504.672 492 505.5C492 506.328 492.672 507 493.5 507Z" fill="#999999"/>
<path d="M517.5 507C518.328 507 519 506.328 519 505.5C519 504.672 518.328 504 517.5 504C516.672 504 516 504.672 516 505.5C516 506.328 516.672 507 517.5 507Z" fill="#999999"/>
<path d="M541.5 507C542.328 507 543 506.328 543 505.5C543 504.672 542.328 504 541.5 504C540.672 504 540 504.672 540 505.5C540 506.328 540.672 507 541.5 507Z" fill="#999999"/>
<path d="M325.5 507C326.328 507 327 506.328 327 505.5C327 504.672 326.328 504 325.5 504C324.672 504 324 504.672 324 505.5C324 506.328 324.672 507 325.5 507Z" fill="#999999"/>
<path d="M349.5 531C350.328 531 351 530.328 351 529.5C351 528.672 350.328 528 349.5 528C348.672 528 348 528.672 348 529.5C348 530.328 348.672 531 349.5 531Z" fill="#999999"/>
<path d="M373.5 531C374.328 531 375 530.328 375 529.5C375 528.672 374.328 528 373.5 528C372.672 528 372 528.672 372 529.5C372 530.328 372.672 531 373.5 531Z" fill="#999999"/>
<path d="M397.5 531C398.328 531 399 530.328 399 529.5C399 528.672 398.328 528 397.5 528C396.672 528 396 528.672 396 529.5C396 530.328 396.672 531 397.5 531Z" fill="#999999"/>
<path d="M421.5 531C422.328 531 423 530.328 423 529.5C423 528.672 422.328 528 421.5 528C420.672 528 420 528.672 420 529.5C420 530.328 420.672 531 421.5 531Z" fill="#999999"/>
<path d="M445.5 531C446.328 531 447 530.328 447 529.5C447 528.672 446.328 528 445.5 528C444.672 528 444 528.672 444 529.5C444 530.328 444.672 531 445.5 531Z" fill="#999999"/>
<path d="M469.5 531C470.328 531 471 530.328 471 529.5C471 528.672 470.328 528 469.5 528C468.672 528 468 528.672 468 529.5C468 530.328 468.672 531 469.5 531Z" fill="#999999"/>
<path d="M493.5 531C494.328 531 495 530.328 495 529.5C495 528.672 494.328 528 493.5 528C492.672 528 492 528.672 492 529.5C492 530.328 492.672 531 493.5 531Z" fill="#999999"/>
<path d="M517.5 531C518.328 531 519 530.328 519 529.5C519 528.672 518.328 528 517.5 528C516.672 528 516 528.672 516 529.5C516 530.328 516.672 531 517.5 531Z" fill="#999999"/>
<path d="M541.5 531C542.328 531 543 530.328 543 529.5C543 528.672 542.328 528 541.5 528C540.672 528 540 528.672 540 529.5C540 530.328 540.672 531 541.5 531Z" fill="#999999"/>
<path d="M325.5 531C326.328 531 327 530.328 327 529.5C327 528.672 326.328 528 325.5 528C324.672 528 324 528.672 324 529.5C324 530.328 324.672 531 325.5 531Z" fill="#999999"/>
<path d="M349.5 555C350.328 555 351 554.328 351 553.5C351 552.672 350.328 552 349.5 552C348.672 552 348 552.672 348 553.5C348 554.328 348.672 555 349.5 555Z" fill="#999999"/>
<path d="M373.5 555C374.328 555 375 554.328 375 553.5C375 552.672 374.328 552 373.5 552C372.672 552 372 552.672 372 553.5C372 554.328 372.672 555 373.5 555Z" fill="#999999"/>
<path d="M397.5 555C398.328 555 399 554.328 399 553.5C399 552.672 398.328 552 397.5 552C396.672 552 396 552.672 396 553.5C396 554.328 396.672 555 397.5 555Z" fill="#999999"/>
<path d="M421.5 555C422.328 555 423 554.328 423 553.5C423 552.672 422.328 552 421.5 552C420.672 552 420 552.672 420 553.5C420 554.328 420.672 555 421.5 555Z" fill="#999999"/>
<path d="M445.5 555C446.328 555 447 554.328 447 553.5C447 552.672 446.328 552 445.5 552C444.672 552 444 552.672 444 553.5C444 554.328 444.672 555 445.5 555Z" fill="#999999"/>
<path d="M469.5 555C470.328 555 471 554.328 471 553.5C471 552.672 470.328 552 469.5 552C468.672 552 468 552.672 468 553.5C468 554.328 468.672 555 469.5 555Z" fill="#999999"/>
<path d="M493.5 555C494.328 555 495 554.328 495 553.5C495 552.672 494.328 552 493.5 552C492.672 552 492 552.672 492 553.5C492 554.328 492.672 555 493.5 555Z" fill="#999999"/>
<path d="M517.5 555C518.328 555 519 554.328 519 553.5C519 552.672 518.328 552 517.5 552C516.672 552 516 552.672 516 553.5C516 554.328 516.672 555 517.5 555Z" fill="#999999"/>
<path d="M541.5 555C542.328 555 543 554.328 543 553.5C543 552.672 542.328 552 541.5 552C540.672 552 540 552.672 540 553.5C540 554.328 540.672 555 541.5 555Z" fill="#999999"/>
<path d="M325.5 555C326.328 555 327 554.328 327 553.5C327 552.672 326.328 552 325.5 552C324.672 552 324 552.672 324 553.5C324 554.328 324.672 555 325.5 555Z" fill="#999999"/>
<path d="M349.5 579C350.328 579 351 578.328 351 577.5C351 576.672 350.328 576 349.5 576C348.672 576 348 576.672 348 577.5C348 578.328 348.672 579 349.5 579Z" fill="#999999"/>
<path d="M373.5 579C374.328 579 375 578.328 375 577.5C375 576.672 374.328 576 373.5 576C372.672 576 372 576.672 372 577.5C372 578.328 372.672 579 373.5 579Z" fill="#999999"/>
<path d="M397.5 579C398.328 579 399 578.328 399 577.5C399 576.672 398.328 576 397.5 576C396.672 576 396 576.672 396 577.5C396 578.328 396.672 579 397.5 579Z" fill="#999999"/>
<path d="M421.5 579C422.328 579 423 578.328 423 577.5C423 576.672 422.328 576 421.5 576C420.672 576 420 576.672 420 577.5C420 578.328 420.672 579 421.5 579Z" fill="#999999"/>
<path d="M445.5 579C446.328 579 447 578.328 447 577.5C447 576.672 446.328 576 445.5 576C444.672 576 444 576.672 444 577.5C444 578.328 444.672 579 445.5 579Z" fill="#999999"/>
<path d="M469.5 579C470.328 579 471 578.328 471 577.5C471 576.672 470.328 576 469.5 576C468.672 576 468 576.672 468 577.5C468 578.328 468.672 579 469.5 579Z" fill="#999999"/>
<path d="M493.5 579C494.328 579 495 578.328 495 577.5C495 576.672 494.328 576 493.5 576C492.672 576 492 576.672 492 577.5C492 578.328 492.672 579 493.5 579Z" fill="#999999"/>
<path d="M517.5 579C518.328 579 519 578.328 519 577.5C519 576.672 518.328 576 517.5 576C516.672 576 516 576.672 516 577.5C516 578.328 516.672 579 517.5 579Z" fill="#999999"/>
<path d="M541.5 579C542.328 579 543 578.328 543 577.5C543 576.672 542.328 576 541.5 576C540.672 576 540 576.672 540 577.5C540 578.328 540.672 579 541.5 579Z" fill="#999999"/>
<path d="M325.5 579C326.328 579 327 578.328 327 577.5C327 576.672 326.328 576 325.5 576C324.672 576 324 576.672 324 577.5C324 578.328 324.672 579 325.5 579Z" fill="#999999"/>
<path d="M349.5 603C350.328 603 351 602.328 351 601.5C351 600.672 350.328 600 349.5 600C348.672 600 348 600.672 348 601.5C348 602.328 348.672 603 349.5 603Z" fill="#999999"/>
<path d="M373.5 603C374.328 603 375 602.328 375 601.5C375 600.672 374.328 600 373.5 600C372.672 600 372 600.672 372 601.5C372 602.328 372.672 603 373.5 603Z" fill="#999999"/>
<path d="M397.5 603C398.328 603 399 602.328 399 601.5C399 600.672 398.328 600 397.5 600C396.672 600 396 600.672 396 601.5C396 602.328 396.672 603 397.5 603Z" fill="#999999"/>
<path d="M421.5 603C422.328 603 423 602.328 423 601.5C423 600.672 422.328 600 421.5 600C420.672 600 420 600.672 420 601.5C420 602.328 420.672 603 421.5 603Z" fill="#999999"/>
<path d="M445.5 603C446.328 603 447 602.328 447 601.5C447 600.672 446.328 600 445.5 600C444.672 600 444 600.672 444 601.5C444 602.328 444.672 603 445.5 603Z" fill="#999999"/>
<path d="M469.5 603C470.328 603 471 602.328 471 601.5C471 600.672 470.328 600 469.5 600C468.672 600 468 600.672 468 601.5C468 602.328 468.672 603 469.5 603Z" fill="#999999"/>
<path d="M493.5 603C494.328 603 495 602.328 495 601.5C495 600.672 494.328 600 493.5 600C492.672 600 492 600.672 492 601.5C492 602.328 492.672 603 493.5 603Z" fill="#999999"/>
<path d="M517.5 603C518.328 603 519 602.328 519 601.5C519 600.672 518.328 600 517.5 600C516.672 600 516 600.672 516 601.5C516 602.328 516.672 603 517.5 603Z" fill="#999999"/>
<path d="M541.5 603C542.328 603 543 602.328 543 601.5C543 600.672 542.328 600 541.5 600C540.672 600 540 600.672 540 601.5C540 602.328 540.672 603 541.5 603Z" fill="#999999"/>
<path d="M325.5 603C326.328 603 327 602.328 327 601.5C327 600.672 326.328 600 325.5 600C324.672 600 324 600.672 324 601.5C324 602.328 324.672 603 325.5 603Z" fill="#999999"/>
<path d="M349.5 627C350.328 627 351 626.328 351 625.5C351 624.672 350.328 624 349.5 624C348.672 624 348 624.672 348 625.5C348 626.328 348.672 627 349.5 627Z" fill="#999999"/>
<path d="M373.5 627C374.328 627 375 626.328 375 625.5C375 624.672 374.328 624 373.5 624C372.672 624 372 624.672 372 625.5C372 626.328 372.672 627 373.5 627Z" fill="#999999"/>
<path d="M397.5 627C398.328 627 399 626.328 399 625.5C399 624.672 398.328 624 397.5 624C396.672 624 396 624.672 396 625.5C396 626.328 396.672 627 397.5 627Z" fill="#999999"/>
<path d="M421.5 627C422.328 627 423 626.328 423 625.5C423 624.672 422.328 624 421.5 624C420.672 624 420 624.672 420 625.5C420 626.328 420.672 627 421.5 627Z" fill="#999999"/>
<path d="M445.5 627C446.328 627 447 626.328 447 625.5C447 624.672 446.328 624 445.5 624C444.672 624 444 624.672 444 625.5C444 626.328 444.672 627 445.5 627Z" fill="#999999"/>
<path d="M469.5 627C470.328 627 471 626.328 471 625.5C471 624.672 470.328 624 469.5 624C468.672 624 468 624.672 468 625.5C468 626.328 468.672 627 469.5 627Z" fill="#999999"/>
<path d="M493.5 627C494.328 627 495 626.328 495 625.5C495 624.672 494.328 624 493.5 624C492.672 624 492 624.672 492 625.5C492 626.328 492.672 627 493.5 627Z" fill="#999999"/>
<path d="M517.5 627C518.328 627 519 626.328 519 625.5C519 624.672 518.328 624 517.5 624C516.672 624 516 624.672 516 625.5C516 626.328 516.672 627 517.5 627Z" fill="#999999"/>
<path d="M541.5 627C542.328 627 543 626.328 543 625.5C543 624.672 542.328 624 541.5 624C540.672 624 540 624.672 540 625.5C540 626.328 540.672 627 541.5 627Z" fill="#999999"/>
<path d="M325.5 627C326.328 627 327 626.328 327 625.5C327 624.672 326.328 624 325.5 624C324.672 624 324 624.672 324 625.5C324 626.328 324.672 627 325.5 627Z" fill="#999999"/>
<path d="M349.5 27C350.328 27 351 26.3284 351 25.5C351 24.6716 350.328 24 349.5 24C348.672 24 348 24.6716 348 25.5C348 26.3284 348.672 27 349.5 27Z" fill="#999999"/>
<path d="M349.5 3C350.328 3 351 2.32843 351 1.5C351 0.671573 350.328 0 349.5 0C348.672 0 348 0.671573 348 1.5C348 2.32843 348.672 3 349.5 3Z" fill="#999999"/>
<path d="M373.5 27C374.328 27 375 26.3284 375 25.5C375 24.6716 374.328 24 373.5 24C372.672 24 372 24.6716 372 25.5C372 26.3284 372.672 27 373.5 27Z" fill="#999999"/>
<path d="M373.5 3C374.328 3 375 2.32843 375 1.5C375 0.671573 374.328 0 373.5 0C372.672 0 372 0.671573 372 1.5C372 2.32843 372.672 3 373.5 3Z" fill="#999999"/>
<path d="M397.5 27C398.328 27 399 26.3284 399 25.5C399 24.6716 398.328 24 397.5 24C396.672 24 396 24.6716 396 25.5C396 26.3284 396.672 27 397.5 27Z" fill="#999999"/>
<path d="M397.5 3C398.328 3 399 2.32843 399 1.5C399 0.671573 398.328 0 397.5 0C396.672 0 396 0.671573 396 1.5C396 2.32843 396.672 3 397.5 3Z" fill="#999999"/>
<path d="M421.5 27C422.328 27 423 26.3284 423 25.5C423 24.6716 422.328 24 421.5 24C420.672 24 420 24.6716 420 25.5C420 26.3284 420.672 27 421.5 27Z" fill="#999999"/>
<path d="M421.5 3C422.328 3 423 2.32843 423 1.5C423 0.671573 422.328 0 421.5 0C420.672 0 420 0.671573 420 1.5C420 2.32843 420.672 3 421.5 3Z" fill="#999999"/>
<path d="M445.5 27C446.328 27 447 26.3284 447 25.5C447 24.6716 446.328 24 445.5 24C444.672 24 444 24.6716 444 25.5C444 26.3284 444.672 27 445.5 27Z" fill="#999999"/>
<path d="M445.5 3C446.328 3 447 2.32843 447 1.5C447 0.671573 446.328 0 445.5 0C444.672 0 444 0.671573 444 1.5C444 2.32843 444.672 3 445.5 3Z" fill="#999999"/>
<path d="M469.5 27C470.328 27 471 26.3284 471 25.5C471 24.6716 470.328 24 469.5 24C468.672 24 468 24.6716 468 25.5C468 26.3284 468.672 27 469.5 27Z" fill="#999999"/>
<path d="M469.5 3C470.328 3 471 2.32843 471 1.5C471 0.671573 470.328 0 469.5 0C468.672 0 468 0.671573 468 1.5C468 2.32843 468.672 3 469.5 3Z" fill="#999999"/>
<path d="M493.5 27C494.328 27 495 26.3284 495 25.5C495 24.6716 494.328 24 493.5 24C492.672 24 492 24.6716 492 25.5C492 26.3284 492.672 27 493.5 27Z" fill="#999999"/>
<path d="M493.5 3C494.328 3 495 2.32843 495 1.5C495 0.671573 494.328 0 493.5 0C492.672 0 492 0.671573 492 1.5C492 2.32843 492.672 3 493.5 3Z" fill="#999999"/>
<path d="M517.5 27C518.328 27 519 26.3284 519 25.5C519 24.6716 518.328 24 517.5 24C516.672 24 516 24.6716 516 25.5C516 26.3284 516.672 27 517.5 27Z" fill="#999999"/>
<path d="M517.5 3C518.328 3 519 2.32843 519 1.5C519 0.671573 518.328 0 517.5 0C516.672 0 516 0.671573 516 1.5C516 2.32843 516.672 3 517.5 3Z" fill="#999999"/>
<path d="M541.5 27C542.328 27 543 26.3284 543 25.5C543 24.6716 542.328 24 541.5 24C540.672 24 540 24.6716 540 25.5C540 26.3284 540.672 27 541.5 27Z" fill="#999999"/>
<path d="M325.5 27C326.328 27 327 26.3284 327 25.5C327 24.6716 326.328 24 325.5 24C324.672 24 324 24.6716 324 25.5C324 26.3284 324.672 27 325.5 27Z" fill="#999999"/>
<path d="M541.5 3C542.328 3 543 2.32843 543 1.5C543 0.671573 542.328 0 541.5 0C540.672 0 540 0.671573 540 1.5C540 2.32843 540.672 3 541.5 3Z" fill="#999999"/>
<path d="M325.5 3C326.328 3 327 2.32843 327 1.5C327 0.671573 326.328 0 325.5 0C324.672 0 324 0.671573 324 1.5C324 2.32843 324.672 3 325.5 3Z" fill="#999999"/>
<path d="M349.5 51C350.328 51 351 50.3284 351 49.5C351 48.6716 350.328 48 349.5 48C348.672 48 348 48.6716 348 49.5C348 50.3284 348.672 51 349.5 51Z" fill="#999999"/>
<path d="M373.5 51C374.328 51 375 50.3284 375 49.5C375 48.6716 374.328 48 373.5 48C372.672 48 372 48.6716 372 49.5C372 50.3284 372.672 51 373.5 51Z" fill="#999999"/>
<path d="M397.5 51C398.328 51 399 50.3284 399 49.5C399 48.6716 398.328 48 397.5 48C396.672 48 396 48.6716 396 49.5C396 50.3284 396.672 51 397.5 51Z" fill="#999999"/>
<path d="M421.5 51C422.328 51 423 50.3284 423 49.5C423 48.6716 422.328 48 421.5 48C420.672 48 420 48.6716 420 49.5C420 50.3284 420.672 51 421.5 51Z" fill="#999999"/>
<path d="M445.5 51C446.328 51 447 50.3284 447 49.5C447 48.6716 446.328 48 445.5 48C444.672 48 444 48.6716 444 49.5C444 50.3284 444.672 51 445.5 51Z" fill="#999999"/>
<path d="M469.5 51C470.328 51 471 50.3284 471 49.5C471 48.6716 470.328 48 469.5 48C468.672 48 468 48.6716 468 49.5C468 50.3284 468.672 51 469.5 51Z" fill="#999999"/>
<path d="M493.5 51C494.328 51 495 50.3284 495 49.5C495 48.6716 494.328 48 493.5 48C492.672 48 492 48.6716 492 49.5C492 50.3284 492.672 51 493.5 51Z" fill="#999999"/>
<path d="M517.5 51C518.328 51 519 50.3284 519 49.5C519 48.6716 518.328 48 517.5 48C516.672 48 516 48.6716 516 49.5C516 50.3284 516.672 51 517.5 51Z" fill="#999999"/>
<path d="M541.5 51C542.328 51 543 50.3284 543 49.5C543 48.6716 542.328 48 541.5 48C540.672 48 540 48.6716 540 49.5C540 50.3284 540.672 51 541.5 51Z" fill="#999999"/>
<path d="M325.5 51C326.328 51 327 50.3284 327 49.5C327 48.6716 326.328 48 325.5 48C324.672 48 324 48.6716 324 49.5C324 50.3284 324.672 51 325.5 51Z" fill="#999999"/>
<path d="M349.5 75C350.328 75 351 74.3284 351 73.5C351 72.6716 350.328 72 349.5 72C348.672 72 348 72.6716 348 73.5C348 74.3284 348.672 75 349.5 75Z" fill="#999999"/>
<path d="M373.5 75C374.328 75 375 74.3284 375 73.5C375 72.6716 374.328 72 373.5 72C372.672 72 372 72.6716 372 73.5C372 74.3284 372.672 75 373.5 75Z" fill="#999999"/>
<path d="M397.5 75C398.328 75 399 74.3284 399 73.5C399 72.6716 398.328 72 397.5 72C396.672 72 396 72.6716 396 73.5C396 74.3284 396.672 75 397.5 75Z" fill="#999999"/>
<path d="M421.5 75C422.328 75 423 74.3284 423 73.5C423 72.6716 422.328 72 421.5 72C420.672 72 420 72.6716 420 73.5C420 74.3284 420.672 75 421.5 75Z" fill="#999999"/>
<path d="M445.5 75C446.328 75 447 74.3284 447 73.5C447 72.6716 446.328 72 445.5 72C444.672 72 444 72.6716 444 73.5C444 74.3284 444.672 75 445.5 75Z" fill="#999999"/>
<path d="M469.5 75C470.328 75 471 74.3284 471 73.5C471 72.6716 470.328 72 469.5 72C468.672 72 468 72.6716 468 73.5C468 74.3284 468.672 75 469.5 75Z" fill="#999999"/>
<path d="M493.5 75C494.328 75 495 74.3284 495 73.5C495 72.6716 494.328 72 493.5 72C492.672 72 492 72.6716 492 73.5C492 74.3284 492.672 75 493.5 75Z" fill="#999999"/>
<path d="M517.5 75C518.328 75 519 74.3284 519 73.5C519 72.6716 518.328 72 517.5 72C516.672 72 516 72.6716 516 73.5C516 74.3284 516.672 75 517.5 75Z" fill="#999999"/>
<path d="M541.5 75C542.328 75 543 74.3284 543 73.5C543 72.6716 542.328 72 541.5 72C540.672 72 540 72.6716 540 73.5C540 74.3284 540.672 75 541.5 75Z" fill="#999999"/>
<path d="M325.5 75C326.328 75 327 74.3284 327 73.5C327 72.6716 326.328 72 325.5 72C324.672 72 324 72.6716 324 73.5C324 74.3284 324.672 75 325.5 75Z" fill="#999999"/>
<path d="M349.5 99C350.328 99 351 98.3284 351 97.5C351 96.6716 350.328 96 349.5 96C348.672 96 348 96.6716 348 97.5C348 98.3284 348.672 99 349.5 99Z" fill="#999999"/>
<path d="M373.5 99C374.328 99 375 98.3284 375 97.5C375 96.6716 374.328 96 373.5 96C372.672 96 372 96.6716 372 97.5C372 98.3284 372.672 99 373.5 99Z" fill="#999999"/>
<path d="M397.5 99C398.328 99 399 98.3284 399 97.5C399 96.6716 398.328 96 397.5 96C396.672 96 396 96.6716 396 97.5C396 98.3284 396.672 99 397.5 99Z" fill="#999999"/>
<path d="M421.5 99C422.328 99 423 98.3284 423 97.5C423 96.6716 422.328 96 421.5 96C420.672 96 420 96.6716 420 97.5C420 98.3284 420.672 99 421.5 99Z" fill="#999999"/>
<path d="M445.5 99C446.328 99 447 98.3284 447 97.5C447 96.6716 446.328 96 445.5 96C444.672 96 444 96.6716 444 97.5C444 98.3284 444.672 99 445.5 99Z" fill="#999999"/>
<path d="M469.5 99C470.328 99 471 98.3284 471 97.5C471 96.6716 470.328 96 469.5 96C468.672 96 468 96.6716 468 97.5C468 98.3284 468.672 99 469.5 99Z" fill="#999999"/>
<path d="M493.5 99C494.328 99 495 98.3284 495 97.5C495 96.6716 494.328 96 493.5 96C492.672 96 492 96.6716 492 97.5C492 98.3284 492.672 99 493.5 99Z" fill="#999999"/>
<path d="M517.5 99C518.328 99 519 98.3284 519 97.5C519 96.6716 518.328 96 517.5 96C516.672 96 516 96.6716 516 97.5C516 98.3284 516.672 99 517.5 99Z" fill="#999999"/>
<path d="M541.5 99C542.328 99 543 98.3284 543 97.5C543 96.6716 542.328 96 541.5 96C540.672 96 540 96.6716 540 97.5C540 98.3284 540.672 99 541.5 99Z" fill="#999999"/>
<path d="M325.5 99C326.328 99 327 98.3284 327 97.5C327 96.6716 326.328 96 325.5 96C324.672 96 324 96.6716 324 97.5C324 98.3284 324.672 99 325.5 99Z" fill="#999999"/>
<path d="M349.5 123C350.328 123 351 122.328 351 121.5C351 120.672 350.328 120 349.5 120C348.672 120 348 120.672 348 121.5C348 122.328 348.672 123 349.5 123Z" fill="#999999"/>
<path d="M373.5 123C374.328 123 375 122.328 375 121.5C375 120.672 374.328 120 373.5 120C372.672 120 372 120.672 372 121.5C372 122.328 372.672 123 373.5 123Z" fill="#999999"/>
<path d="M397.5 123C398.328 123 399 122.328 399 121.5C399 120.672 398.328 120 397.5 120C396.672 120 396 120.672 396 121.5C396 122.328 396.672 123 397.5 123Z" fill="#999999"/>
<path d="M421.5 123C422.328 123 423 122.328 423 121.5C423 120.672 422.328 120 421.5 120C420.672 120 420 120.672 420 121.5C420 122.328 420.672 123 421.5 123Z" fill="#999999"/>
<path d="M445.5 123C446.328 123 447 122.328 447 121.5C447 120.672 446.328 120 445.5 120C444.672 120 444 120.672 444 121.5C444 122.328 444.672 123 445.5 123Z" fill="#999999"/>
<path d="M469.5 123C470.328 123 471 122.328 471 121.5C471 120.672 470.328 120 469.5 120C468.672 120 468 120.672 468 121.5C468 122.328 468.672 123 469.5 123Z" fill="#999999"/>
<path d="M493.5 123C494.328 123 495 122.328 495 121.5C495 120.672 494.328 120 493.5 120C492.672 120 492 120.672 492 121.5C492 122.328 492.672 123 493.5 123Z" fill="#999999"/>
<path d="M517.5 123C518.328 123 519 122.328 519 121.5C519 120.672 518.328 120 517.5 120C516.672 120 516 120.672 516 121.5C516 122.328 516.672 123 517.5 123Z" fill="#999999"/>
<path d="M541.5 123C542.328 123 543 122.328 543 121.5C543 120.672 542.328 120 541.5 120C540.672 120 540 120.672 540 121.5C540 122.328 540.672 123 541.5 123Z" fill="#999999"/>
<path d="M325.5 123C326.328 123 327 122.328 327 121.5C327 120.672 326.328 120 325.5 120C324.672 120 324 120.672 324 121.5C324 122.328 324.672 123 325.5 123Z" fill="#999999"/>
<path d="M349.5 147C350.328 147 351 146.328 351 145.5C351 144.672 350.328 144 349.5 144C348.672 144 348 144.672 348 145.5C348 146.328 348.672 147 349.5 147Z" fill="#999999"/>
<path d="M373.5 147C374.328 147 375 146.328 375 145.5C375 144.672 374.328 144 373.5 144C372.672 144 372 144.672 372 145.5C372 146.328 372.672 147 373.5 147Z" fill="#999999"/>
<path d="M397.5 147C398.328 147 399 146.328 399 145.5C399 144.672 398.328 144 397.5 144C396.672 144 396 144.672 396 145.5C396 146.328 396.672 147 397.5 147Z" fill="#999999"/>
<path d="M421.5 147C422.328 147 423 146.328 423 145.5C423 144.672 422.328 144 421.5 144C420.672 144 420 144.672 420 145.5C420 146.328 420.672 147 421.5 147Z" fill="#999999"/>
<path d="M445.5 147C446.328 147 447 146.328 447 145.5C447 144.672 446.328 144 445.5 144C444.672 144 444 144.672 444 145.5C444 146.328 444.672 147 445.5 147Z" fill="#999999"/>
<path d="M469.5 147C470.328 147 471 146.328 471 145.5C471 144.672 470.328 144 469.5 144C468.672 144 468 144.672 468 145.5C468 146.328 468.672 147 469.5 147Z" fill="#999999"/>
<path d="M493.5 147C494.328 147 495 146.328 495 145.5C495 144.672 494.328 144 493.5 144C492.672 144 492 144.672 492 145.5C492 146.328 492.672 147 493.5 147Z" fill="#999999"/>
<path d="M517.5 147C518.328 147 519 146.328 519 145.5C519 144.672 518.328 144 517.5 144C516.672 144 516 144.672 516 145.5C516 146.328 516.672 147 517.5 147Z" fill="#999999"/>
<path d="M541.5 147C542.328 147 543 146.328 543 145.5C543 144.672 542.328 144 541.5 144C540.672 144 540 144.672 540 145.5C540 146.328 540.672 147 541.5 147Z" fill="#999999"/>
<path d="M325.5 147C326.328 147 327 146.328 327 145.5C327 144.672 326.328 144 325.5 144C324.672 144 324 144.672 324 145.5C324 146.328 324.672 147 325.5 147Z" fill="#999999"/>
<path d="M349.5 171C350.328 171 351 170.328 351 169.5C351 168.672 350.328 168 349.5 168C348.672 168 348 168.672 348 169.5C348 170.328 348.672 171 349.5 171Z" fill="#999999"/>
<path d="M373.5 171C374.328 171 375 170.328 375 169.5C375 168.672 374.328 168 373.5 168C372.672 168 372 168.672 372 169.5C372 170.328 372.672 171 373.5 171Z" fill="#999999"/>
<path d="M397.5 171C398.328 171 399 170.328 399 169.5C399 168.672 398.328 168 397.5 168C396.672 168 396 168.672 396 169.5C396 170.328 396.672 171 397.5 171Z" fill="#999999"/>
<path d="M421.5 171C422.328 171 423 170.328 423 169.5C423 168.672 422.328 168 421.5 168C420.672 168 420 168.672 420 169.5C420 170.328 420.672 171 421.5 171Z" fill="#999999"/>
<path d="M445.5 171C446.328 171 447 170.328 447 169.5C447 168.672 446.328 168 445.5 168C444.672 168 444 168.672 444 169.5C444 170.328 444.672 171 445.5 171Z" fill="#999999"/>
<path d="M469.5 171C470.328 171 471 170.328 471 169.5C471 168.672 470.328 168 469.5 168C468.672 168 468 168.672 468 169.5C468 170.328 468.672 171 469.5 171Z" fill="#999999"/>
<path d="M493.5 171C494.328 171 495 170.328 495 169.5C495 168.672 494.328 168 493.5 168C492.672 168 492 168.672 492 169.5C492 170.328 492.672 171 493.5 171Z" fill="#999999"/>
<path d="M517.5 171C518.328 171 519 170.328 519 169.5C519 168.672 518.328 168 517.5 168C516.672 168 516 168.672 516 169.5C516 170.328 516.672 171 517.5 171Z" fill="#999999"/>
<path d="M541.5 171C542.328 171 543 170.328 543 169.5C543 168.672 542.328 168 541.5 168C540.672 168 540 168.672 540 169.5C540 170.328 540.672 171 541.5 171Z" fill="#999999"/>
<path d="M325.5 171C326.328 171 327 170.328 327 169.5C327 168.672 326.328 168 325.5 168C324.672 168 324 168.672 324 169.5C324 170.328 324.672 171 325.5 171Z" fill="#999999"/>
<path d="M349.5 195C350.328 195 351 194.328 351 193.5C351 192.672 350.328 192 349.5 192C348.672 192 348 192.672 348 193.5C348 194.328 348.672 195 349.5 195Z" fill="#999999"/>
<path d="M373.5 195C374.328 195 375 194.328 375 193.5C375 192.672 374.328 192 373.5 192C372.672 192 372 192.672 372 193.5C372 194.328 372.672 195 373.5 195Z" fill="#999999"/>
<path d="M397.5 195C398.328 195 399 194.328 399 193.5C399 192.672 398.328 192 397.5 192C396.672 192 396 192.672 396 193.5C396 194.328 396.672 195 397.5 195Z" fill="#999999"/>
<path d="M421.5 195C422.328 195 423 194.328 423 193.5C423 192.672 422.328 192 421.5 192C420.672 192 420 192.672 420 193.5C420 194.328 420.672 195 421.5 195Z" fill="#999999"/>
<path d="M445.5 195C446.328 195 447 194.328 447 193.5C447 192.672 446.328 192 445.5 192C444.672 192 444 192.672 444 193.5C444 194.328 444.672 195 445.5 195Z" fill="#999999"/>
<path d="M469.5 195C470.328 195 471 194.328 471 193.5C471 192.672 470.328 192 469.5 192C468.672 192 468 192.672 468 193.5C468 194.328 468.672 195 469.5 195Z" fill="#999999"/>
<path d="M493.5 195C494.328 195 495 194.328 495 193.5C495 192.672 494.328 192 493.5 192C492.672 192 492 192.672 492 193.5C492 194.328 492.672 195 493.5 195Z" fill="#999999"/>
<path d="M517.5 195C518.328 195 519 194.328 519 193.5C519 192.672 518.328 192 517.5 192C516.672 192 516 192.672 516 193.5C516 194.328 516.672 195 517.5 195Z" fill="#999999"/>
<path d="M541.5 195C542.328 195 543 194.328 543 193.5C543 192.672 542.328 192 541.5 192C540.672 192 540 192.672 540 193.5C540 194.328 540.672 195 541.5 195Z" fill="#999999"/>
<path d="M325.5 195C326.328 195 327 194.328 327 193.5C327 192.672 326.328 192 325.5 192C324.672 192 324 192.672 324 193.5C324 194.328 324.672 195 325.5 195Z" fill="#999999"/>
<path d="M349.5 219C350.328 219 351 218.328 351 217.5C351 216.672 350.328 216 349.5 216C348.672 216 348 216.672 348 217.5C348 218.328 348.672 219 349.5 219Z" fill="#999999"/>
<path d="M373.5 219C374.328 219 375 218.328 375 217.5C375 216.672 374.328 216 373.5 216C372.672 216 372 216.672 372 217.5C372 218.328 372.672 219 373.5 219Z" fill="#999999"/>
<path d="M397.5 219C398.328 219 399 218.328 399 217.5C399 216.672 398.328 216 397.5 216C396.672 216 396 216.672 396 217.5C396 218.328 396.672 219 397.5 219Z" fill="#999999"/>
<path d="M421.5 219C422.328 219 423 218.328 423 217.5C423 216.672 422.328 216 421.5 216C420.672 216 420 216.672 420 217.5C420 218.328 420.672 219 421.5 219Z" fill="#999999"/>
<path d="M445.5 219C446.328 219 447 218.328 447 217.5C447 216.672 446.328 216 445.5 216C444.672 216 444 216.672 444 217.5C444 218.328 444.672 219 445.5 219Z" fill="#999999"/>
<path d="M469.5 219C470.328 219 471 218.328 471 217.5C471 216.672 470.328 216 469.5 216C468.672 216 468 216.672 468 217.5C468 218.328 468.672 219 469.5 219Z" fill="#999999"/>
<path d="M493.5 219C494.328 219 495 218.328 495 217.5C495 216.672 494.328 216 493.5 216C492.672 216 492 216.672 492 217.5C492 218.328 492.672 219 493.5 219Z" fill="#999999"/>
<path d="M517.5 219C518.328 219 519 218.328 519 217.5C519 216.672 518.328 216 517.5 216C516.672 216 516 216.672 516 217.5C516 218.328 516.672 219 517.5 219Z" fill="#999999"/>
<path d="M541.5 219C542.328 219 543 218.328 543 217.5C543 216.672 542.328 216 541.5 216C540.672 216 540 216.672 540 217.5C540 218.328 540.672 219 541.5 219Z" fill="#999999"/>
<path d="M325.5 219C326.328 219 327 218.328 327 217.5C327 216.672 326.328 216 325.5 216C324.672 216 324 216.672 324 217.5C324 218.328 324.672 219 325.5 219Z" fill="#999999"/>
<path d="M349.5 243C350.328 243 351 242.328 351 241.5C351 240.672 350.328 240 349.5 240C348.672 240 348 240.672 348 241.5C348 242.328 348.672 243 349.5 243Z" fill="#999999"/>
<path d="M373.5 243C374.328 243 375 242.328 375 241.5C375 240.672 374.328 240 373.5 240C372.672 240 372 240.672 372 241.5C372 242.328 372.672 243 373.5 243Z" fill="#999999"/>
<path d="M397.5 243C398.328 243 399 242.328 399 241.5C399 240.672 398.328 240 397.5 240C396.672 240 396 240.672 396 241.5C396 242.328 396.672 243 397.5 243Z" fill="#999999"/>
<path d="M421.5 243C422.328 243 423 242.328 423 241.5C423 240.672 422.328 240 421.5 240C420.672 240 420 240.672 420 241.5C420 242.328 420.672 243 421.5 243Z" fill="#999999"/>
<path d="M445.5 243C446.328 243 447 242.328 447 241.5C447 240.672 446.328 240 445.5 240C444.672 240 444 240.672 444 241.5C444 242.328 444.672 243 445.5 243Z" fill="#999999"/>
<path d="M469.5 243C470.328 243 471 242.328 471 241.5C471 240.672 470.328 240 469.5 240C468.672 240 468 240.672 468 241.5C468 242.328 468.672 243 469.5 243Z" fill="#999999"/>
<path d="M493.5 243C494.328 243 495 242.328 495 241.5C495 240.672 494.328 240 493.5 240C492.672 240 492 240.672 492 241.5C492 242.328 492.672 243 493.5 243Z" fill="#999999"/>
<path d="M517.5 243C518.328 243 519 242.328 519 241.5C519 240.672 518.328 240 517.5 240C516.672 240 516 240.672 516 241.5C516 242.328 516.672 243 517.5 243Z" fill="#999999"/>
<path d="M541.5 243C542.328 243 543 242.328 543 241.5C543 240.672 542.328 240 541.5 240C540.672 240 540 240.672 540 241.5C540 242.328 540.672 243 541.5 243Z" fill="#999999"/>
<path d="M325.5 243C326.328 243 327 242.328 327 241.5C327 240.672 326.328 240 325.5 240C324.672 240 324 240.672 324 241.5C324 242.328 324.672 243 325.5 243Z" fill="#999999"/>
<path d="M349.5 267C350.328 267 351 266.328 351 265.5C351 264.672 350.328 264 349.5 264C348.672 264 348 264.672 348 265.5C348 266.328 348.672 267 349.5 267Z" fill="#999999"/>
<path d="M373.5 267C374.328 267 375 266.328 375 265.5C375 264.672 374.328 264 373.5 264C372.672 264 372 264.672 372 265.5C372 266.328 372.672 267 373.5 267Z" fill="#999999"/>
<path d="M397.5 267C398.328 267 399 266.328 399 265.5C399 264.672 398.328 264 397.5 264C396.672 264 396 264.672 396 265.5C396 266.328 396.672 267 397.5 267Z" fill="#999999"/>
<path d="M421.5 267C422.328 267 423 266.328 423 265.5C423 264.672 422.328 264 421.5 264C420.672 264 420 264.672 420 265.5C420 266.328 420.672 267 421.5 267Z" fill="#999999"/>
<path d="M445.5 267C446.328 267 447 266.328 447 265.5C447 264.672 446.328 264 445.5 264C444.672 264 444 264.672 444 265.5C444 266.328 444.672 267 445.5 267Z" fill="#999999"/>
<path d="M469.5 267C470.328 267 471 266.328 471 265.5C471 264.672 470.328 264 469.5 264C468.672 264 468 264.672 468 265.5C468 266.328 468.672 267 469.5 267Z" fill="#999999"/>
<path d="M493.5 267C494.328 267 495 266.328 495 265.5C495 264.672 494.328 264 493.5 264C492.672 264 492 264.672 492 265.5C492 266.328 492.672 267 493.5 267Z" fill="#999999"/>
<path d="M517.5 267C518.328 267 519 266.328 519 265.5C519 264.672 518.328 264 517.5 264C516.672 264 516 264.672 516 265.5C516 266.328 516.672 267 517.5 267Z" fill="#999999"/>
<path d="M541.5 267C542.328 267 543 266.328 543 265.5C543 264.672 542.328 264 541.5 264C540.672 264 540 264.672 540 265.5C540 266.328 540.672 267 541.5 267Z" fill="#999999"/>
<path d="M325.5 267C326.328 267 327 266.328 327 265.5C327 264.672 326.328 264 325.5 264C324.672 264 324 264.672 324 265.5C324 266.328 324.672 267 325.5 267Z" fill="#999999"/>
<path d="M349.5 291C350.328 291 351 290.328 351 289.5C351 288.672 350.328 288 349.5 288C348.672 288 348 288.672 348 289.5C348 290.328 348.672 291 349.5 291Z" fill="#999999"/>
<path d="M373.5 291C374.328 291 375 290.328 375 289.5C375 288.672 374.328 288 373.5 288C372.672 288 372 288.672 372 289.5C372 290.328 372.672 291 373.5 291Z" fill="#999999"/>
<path d="M397.5 291C398.328 291 399 290.328 399 289.5C399 288.672 398.328 288 397.5 288C396.672 288 396 288.672 396 289.5C396 290.328 396.672 291 397.5 291Z" fill="#999999"/>
<path d="M421.5 291C422.328 291 423 290.328 423 289.5C423 288.672 422.328 288 421.5 288C420.672 288 420 288.672 420 289.5C420 290.328 420.672 291 421.5 291Z" fill="#999999"/>
<path d="M445.5 291C446.328 291 447 290.328 447 289.5C447 288.672 446.328 288 445.5 288C444.672 288 444 288.672 444 289.5C444 290.328 444.672 291 445.5 291Z" fill="#999999"/>
<path d="M469.5 291C470.328 291 471 290.328 471 289.5C471 288.672 470.328 288 469.5 288C468.672 288 468 288.672 468 289.5C468 290.328 468.672 291 469.5 291Z" fill="#999999"/>
<path d="M493.5 291C494.328 291 495 290.328 495 289.5C495 288.672 494.328 288 493.5 288C492.672 288 492 288.672 492 289.5C492 290.328 492.672 291 493.5 291Z" fill="#999999"/>
<path d="M517.5 291C518.328 291 519 290.328 519 289.5C519 288.672 518.328 288 517.5 288C516.672 288 516 288.672 516 289.5C516 290.328 516.672 291 517.5 291Z" fill="#999999"/>
<path d="M541.5 291C542.328 291 543 290.328 543 289.5C543 288.672 542.328 288 541.5 288C540.672 288 540 288.672 540 289.5C540 290.328 540.672 291 541.5 291Z" fill="#999999"/>
<path d="M325.5 291C326.328 291 327 290.328 327 289.5C327 288.672 326.328 288 325.5 288C324.672 288 324 288.672 324 289.5C324 290.328 324.672 291 325.5 291Z" fill="#999999"/>
<path d="M349.5 315C350.328 315 351 314.328 351 313.5C351 312.672 350.328 312 349.5 312C348.672 312 348 312.672 348 313.5C348 314.328 348.672 315 349.5 315Z" fill="#999999"/>
<path d="M373.5 315C374.328 315 375 314.328 375 313.5C375 312.672 374.328 312 373.5 312C372.672 312 372 312.672 372 313.5C372 314.328 372.672 315 373.5 315Z" fill="#999999"/>
<path d="M397.5 315C398.328 315 399 314.328 399 313.5C399 312.672 398.328 312 397.5 312C396.672 312 396 312.672 396 313.5C396 314.328 396.672 315 397.5 315Z" fill="#999999"/>
<path d="M421.5 315C422.328 315 423 314.328 423 313.5C423 312.672 422.328 312 421.5 312C420.672 312 420 312.672 420 313.5C420 314.328 420.672 315 421.5 315Z" fill="#999999"/>
<path d="M445.5 315C446.328 315 447 314.328 447 313.5C447 312.672 446.328 312 445.5 312C444.672 312 444 312.672 444 313.5C444 314.328 444.672 315 445.5 315Z" fill="#999999"/>
<path d="M469.5 315C470.328 315 471 314.328 471 313.5C471 312.672 470.328 312 469.5 312C468.672 312 468 312.672 468 313.5C468 314.328 468.672 315 469.5 315Z" fill="#999999"/>
<path d="M493.5 315C494.328 315 495 314.328 495 313.5C495 312.672 494.328 312 493.5 312C492.672 312 492 312.672 492 313.5C492 314.328 492.672 315 493.5 315Z" fill="#999999"/>
<path d="M517.5 315C518.328 315 519 314.328 519 313.5C519 312.672 518.328 312 517.5 312C516.672 312 516 312.672 516 313.5C516 314.328 516.672 315 517.5 315Z" fill="#999999"/>
<path d="M541.5 315C542.328 315 543 314.328 543 313.5C543 312.672 542.328 312 541.5 312C540.672 312 540 312.672 540 313.5C540 314.328 540.672 315 541.5 315Z" fill="#999999"/>
<path d="M325.5 315C326.328 315 327 314.328 327 313.5C327 312.672 326.328 312 325.5 312C324.672 312 324 312.672 324 313.5C324 314.328 324.672 315 325.5 315Z" fill="#999999"/>
<path d="M0 230C0 225.582 3.58172 222 8 222H370.248C373.177 222 375.872 223.601 377.273 226.173L600 635H0V230Z" fill="#4F5955"/>
</svg>
