<svg width="146" height="57" viewBox="0 0 146 57" fill="none" xmlns="http://www.w3.org/2000/svg">
<path d="M51.4595 42.57C51.5436 42.5719 51.6275 42.5636 51.7095 42.5451C51.7661 42.5323 51.8197 42.5088 51.8676 42.476C51.9043 42.4514 51.9331 42.4168 51.9506 42.3762C51.9663 42.3336 51.9741 42.2885 51.9736 42.2431C51.9731 42.191 51.9593 42.14 51.9336 42.0947C51.9079 42.0494 51.871 42.0112 51.8265 41.9841C51.6689 41.8876 51.4991 41.8127 51.3215 41.7612C51.2175 41.7245 51.1136 41.6825 51.0096 41.6352C50.9081 41.5894 50.8137 41.5292 50.7296 41.4563C50.6467 41.3826 50.5788 41.2934 50.5295 41.1941C50.4743 41.0773 50.4476 40.9491 50.4515 40.82C50.4491 40.6822 50.4774 40.5456 50.5345 40.4201C50.5889 40.3037 50.6689 40.2011 50.7686 40.1201C50.8775 40.0336 51.0021 39.9692 51.1356 39.9301C51.2937 39.8837 51.4578 39.8612 51.6226 39.8632C51.9497 39.8562 52.2734 39.9318 52.5635 40.0832L52.3566 40.6482C52.2601 40.5993 52.1598 40.5584 52.0566 40.5261C51.9291 40.4882 51.7965 40.4703 51.6636 40.4731C51.5361 40.4635 51.4084 40.4881 51.2936 40.5442C51.2569 40.5669 51.227 40.5993 51.2071 40.6377C51.1872 40.676 51.178 40.719 51.1805 40.7622C51.179 40.8143 51.1937 40.8656 51.2225 40.9091C51.2539 40.9526 51.2937 40.9893 51.3395 41.0171C51.3947 41.0515 51.4529 41.0808 51.5135 41.1042C51.5802 41.1302 51.6529 41.157 51.7316 41.185C51.8969 41.2464 52.0409 41.3068 52.1636 41.3662C52.2761 41.419 52.3794 41.4895 52.4695 41.5752C52.5499 41.6539 52.6117 41.7496 52.6506 41.8552C52.6934 41.9806 52.7137 42.1126 52.7106 42.2451C52.7173 42.3768 52.6924 42.5082 52.6382 42.6284C52.5839 42.7486 52.5018 42.8542 52.3986 42.9362C52.1206 43.1197 51.7897 43.2057 51.4576 43.1811C51.3301 43.1822 51.2027 43.174 51.0765 43.1562C50.9753 43.1419 50.8751 43.1212 50.7766 43.0942C50.6998 43.0734 50.6247 43.0473 50.5516 43.0161C50.4976 42.9928 50.4449 42.9668 50.3936 42.9382L50.5936 42.3681C50.859 42.5086 51.1564 42.5774 51.4565 42.5681L51.4595 42.57Z" fill="#B9B9B9"/>
<path d="M58.6955 42.5012V43.1162H56.5696V39.9343H57.2856V42.5012H58.6955Z" fill="#B9B9B9"/>
<path d="M65.4905 41.5232C65.4952 41.7684 65.4539 42.0123 65.3686 42.2422C65.2955 42.4368 65.182 42.6137 65.0356 42.7613C64.8939 42.9015 64.7232 43.0089 64.5356 43.0762C64.3343 43.1475 64.1222 43.1831 63.9086 43.1812C63.6991 43.1827 63.4909 43.1471 63.2936 43.0762C63.1048 43.0084 62.9326 42.901 62.7886 42.7613C62.6396 42.6145 62.5235 42.4375 62.4486 42.2422C62.3618 42.0126 62.3198 41.7686 62.3246 41.5232C62.3196 41.2775 62.363 41.0331 62.4526 40.8042C62.5311 40.6085 62.6492 40.4311 62.7996 40.2832C62.9422 40.1437 63.1126 40.0356 63.2996 39.9661C63.4918 39.8956 63.6949 39.8597 63.8996 39.8601C64.1092 39.8589 64.3174 39.8948 64.5146 39.9661C64.7037 40.0343 64.876 40.1425 65.0196 40.2832C65.1682 40.4311 65.284 40.6086 65.3596 40.8042C65.4486 41.0334 65.4931 41.2774 65.4905 41.5232ZM63.0616 41.5232C63.0596 41.6659 63.0788 41.808 63.1186 41.9451C63.1525 42.0626 63.2085 42.1728 63.2836 42.2693C63.3541 42.3587 63.4444 42.4302 63.5476 42.4783C63.6603 42.527 63.7818 42.552 63.9046 42.552C64.0274 42.552 64.1488 42.527 64.2615 42.4783C64.3655 42.4306 64.4567 42.359 64.5277 42.2693C64.6027 42.1727 64.6586 42.0626 64.6926 41.9451C64.7322 41.808 64.7514 41.6659 64.7496 41.5232C64.7514 41.3795 64.7322 41.2363 64.6926 41.0982C64.6588 40.98 64.6028 40.8695 64.5277 40.7722C64.4566 40.6827 64.3654 40.6111 64.2615 40.5633C64.1497 40.5131 64.0282 40.4882 63.9056 40.4903C63.782 40.488 63.6595 40.5139 63.5476 40.5662C63.4447 40.6156 63.3545 40.6877 63.2836 40.7771C63.2083 40.8743 63.1523 40.9851 63.1186 41.1033C63.0805 41.24 63.0626 41.3814 63.0656 41.5232H63.0616Z" fill="#B9B9B9"/>
<path d="M70.9455 40.4851C70.8117 40.4727 70.6769 40.4914 70.5515 40.5396C70.4261 40.5878 70.3135 40.6644 70.2225 40.7632C70.0631 40.9834 69.9843 41.2518 69.9995 41.5232C69.9977 41.6668 70.0163 41.8099 70.0545 41.9483C70.0873 42.0675 70.1434 42.1788 70.2196 42.2762C70.2931 42.3681 70.3872 42.4416 70.4945 42.4903C70.6163 42.5427 70.748 42.5683 70.8806 42.5652C70.9596 42.5652 71.0285 42.5652 71.0805 42.5652C71.1306 42.563 71.1804 42.5569 71.2296 42.5472V41.4322H71.9455V43.0071C71.8109 43.0539 71.6729 43.0902 71.5326 43.1153C71.3016 43.1569 71.0671 43.1759 70.8325 43.1722C70.611 43.1751 70.3908 43.138 70.1826 43.0623C69.9943 42.993 69.8235 42.8831 69.6826 42.7403C69.5403 42.5922 69.4314 42.4151 69.3635 42.2212C69.2852 41.9963 69.247 41.7594 69.2506 41.5213C69.246 41.2798 69.288 41.0397 69.3745 40.8142C69.4507 40.619 69.5665 40.4416 69.7146 40.2933C69.8587 40.1506 70.0315 40.0402 70.2215 39.9693C70.4205 39.8952 70.6312 39.8578 70.8435 39.8592C71.0867 39.8579 71.3288 39.8917 71.5625 39.9593C71.6365 39.9801 71.7088 40.0067 71.7785 40.0391C71.8345 40.0661 71.8785 40.0883 71.8995 40.1033L71.6925 40.6773C71.5848 40.6215 71.472 40.5763 71.3556 40.5423C71.2223 40.5036 71.0842 40.4843 70.9455 40.4851Z" fill="#B9B9B9"/>
<path d="M78.0566 43.1171C78.0216 43.0061 77.9826 42.8921 77.9426 42.7761L77.8206 42.4282H76.5776L76.4566 42.7773C76.4166 42.894 76.3789 43.0071 76.3436 43.1171H75.5995C75.7189 42.7738 75.8326 42.4569 75.9406 42.1662C76.0486 41.8755 76.1539 41.6015 76.2565 41.3442C76.3592 41.0869 76.4592 40.8426 76.5566 40.6113C76.6539 40.3799 76.7576 40.1543 76.8676 39.9343H77.5466C77.6512 40.1549 77.7542 40.3806 77.8555 40.6113C77.9569 40.8419 78.0592 41.0862 78.1625 41.3442C78.2659 41.6009 78.3712 41.8749 78.4786 42.1662C78.5859 42.4575 78.6999 42.7745 78.8206 43.1171H78.0566ZM77.1966 40.6562C77.1806 40.7029 77.1572 40.7655 77.1265 40.8442L77.0215 41.1201C76.9822 41.2247 76.9382 41.3394 76.8896 41.4641C76.8409 41.5887 76.7915 41.7204 76.7415 41.8591H77.6515C77.6029 41.7211 77.5556 41.5878 77.5096 41.4592C77.4636 41.3305 77.4202 41.2155 77.3796 41.1142L77.2715 40.8391C77.2395 40.7611 77.2155 40.7012 77.1985 40.6562H77.1966Z" fill="#B9B9B9"/>
<path d="M84.6686 43.1171C84.4639 42.7525 84.2419 42.3929 84.0026 42.0383C83.768 41.689 83.5135 41.3533 83.2405 41.0332V43.1181H82.5336V39.9362H83.1166C83.2173 40.0376 83.3289 40.1616 83.4516 40.3083C83.5742 40.455 83.6989 40.6119 83.8256 40.7792C83.9523 40.9459 84.0786 41.119 84.2046 41.2983C84.3306 41.4776 84.4485 41.6498 84.5585 41.8151V39.9372H85.2705V43.1191L84.6686 43.1171Z" fill="#B9B9B9"/>
<path d="M91.9685 40.4851C91.8347 40.4727 91.7 40.4914 91.5746 40.5396C91.4492 40.5878 91.3366 40.6644 91.2456 40.7632C91.0862 40.9834 91.0074 41.2518 91.0226 41.5232C91.0209 41.6668 91.0393 41.8099 91.0775 41.9483C91.1106 42.0675 91.1671 42.1788 91.2435 42.2762C91.3171 42.3681 91.4113 42.4415 91.5185 42.4903C91.64 42.5427 91.7713 42.5682 91.9035 42.5652C91.9835 42.5652 92.0515 42.5652 92.1035 42.5652C92.1535 42.5629 92.2034 42.5569 92.2525 42.5472V41.4322H92.9685V43.0071C92.8339 43.054 92.6958 43.0902 92.5555 43.1153C92.3246 43.1569 92.0902 43.1759 91.8556 43.1722C91.634 43.1752 91.4138 43.138 91.2055 43.0623C91.0172 42.9931 90.8465 42.8831 90.7055 42.7403C90.5634 42.592 90.4547 42.415 90.3866 42.2212C90.3086 41.9962 90.2707 41.7594 90.2745 41.5213C90.27 41.2798 90.3121 41.0397 90.3985 40.8142C90.4748 40.619 90.5905 40.4416 90.7385 40.2932C90.8827 40.1506 91.0556 40.0402 91.2456 39.9693C91.4445 39.8952 91.6552 39.8578 91.8675 39.8592C92.1108 39.8579 92.3529 39.8916 92.5865 39.9593C92.6606 39.98 92.7328 40.0066 92.8025 40.0391C92.8595 40.0661 92.9025 40.0883 92.9245 40.1033L92.7175 40.6773C92.6094 40.6215 92.4962 40.5763 92.3795 40.5423C92.246 40.5035 92.1075 40.4842 91.9685 40.4851Z" fill="#B9B9B9"/>
<path d="M99.9755 41.5232C99.9803 41.7684 99.9389 42.0123 99.8536 42.2422C99.7805 42.4368 99.667 42.6137 99.5206 42.7613C99.3789 42.9015 99.2082 43.0089 99.0206 43.0762C98.8193 43.1476 98.6072 43.1831 98.3936 43.1812C98.1841 43.1826 97.9759 43.1471 97.7786 43.0762C97.5899 43.0082 97.4177 42.9009 97.2736 42.7613C97.1246 42.6145 97.0086 42.4375 96.9335 42.2422C96.8468 42.0126 96.8048 41.7686 96.8096 41.5232C96.8045 41.2775 96.8479 41.0331 96.9376 40.8042C97.0161 40.6085 97.1343 40.4311 97.2846 40.2832C97.4288 40.1432 97.6009 40.035 97.7896 39.9661C97.9818 39.8956 98.1849 39.8597 98.3896 39.8601C98.5992 39.8589 98.8074 39.8948 99.0046 39.9661C99.1937 40.0343 99.366 40.1425 99.5096 40.2832C99.6583 40.431 99.7742 40.6086 99.8496 40.8042C99.937 41.0337 99.9798 41.2777 99.9755 41.5232ZM97.5466 41.5232C97.5447 41.6659 97.5639 41.808 97.6036 41.9451C97.6375 42.0626 97.6935 42.1728 97.7686 42.2693C97.8391 42.3586 97.9294 42.4302 98.0325 42.4783C98.1453 42.527 98.2668 42.552 98.3896 42.552C98.5124 42.552 98.6339 42.527 98.7467 42.4783C98.8505 42.4306 98.9417 42.359 99.0126 42.2693C99.0878 42.1728 99.1437 42.0626 99.1776 41.9451C99.2173 41.808 99.2366 41.6659 99.2346 41.5232C99.2365 41.3795 99.2173 41.2363 99.1776 41.0982C99.1439 40.98 99.0879 40.8694 99.0126 40.7722C98.9416 40.6827 98.8505 40.6111 98.7467 40.5633C98.6348 40.5131 98.5132 40.4881 98.3906 40.4903C98.267 40.4881 98.1446 40.514 98.0325 40.5662C97.9297 40.6156 97.8395 40.6877 97.7686 40.7771C97.6933 40.8743 97.6373 40.9851 97.6036 41.1033C97.5642 41.2398 97.545 41.3812 97.5466 41.5232Z" fill="#B9B9B9"/>
<path d="M103.879 43.1171V39.9352H106.028V40.5351H104.596V41.1601H105.868V41.7473H104.596V42.5141H106.134V43.1142L103.879 43.1171Z" fill="#B9B9B9"/>
<path d="M110.834 42.57C110.918 42.5719 111.002 42.5636 111.084 42.5451C111.14 42.5325 111.194 42.509 111.243 42.476C111.279 42.4514 111.307 42.4168 111.325 42.3762C111.34 42.3337 111.348 42.2885 111.348 42.2431C111.347 42.191 111.333 42.14 111.308 42.0947C111.282 42.0494 111.245 42.0112 111.201 41.9841C111.043 41.8876 110.873 41.8127 110.696 41.7612C110.592 41.7245 110.488 41.6826 110.384 41.6352C110.282 41.5895 110.188 41.5292 110.104 41.4563C110.021 41.3826 109.953 41.2934 109.904 41.1941C109.849 41.0773 109.822 40.9491 109.826 40.82C109.823 40.6822 109.851 40.5456 109.909 40.4201C109.963 40.3037 110.043 40.2011 110.143 40.1201C110.252 40.0335 110.377 39.969 110.511 39.9301C110.668 39.8837 110.832 39.8613 110.996 39.8632C111.324 39.8562 111.647 39.9318 111.938 40.0832L111.731 40.6482C111.634 40.5993 111.534 40.5585 111.431 40.5261C111.303 40.4882 111.17 40.4703 111.038 40.4731C110.91 40.4637 110.782 40.4882 110.668 40.5442C110.631 40.5672 110.602 40.5996 110.582 40.6379C110.562 40.6762 110.553 40.7191 110.556 40.7622C110.554 40.8142 110.568 40.8655 110.597 40.9091C110.628 40.9526 110.668 40.9893 110.714 41.0171C110.769 41.0515 110.827 41.0808 110.888 41.1042C110.954 41.1302 111.027 41.157 111.107 41.185C111.272 41.2464 111.416 41.3068 111.539 41.3662C111.651 41.4191 111.754 41.4896 111.844 41.5752C111.924 41.6539 111.986 41.7496 112.025 41.8552C112.067 41.9806 112.088 42.1126 112.085 42.2451C112.091 42.3768 112.066 42.5082 112.012 42.6284C111.958 42.7486 111.876 42.8542 111.772 42.9362C111.495 43.1196 111.164 43.2057 110.832 43.1811C110.704 43.1822 110.577 43.174 110.451 43.1562C110.349 43.1419 110.249 43.1211 110.151 43.0942C110.017 43.058 109.888 43.0056 109.768 42.9382L109.968 42.3681C110.079 42.4271 110.197 42.4739 110.319 42.508C110.486 42.5532 110.66 42.5741 110.834 42.57Z" fill="#B9B9B9"/>
<path d="M118.965 39.9352H119.682V43.1171H118.965V41.7673H117.765V43.1171H117.049V39.9352H117.765V41.1523H118.965V39.9352Z" fill="#B9B9B9"/>
<path d="M123.718 43.1171V39.9352H125.867V40.5351H124.434V41.1601H125.705V41.7473H124.434V42.5141H125.973V43.1142L123.718 43.1171Z" fill="#B9B9B9"/>
<path d="M130.741 39.898C131.124 39.874 131.507 39.9628 131.841 40.1532C131.968 40.2406 132.069 40.3595 132.136 40.4984C132.203 40.6373 132.232 40.7914 132.222 40.9451C132.23 41.1383 132.176 41.329 132.068 41.4891C131.953 41.6373 131.8 41.751 131.625 41.8172C131.689 41.8972 131.757 41.9882 131.825 42.0902C131.893 42.1922 131.965 42.3002 132.034 42.4112C132.103 42.5222 132.17 42.6391 132.234 42.7601C132.298 42.8811 132.358 43 132.413 43.116H131.613L131.435 42.7992C131.375 42.6922 131.314 42.5881 131.251 42.4871C131.188 42.3861 131.126 42.287 131.064 42.2C131.002 42.113 130.941 42.0282 130.879 41.9542H130.525V43.116H129.809V39.9801C129.968 39.9492 130.13 39.9278 130.293 39.9161C130.461 39.9041 130.61 39.898 130.741 39.898ZM130.783 40.5091C130.731 40.5091 130.683 40.5091 130.643 40.5091L130.526 40.5181V41.3812H130.726C130.923 41.3954 131.122 41.3609 131.304 41.2811C131.362 41.2458 131.409 41.1949 131.44 41.1341C131.471 41.0733 131.484 41.0051 131.479 40.9371C131.484 40.8705 131.47 40.8037 131.439 40.7447C131.407 40.6857 131.36 40.6369 131.302 40.6041C131.139 40.5302 130.961 40.4982 130.783 40.5091Z" fill="#B9B9B9"/>
<path d="M136.178 43.1171V39.9352H138.326V40.5351H136.894V41.1601H138.166V41.7473H136.894V42.5141H138.431V43.1142L136.178 43.1171Z" fill="#B9B9B9"/>
<path d="M43.6587 34.2432V24.3512H50.2837V26.2212H45.8837V28.2912H49.7957V30.1613H45.8837V34.2442L43.6587 34.2432Z" fill="#B9B9B9"/>
<path d="M54.7527 24.2353C55.9428 24.1618 57.1286 24.4371 58.1647 25.0272C58.5595 25.2991 58.8764 25.6694 59.0843 26.1013C59.2921 26.5333 59.3836 27.0121 59.3497 27.4903C59.3773 28.0911 59.2095 28.6847 58.8717 29.1823C58.5156 29.6435 58.0386 29.9969 57.4937 30.2033C57.6937 30.4506 57.903 30.7336 58.1217 31.0523C58.3403 31.3709 58.557 31.7043 58.7717 32.0523C58.9857 32.3996 59.1927 32.7612 59.3927 33.1372C59.5927 33.5132 59.7784 33.8823 59.9497 34.2443H57.4597L56.9077 33.2593C56.721 32.926 56.53 32.6022 56.3347 32.2882C56.1394 31.9742 55.946 31.6769 55.7547 31.3963C55.5633 31.1156 55.3723 30.8609 55.1817 30.6322H54.0817V34.2443H51.8547V24.4922C52.3523 24.3955 52.8551 24.3287 53.3607 24.2923C53.8794 24.2543 54.3433 24.2353 54.7527 24.2353ZM54.8807 26.1353C54.7187 26.1353 54.5733 26.1399 54.4447 26.1492L54.0807 26.1782V28.8603H54.7087C55.3253 28.9035 55.9432 28.7958 56.5087 28.5463C56.69 28.4362 56.8369 28.2774 56.9327 28.0882C57.0285 27.8989 57.0694 27.6866 57.0507 27.4752C57.0671 27.2683 57.024 27.0609 56.9266 26.8776C56.8292 26.6942 56.6814 26.5424 56.5007 26.4402C55.994 26.2068 55.4376 26.1028 54.8807 26.1353Z" fill="#B9B9B9"/>
<path d="M61.3776 34.2432V24.3512H68.0597V26.2212H63.6047V28.1632H67.5597V29.9912H63.6047V32.3753H68.3877V34.2462L61.3776 34.2432Z" fill="#B9B9B9"/>
<path d="M70.0297 34.2432V24.3512H76.7117V26.2212H72.2567V28.1632H76.2117V29.9912H72.2567V32.3753H77.0397V34.2462L70.0297 34.2432Z" fill="#B9B9B9"/>
<path d="M87.3487 29.2892C87.3651 30.0557 87.2291 30.8178 86.9487 31.5313C86.7015 32.1422 86.3124 32.6855 85.8136 33.1162C85.2895 33.5532 84.6788 33.8742 84.0216 34.0583C83.2509 34.2767 82.4527 34.3824 81.6517 34.3722C81.2517 34.3722 80.785 34.3556 80.2516 34.3223C79.7238 34.2898 79.1989 34.2206 78.6807 34.1153V24.4783C79.2116 24.3811 79.7479 24.3166 80.2867 24.2853C80.8433 24.252 81.3217 24.2353 81.7217 24.2353C82.4997 24.2266 83.2753 24.3228 84.0276 24.5213C84.6776 24.6914 85.2838 24.9982 85.8057 25.4213C86.3097 25.8432 86.7019 26.3827 86.9477 26.9922C87.2314 27.724 87.3677 28.5046 87.3487 29.2892ZM80.9097 32.4302C81.0144 32.4395 81.1357 32.4465 81.2737 32.4512C81.4117 32.4562 81.5736 32.4583 81.7666 32.4583C82.2152 32.4952 82.6666 32.4394 83.0927 32.2946C83.5188 32.1497 83.9105 31.9188 84.2437 31.6162C84.8098 30.9778 85.0999 30.1411 85.0507 29.2892C85.1136 28.8552 85.0734 28.4125 84.9333 27.997C84.7932 27.5814 84.5571 27.2047 84.2443 26.8974C83.9315 26.59 83.5508 26.3607 83.1329 26.2279C82.7149 26.0952 82.2715 26.0627 81.8387 26.1332C81.686 26.1332 81.5291 26.1356 81.3677 26.1403C81.2149 26.1443 81.0623 26.1563 80.9107 26.1763L80.9097 32.4302Z" fill="#B9B9B9"/>
<path d="M98.6276 29.2882C98.6425 30.0503 98.5144 30.8084 98.2496 31.5232C98.0217 32.1276 97.669 32.6772 97.2146 33.1362C96.7715 33.5728 96.238 33.9067 95.6516 34.1142C95.0261 34.3367 94.3665 34.4477 93.7026 34.4422C93.0506 34.4465 92.403 34.3354 91.7897 34.1142C91.203 33.9032 90.6677 33.5698 90.2196 33.1362C89.7566 32.6798 89.3963 32.1299 89.1626 31.5232C88.8932 30.8095 88.7625 30.0509 88.7776 29.2882C88.7625 28.5245 88.8985 27.7652 89.1776 27.0542C89.4215 26.4457 89.7885 25.8941 90.2556 25.4342C90.7037 24.9989 91.2387 24.6633 91.8256 24.4492C92.4272 24.2294 93.0631 24.1183 93.7036 24.1212C94.3556 24.1171 95.0032 24.2282 95.6166 24.4492C96.2045 24.6611 96.74 24.997 97.1867 25.4342C97.6487 25.8941 98.0088 26.446 98.2437 27.0542C98.5127 27.7676 98.643 28.5259 98.6276 29.2882ZM91.0746 29.2882C91.0687 29.7326 91.1287 30.1754 91.2526 30.6022C91.3584 30.9674 91.5329 31.3093 91.7666 31.6092C91.986 31.8868 92.2672 32.1093 92.5877 32.2591C92.9383 32.4099 93.316 32.4877 93.6976 32.4877C94.0793 32.4877 94.457 32.4099 94.8076 32.2591C95.1309 32.1106 95.4146 31.888 95.6356 31.6092C95.8692 31.3092 96.0437 30.9674 96.1497 30.6022C96.2739 30.1754 96.3342 29.7326 96.3286 29.2882C96.3338 28.8415 96.2736 28.3964 96.1497 27.9671C96.0445 27.5995 95.87 27.2554 95.6356 26.9532C95.4146 26.6745 95.1309 26.4518 94.8076 26.3032C94.4599 26.1466 94.0819 26.0684 93.7006 26.0742C93.3161 26.067 92.9352 26.1477 92.5867 26.3102C92.2668 26.4643 91.9861 26.6889 91.7656 26.9671C91.5311 27.2692 91.3565 27.6134 91.2516 27.9812C91.129 28.4058 91.0693 28.8462 91.0746 29.2882Z" fill="#B9B9B9"/>
<path d="M103.11 24.3512C103.282 24.6652 103.48 25.0532 103.704 25.5152C103.928 25.9772 104.161 26.4772 104.404 27.0152C104.647 27.5532 104.888 28.1029 105.127 28.6642L105.8 30.2492L106.473 28.6642C106.711 28.1029 106.952 27.5532 107.196 27.0152C107.439 26.4772 107.672 25.9772 107.896 25.5152C108.12 25.0532 108.318 24.6652 108.49 24.3512H110.518C110.612 25.0079 110.7 25.7433 110.782 26.5573C110.863 27.3713 110.934 28.2182 110.996 29.0982C111.058 29.9788 111.115 30.8616 111.167 31.7462C111.219 32.6309 111.264 33.4642 111.302 34.2462H109.132C109.103 33.2849 109.065 32.2379 109.018 31.1052C108.97 29.9726 108.899 28.8302 108.804 27.6782C108.632 28.0782 108.441 28.5209 108.231 29.0062C108.021 29.4916 107.813 29.9768 107.608 30.4622C107.402 30.9475 107.204 31.4116 107.014 31.8543C106.823 32.2969 106.661 32.6752 106.527 32.9892H104.971C104.837 32.6752 104.675 32.2969 104.484 31.8543C104.292 31.4116 104.094 30.9475 103.89 30.4622C103.684 29.9768 103.477 29.4916 103.267 29.0062C103.057 28.5209 102.866 28.0782 102.694 27.6782C102.598 28.8296 102.527 29.9719 102.48 31.1052C102.432 32.2386 102.394 33.2856 102.366 34.2462H100.196C100.234 33.4656 100.279 32.6322 100.332 31.7462C100.384 30.8602 100.441 29.9775 100.503 29.0982C100.565 28.2182 100.636 27.3713 100.717 26.5573C100.797 25.7433 100.885 25.0079 100.981 24.3512H103.11Z" fill="#B9B9B9"/>
<path d="M116.589 34.3721C116.046 34.3721 115.506 34.3555 114.968 34.3222C114.404 34.2852 113.843 34.2067 113.291 34.0872V24.4921C113.787 24.4013 114.288 24.3369 114.791 24.2991C115.333 24.2565 115.838 24.2352 116.304 24.2352C116.885 24.2315 117.465 24.277 118.039 24.3712C118.517 24.4444 118.978 24.6015 119.402 24.8351C119.769 25.0411 120.076 25.3389 120.294 25.6992C120.519 26.1019 120.63 26.5588 120.615 27.0202C120.615 27.4068 120.508 27.786 120.307 28.1159C120.105 28.4459 119.817 28.7138 119.473 28.8902C120.002 29.0515 120.458 29.3956 120.758 29.8611C120.99 30.2853 121.108 30.7626 121.101 31.2462C121.128 31.7011 121.038 32.1554 120.839 32.5655C120.64 32.9756 120.34 33.3277 119.966 33.5882C118.943 34.1789 117.767 34.4518 116.589 34.3721ZM115.461 28.2332H116.546C117.05 28.2697 117.555 28.1789 118.016 27.9692C118.161 27.8823 118.279 27.7569 118.357 27.6069C118.436 27.4568 118.471 27.288 118.459 27.1192C118.473 26.9496 118.437 26.7794 118.356 26.6298C118.275 26.4802 118.152 26.3577 118.002 26.2772C117.58 26.0921 117.12 26.0088 116.66 26.0341C116.469 26.0341 116.264 26.0365 116.046 26.0412C115.827 26.0459 115.632 26.0579 115.461 26.0772V28.2332ZM115.461 29.9332V32.4892C115.623 32.5085 115.799 32.5228 115.989 32.5322C116.179 32.5415 116.388 32.5462 116.617 32.5462C117.169 32.5677 117.719 32.4705 118.23 32.2612C118.429 32.1701 118.595 32.0196 118.705 31.8303C118.815 31.641 118.863 31.4222 118.844 31.2042C118.859 31.0092 118.819 30.8139 118.728 30.6408C118.637 30.4677 118.499 30.324 118.33 30.2261C117.872 30.006 117.366 29.9052 116.859 29.9332H115.461Z" fill="#B9B9B9"/>
<path d="M122.885 24.3512H125.112V34.2462H122.885V24.3512Z" fill="#B9B9B9"/>
<path d="M130.295 24.2352C131.485 24.1616 132.671 24.4368 133.708 25.0272C134.103 25.299 134.42 25.6693 134.627 26.1013C134.835 26.5333 134.927 27.012 134.893 27.4902C134.92 28.091 134.753 28.6847 134.415 29.1822C134.059 29.6434 133.582 29.9968 133.037 30.2032C133.237 30.4505 133.446 30.7335 133.665 31.0522C133.883 31.3709 134.1 31.7042 134.315 32.0522C134.529 32.3995 134.736 32.7611 134.936 33.1371C135.136 33.5131 135.321 33.8822 135.493 34.2442H133.003L132.451 33.2592C132.265 32.9259 132.074 32.6021 131.878 32.2881C131.682 31.9741 131.488 31.6768 131.297 31.3962C131.106 31.1155 130.915 30.8608 130.724 30.6321H129.624V34.2442H127.396V24.4921C127.894 24.3954 128.397 24.3286 128.903 24.2922C129.421 24.2542 129.885 24.2352 130.295 24.2352ZM130.424 26.1352C130.262 26.1352 130.117 26.1398 129.988 26.1491L129.624 26.1782V28.8602H130.252C130.868 28.9037 131.486 28.796 132.052 28.5462C132.233 28.4362 132.38 28.2776 132.476 28.0883C132.572 27.899 132.613 27.6866 132.595 27.4752C132.611 27.2682 132.568 27.0609 132.471 26.8775C132.373 26.6941 132.225 26.5423 132.045 26.4401C131.538 26.2066 130.981 26.1026 130.424 26.1352Z" fill="#B9B9B9"/>
<path d="M145.587 29.2892C145.603 30.0557 145.467 30.8178 145.187 31.5313C144.94 32.1422 144.551 32.6855 144.052 33.1162C143.528 33.5533 142.917 33.8743 142.26 34.0583C141.489 34.2767 140.691 34.3825 139.89 34.3722C139.49 34.3722 139.023 34.3556 138.49 34.3223C137.962 34.2897 137.438 34.2205 136.92 34.1153V24.4783C137.451 24.3811 137.987 24.3166 138.526 24.2853C139.082 24.252 139.561 24.2353 139.961 24.2353C140.739 24.2266 141.514 24.3228 142.267 24.5213C142.917 24.6914 143.523 24.9982 144.045 25.4213C144.549 25.8432 144.941 26.3827 145.187 26.9922C145.47 27.724 145.606 28.5047 145.587 29.2892ZM139.148 32.4302C139.252 32.4395 139.373 32.4465 139.512 32.4512C139.649 32.4562 139.812 32.4583 140.004 32.4583C140.452 32.4952 140.904 32.4394 141.33 32.2946C141.756 32.1497 142.148 31.9188 142.481 31.6162C143.047 30.9779 143.337 30.1411 143.288 29.2892C143.351 28.8552 143.31 28.4125 143.17 27.997C143.03 27.5814 142.794 27.2047 142.481 26.8974C142.168 26.59 141.788 26.3607 141.37 26.2279C140.952 26.0952 140.509 26.0627 140.076 26.1332C139.923 26.1332 139.766 26.1356 139.605 26.1403C139.452 26.1442 139.299 26.1562 139.148 26.1763V32.4302Z" fill="#B9B9B9"/>
<path d="M46.0947 18.842L41.7747 16.266C41.1183 14.7558 40.1886 13.3797 39.0327 12.207L38.9248 12.086C36.6508 9.544 34.1247 8.35295 31.4147 8.54095C27.9947 8.77995 24.5657 11.241 21.4677 15.67C20.8157 15.404 20.1608 15.148 19.5078 14.896C14.2788 12.865 9.33965 10.947 6.49165 3.17999L5.32576 0L4.91865 3.36298C4.5347 6.2989 4.43766 9.26522 4.62873 12.22C3.48951 10.8716 2.5653 9.35539 1.88874 7.72498L0.695751 4.94098L0.332714 7.948C-1.78229 25.441 6.53272 29.214 13.8687 32.543L13.8817 32.549C13.14 35.9351 12.6322 39.3682 12.3616 42.824C12.1766 44.59 11.9617 46.591 11.7017 48.446C11.3487 48.503 11.0017 48.555 10.6647 48.608C7.77474 49.051 5.68773 49.37 5.09773 50.777C4.61073 51.937 5.50468 53.177 5.79768 53.582C6.70668 54.843 8.04168 56.433 9.52168 56.433C9.70065 56.433 9.87887 56.4094 10.0517 56.363C11.6917 55.926 12.5217 53.642 13.1357 49.857C14.4885 49.6291 15.8247 49.312 17.1357 48.908C28.7857 45.208 31.0097 37.05 32.9727 29.85C34.3487 24.803 35.5566 20.376 39.8406 18.301C41.0726 17.831 46.0947 18.842 46.0947 18.842ZM9.63569 54.79C9.25169 54.89 8.3837 54.381 7.1197 52.629C6.4977 51.767 6.57766 51.458 6.60066 51.405C6.83766 50.84 9.10067 50.4939 10.9127 50.2159L11.4367 50.1349C11.0007 52.6369 10.4297 54.578 9.63569 54.79ZM1.69575 10.929C2.5648 12.3959 3.65909 13.7171 4.93867 14.844C6.35267 23.552 11.2077 27.306 15.6317 30.719C16.5917 31.46 17.5227 32.179 18.3887 32.925C17.1527 32.244 15.8427 31.649 14.5437 31.059C7.81065 28.005 0.861751 24.853 1.69575 10.929ZM16.6427 47.358C15.5745 47.6891 14.4876 47.9562 13.3876 48.158C13.5936 46.624 13.7818 44.898 13.9818 42.995C14.2438 39.7172 14.7113 36.4592 15.3817 33.24C19.9427 35.37 23.6127 37.653 23.5307 43.879C21.4583 45.4364 19.1261 46.6143 16.6427 47.358ZM25.1347 42.4789C24.7467 35.7009 20.7947 32.6489 16.6247 29.4319C11.0687 25.1459 5.33568 20.723 6.24568 6.651C9.45268 12.738 14.2558 14.603 18.9198 16.415C24.1278 18.438 29.0488 20.35 31.7578 28.124C31.6384 28.5546 31.5197 28.9879 31.4017 29.424C30.1377 34.0579 28.8457 38.788 25.1357 42.477L25.1347 42.4789ZM32.5078 25.607C30.6811 21.3834 27.2634 18.0499 22.9957 16.329C25.7167 12.543 28.7238 10.364 31.5288 10.167C33.7088 10.011 35.7897 11.025 37.7117 13.174L37.8208 13.295C38.7274 14.2184 39.4881 15.2745 40.0767 16.4269C35.6907 18.0879 33.8238 21.569 32.5078 25.605V25.607Z" fill="#B9B9B9"/>
</svg>
